  0
SECTION
  2
HEADER
  9
$ACADVER
  1
AC1024
  9
$ACADMAINTVER
 70
6
  9
$DWGCODEPAGE
  3
ANSI_1252
  9
$LASTSAVEDBY
  1
ezdxf
  9
$INSBASE
 10
0.0
 20
0.0
 30
0.0
  9
$EXTMIN
 10
1e+20
 20
1e+20
 30
1e+20
  9
$EXTMAX
 10
-1e+20
 20
-1e+20
 30
-1e+20
  9
$LIMMIN
 10
0.0
 20
0.0
  9
$LIMMAX
 10
420.0
 20
297.0
  9
$ORTHOMODE
 70
0
  9
$REGENMODE
 70
1
  9
$FILLMODE
 70
1
  9
$QTEXTMODE
 70
0
  9
$MIRRTEXT
 70
1
  9
$LTSCALE
 40
1.0
  9
$ATTMODE
 70
1
  9
$TEXTSIZE
 40
2.5
  9
$TRACEWID
 40
1.0
  9
$TEXTSTYLE
  7
Standard
  9
$CLAYER
  8
0
  9
$CELTYPE
  6
ByLayer
  9
$CECOLOR
 62
256
  9
$CELTSCALE
 40
1.0
  9
$DISPSILH
 70
0
  9
$DIMSCALE
 40
1.0
  9
$DIMASZ
 40
2.5
  9
$DIMEXO
 40
0.625
  9
$DIMDLI
 40
3.75
  9
$DIMRND
 40
0.0
  9
$DIMDLE
 40
0.0
  9
$DIMEXE
 40
1.25
  9
$DIMTP
 40
0.0
  9
$DIMTM
 40
0.0
  9
$DIMTXT
 40
2.5
  9
$DIMCEN
 40
2.5
  9
$DIMTSZ
 40
0.0
  9
$DIMTOL
 70
0
  9
$DIMLIM
 70
0
  9
$DIMTIH
 70
0
  9
$DIMTOH
 70
0
  9
$DIMSE1
 70
0
  9
$DIMSE2
 70
0
  9
$DIMTAD
 70
1
  9
$DIMZIN
 70
8
  9
$DIMBLK
  1

  9
$DIMASO
 70
1
  9
$DIMSHO
 70
1
  9
$DIMPOST
  1

  9
$DIMAPOST
  1

  9
$DIMALT
 70
0
  9
$DIMALTD
 70
3
  9
$DIMALTF
 40
0.03937007874
  9
$DIMLFAC
 40
1.0
  9
$DIMTOFL
 70
1
  9
$DIMTVP
 40
0.0
  9
$DIMTIX
 70
0
  9
$DIMSOXD
 70
0
  9
$DIMSAH
 70
0
  9
$DIMBLK1
  1

  9
$DIMBLK2
  1

  9
$DIMSTYLE
  2
ISO-25
  9
$DIMCLRD
 70
0
  9
$DIMCLRE
 70
0
  9
$DIMCLRT
 70
0
  9
$DIMTFAC
 40
1.0
  9
$DIMGAP
 40
0.625
  9
$DIMJUST
 70
0
  9
$DIMSD1
 70
0
  9
$DIMSD2
 70
0
  9
$DIMTOLJ
 70
0
  9
$DIMTZIN
 70
8
  9
$DIMALTZ
 70
0
  9
$DIMALTTZ
 70
0
  9
$DIMUPT
 70
0
  9
$DIMDEC
 70
2
  9
$DIMTDEC
 70
2
  9
$DIMALTU
 70
2
  9
$DIMALTTD
 70
3
  9
$DIMTXSTY
  7
Standard
  9
$DIMAUNIT
 70
0
  9
$DIMADEC
 70
0
  9
$DIMALTRND
 40
0.0
  9
$DIMAZIN
 70
0
  9
$DIMDSEP
 70
44
  9
$DIMATFIT
 70
3
  9
$DIMFRAC
 70
0
  9
$DIMLDRBLK
  1

  9
$DIMLUNIT
 70
2
  9
$DIMLWD
 70
-2
  9
$DIMLWE
 70
-2
  9
$DIMTMOVE
 70
0
  9
$DIMFXL
 40
1.0
  9
$DIMFXLON
 70
0
  9
$DIMJOGANG
 40
0.785398163397
  9
$DIMTFILL
 70
0
  9
$DIMTFILLCLR
 70
0
  9
$DIMARCSYM
 70
0
  9
$DIMLTYPE
  6

  9
$DIMLTEX1
  6

  9
$DIMLTEX2
  6

  9
$DIMTXTDIRECTION
 70
0
  9
$LUNITS
 70
2
  9
$LUPREC
 70
4
  9
$SKETCHINC
 40
1.0
  9
$FILLETRAD
 40
10.0
  9
$AUNITS
 70
0
  9
$AUPREC
 70
2
  9
$MENU
  1
.
  9
$ELEVATION
 40
0.0
  9
$PELEVATION
 40
0.0
  9
$THICKNESS
 40
0.0
  9
$LIMCHECK
 70
0
  9
$CHAMFERA
 40
0.0
  9
$CHAMFERB
 40
0.0
  9
$CHAMFERC
 40
0.0
  9
$CHAMFERD
 40
0.0
  9
$SKPOLY
 70
0
  9
$TDCREATE
 40
2461134.584537037
  9
$TDUCREATE
 40
2458532.153996898
  9
$TDUPDATE
 40
2461134.584537037
  9
$TDUUPDATE
 40
2458532.1544311
  9
$TDINDWG
 40
0.0
  9
$TDUSRTIMER
 40
0.0
  9
$USRTIMER
 70
1
  9
$ANGBASE
 50
0.0
  9
$ANGDIR
 70
0
  9
$PDMODE
 70
0
  9
$PDSIZE
 40
0.0
  9
$PLINEWID
 40
0.0
  9
$SPLFRAME
 70
0
  9
$SPLINETYPE
 70
6
  9
$SPLINESEGS
 70
8
  9
$HANDSEED
  5
1BD
  9
$SURFTAB1
 70
6
  9
$SURFTAB2
 70
6
  9
$SURFTYPE
 70
6
  9
$SURFU
 70
6
  9
$SURFV
 70
6
  9
$UCSBASE
  2

  9
$UCSNAME
  2

  9
$UCSORG
 10
0.0
 20
0.0
 30
0.0
  9
$UCSXDIR
 10
1.0
 20
0.0
 30
0.0
  9
$UCSYDIR
 10
0.0
 20
1.0
 30
0.0
  9
$UCSORTHOREF
  2

  9
$UCSORTHOVIEW
 70
0
  9
$UCSORGTOP
 10
0.0
 20
0.0
 30
0.0
  9
$UCSORGBOTTOM
 10
0.0
 20
0.0
 30
0.0
  9
$UCSORGLEFT
 10
0.0
 20
0.0
 30
0.0
  9
$UCSORGRIGHT
 10
0.0
 20
0.0
 30
0.0
  9
$UCSORGFRONT
 10
0.0
 20
0.0
 30
0.0
  9
$UCSORGBACK
 10
0.0
 20
0.0
 30
0.0
  9
$PUCSBASE
  2

  9
$PUCSNAME
  2

  9
$PUCSORG
 10
0.0
 20
0.0
 30
0.0
  9
$PUCSXDIR
 10
1.0
 20
0.0
 30
0.0
  9
$PUCSYDIR
 10
0.0
 20
1.0
 30
0.0
  9
$PUCSORTHOREF
  2

  9
$PUCSORTHOVIEW
 70
0
  9
$PUCSORGTOP
 10
0.0
 20
0.0
 30
0.0
  9
$PUCSORGBOTTOM
 10
0.0
 20
0.0
 30
0.0
  9
$PUCSORGLEFT
 10
0.0
 20
0.0
 30
0.0
  9
$PUCSORGRIGHT
 10
0.0
 20
0.0
 30
0.0
  9
$PUCSORGFRONT
 10
0.0
 20
0.0
 30
0.0
  9
$PUCSORGBACK
 10
0.0
 20
0.0
 30
0.0
  9
$USERI1
 70
0
  9
$USERI2
 70
0
  9
$USERI3
 70
0
  9
$USERI4
 70
0
  9
$USERI5
 70
0
  9
$USERR1
 40
0.0
  9
$USERR2
 40
0.0
  9
$USERR3
 40
0.0
  9
$USERR4
 40
0.0
  9
$USERR5
 40
0.0
  9
$WORLDVIEW
 70
1
  9
$SHADEDGE
 70
3
  9
$SHADEDIF
 70
70
  9
$TILEMODE
 70
1
  9
$MAXACTVP
 70
64
  9
$PINSBASE
 10
0.0
 20
0.0
 30
0.0
  9
$PLIMCHECK
 70
0
  9
$PEXTMIN
 10
1e+20
 20
1e+20
 30
1e+20
  9
$PEXTMAX
 10
-1e+20
 20
-1e+20
 30
-1e+20
  9
$PLIMMIN
 10
0.0
 20
0.0
  9
$PLIMMAX
 10
420.0
 20
297.0
  9
$UNITMODE
 70
0
  9
$VISRETAIN
 70
1
  9
$PLINEGEN
 70
0
  9
$PSLTSCALE
 70
1
  9
$TREEDEPTH
 70
3020
  9
$CMLSTYLE
  2
Standard
  9
$CMLJUST
 70
0
  9
$CMLSCALE
 40
20.0
  9
$PROXYGRAPHICS
 70
1
  9
$MEASUREMENT
 70
1
  9
$CELWEIGHT
370
-1
  9
$ENDCAPS
280
0
  9
$JOINSTYLE
280
0
  9
$LWDISPLAY
290
0
  9
$INSUNITS
 70
6
  9
$HYPERLINKBASE
  1

  9
$STYLESHEET
  1

  9
$XEDIT
290
1
  9
$CEPSNTYPE
380
0
  9
$PSTYLEMODE
290
1
  9
$FINGERPRINTGUID
  2
{A4F3DBAB-77BF-494A-877E-62C68CE8D7C3}
  9
$VERSIONGUID
  2
{A94574CC-F945-4D6F-AADE-4DA0BE51791C}
  9
$EXTNAMES
290
1
  9
$PSVPSCALE
 40
0.0
  9
$OLESTARTUP
290
0
  9
$SORTENTS
280
127
  9
$INDEXCTL
280
0
  9
$HIDETEXT
280
1
  9
$XCLIPFRAME
280
2
  9
$HALOGAP
280
0
  9
$OBSCOLOR
 70
257
  9
$OBSLTYPE
280
0
  9
$INTERSECTIONDISPLAY
280
0
  9
$INTERSECTIONCOLOR
 70
257
  9
$DIMASSOC
280
2
  9
$PROJECTNAME
  1

  9
$CAMERADISPLAY
290
0
  9
$LENSLENGTH
 40
50.0
  9
$CAMERAHEIGHT
 40
0.0
  9
$STEPSPERSEC
 40
24.0
  9
$STEPSIZE
 40
100.0
  9
$3DDWFPREC
 40
2.0
  9
$PSOLWIDTH
 40
0.005
  9
$PSOLHEIGHT
 40
0.08
  9
$LOFTANG1
 40
1.570796326795
  9
$LOFTANG2
 40
1.570796326795
  9
$LOFTMAG1
 40
0.0
  9
$LOFTMAG2
 40
0.0
  9
$LOFTPARAM
 70
7
  9
$LOFTNORMALS
280
1
  9
$LATITUDE
 40
37.795
  9
$LONGITUDE
 40
-122.394
  9
$NORTHDIRECTION
 40
0.0
  9
$TIMEZONE
 70
-8000
  9
$LIGHTGLYPHDISPLAY
280
1
  9
$TILEMODELIGHTSYNCH
280
1
  9
$CMATERIAL
347
20
  9
$SOLIDHIST
280
0
  9
$SHOWHIST
280
1
  9
$DWFFRAME
280
2
  9
$DGNFRAME
280
2
  9
$REALWORLDSCALE
290
1
  9
$INTERFERECOLOR
 62
256
  9
$CSHADOW
280
0
  9
$SHADOWPLANELOCATION
 40
0.0
  0
ENDSEC
  0
SECTION
  2
CLASSES
  0
CLASS
  1
ACDBDICTIONARYWDFLT
  2
AcDbDictionaryWithDefault
  3
ObjectDBX Classes
 90
0
 91
0
280
0
281
0
  0
CLASS
  1
SUN
  2
AcDbSun
  3
SCENEOE
 90
1153
 91
0
280
0
281
0
  0
CLASS
  1
VISUALSTYLE
  2
AcDbVisualStyle
  3
ObjectDBX Classes
 90
4095
 91
0
280
0
281
0
  0
CLASS
  1
MATERIAL
  2
AcDbMaterial
  3
ObjectDBX Classes
 90
1153
 91
0
280
0
281
0
  0
CLASS
  1
SCALE
  2
AcDbScale
  3
ObjectDBX Classes
 90
1153
 91
0
280
0
281
0
  0
CLASS
  1
TABLESTYLE
  2
AcDbTableStyle
  3
ObjectDBX Classes
 90
4095
 91
0
280
0
281
0
  0
CLASS
  1
MLEADERSTYLE
  2
AcDbMLeaderStyle
  3
ACDB_MLEADERSTYLE_CLASS
 90
4095
 91
0
280
0
281
0
  0
CLASS
  1
DICTIONARYVAR
  2
AcDbDictionaryVar
  3
ObjectDBX Classes
 90
0
 91
0
280
0
281
0
  0
CLASS
  1
CELLSTYLEMAP
  2
AcDbCellStyleMap
  3
ObjectDBX Classes
 90
1152
 91
0
280
0
281
0
  0
CLASS
  1
MENTALRAYRENDERSETTINGS
  2
AcDbMentalRayRenderSettings
  3
SCENEOE
 90
1024
 91
0
280
0
281
0
  0
CLASS
  1
ACDBDETAILVIEWSTYLE
  2
AcDbDetailViewStyle
  3
ObjectDBX Classes
 90
1025
 91
0
280
0
281
0
  0
CLASS
  1
ACDBSECTIONVIEWSTYLE
  2
AcDbSectionViewStyle
  3
ObjectDBX Classes
 90
1025
 91
0
280
0
281
0
  0
CLASS
  1
RASTERVARIABLES
  2
AcDbRasterVariables
  3
ISM
 90
0
 91
0
280
0
281
0
  0
CLASS
  1
ACDBPLACEHOLDER
  2
AcDbPlaceHolder
  3
ObjectDBX Classes
 90
0
 91
0
280
0
281
0
  0
CLASS
  1
LAYOUT
  2
AcDbLayout
  3
ObjectDBX Classes
 90
0
 91
0
280
0
281
0
  0
ENDSEC
  0
SECTION
  2
TABLES
  0
TABLE
  2
VPORT
  5
8
330
0
100
AcDbSymbolTable
 70
1
  0
VPORT
  5
23
330
8
100
AcDbSymbolTableRecord
100
AcDbViewportTableRecord
  2
*Active
 70
0
 10
0.0
 20
0.0
 11
1.0
 21
1.0
 12
0.0
 22
0.0
 13
0.0
 23
0.0
 14
0.5
 24
0.5
 15
0.5
 25
0.5
 16
0.0
 26
0.0
 36
1.0
 17
0.0
 27
0.0
 37
0.0
 40
1000.0
 41
1.34
 42
50.0
 43
0.0
 44
0.0
 50
0.0
 51
0.0
 71
0
 72
1000
 73
1
 74
3
 75
0
 76
0
 77
0
 78
0
281
0
 65
0
146
0.0
  0
ENDTAB
  0
TABLE
  2
LTYPE
  5
2
330
0
100
AcDbSymbolTable
 70
4
  0
LTYPE
  5
24
330
2
100
AcDbSymbolTableRecord
100
AcDbLinetypeTableRecord
  2
ByBlock
 70
0
  3

 72
65
 73
0
 40
0.0
  0
LTYPE
  5
25
330
2
100
AcDbSymbolTableRecord
100
AcDbLinetypeTableRecord
  2
ByLayer
 70
0
  3

 72
65
 73
0
 40
0.0
  0
LTYPE
  5
26
330
2
100
AcDbSymbolTableRecord
100
AcDbLinetypeTableRecord
  2
Continuous
 70
0
  3

 72
65
 73
0
 40
0.0
  0
LTYPE
  5
32
330
2
100
AcDbSymbolTableRecord
100
AcDbLinetypeTableRecord
  2
DASHED
 70
0
  3

 72
65
 73
1
 40
0.5
 49
-0.25
 74
0
  0
ENDTAB
  0
TABLE
  2
LAYER
  5
1
330
0
100
AcDbSymbolTable
 70
5
  0
LAYER
  5
27
330
1
100
AcDbSymbolTableRecord
100
AcDbLayerTableRecord
  2
0
 70
0
 62
7
  6
Continuous
370
-3
390
13
347
21
  0
LAYER
  5
28
330
1
100
AcDbSymbolTableRecord
100
AcDbLayerTableRecord
  2
Defpoints
 70
0
 62
7
  6
Continuous
290
0
370
-3
390
13
347
21
  0
LAYER
  5
2F
330
1
100
AcDbSymbolTableRecord
100
AcDbLayerTableRecord
  2
JALAN
 70
0
 62
8
  6
Continuous
370
-3
390
13
347
21
  0
LAYER
  5
30
330
1
100
AcDbSymbolTableRecord
100
AcDbLayerTableRecord
  2
JALAN_CL
 70
0
 62
8
  6
DASHED
370
-3
390
13
347
21
  0
LAYER
  5
31
330
1
100
AcDbSymbolTableRecord
100
AcDbLayerTableRecord
  2
BANGUNAN
 70
0
 62
4
  6
Continuous
370
-3
390
13
347
21
  0
ENDTAB
  0
TABLE
  2
STYLE
  5
5
330
0
100
AcDbSymbolTable
 70
1
  0
STYLE
  5
29
330
5
100
AcDbSymbolTableRecord
100
AcDbTextStyleTableRecord
  2
Standard
 70
0
 40
0.0
 41
1.0
 50
0.0
 71
0
 42
2.5
  3
txt
  4

  0
ENDTAB
  0
TABLE
  2
VIEW
  5
7
330
0
100
AcDbSymbolTable
 70
0
  0
ENDTAB
  0
TABLE
  2
UCS
  5
6
330
0
100
AcDbSymbolTable
 70
0
  0
ENDTAB
  0
TABLE
  2
APPID
  5
3
330
0
100
AcDbSymbolTable
 70
3
  0
APPID
  5
2A
330
3
100
AcDbSymbolTableRecord
100
AcDbRegAppTableRecord
  2
ACAD
 70
0
  0
APPID
  5
1BA
330
3
100
AcDbSymbolTableRecord
100
AcDbRegAppTableRecord
  2
HATCHBACKGROUNDCOLOR
 70
0
  0
APPID
  5
1BB
330
3
100
AcDbSymbolTableRecord
100
AcDbRegAppTableRecord
  2
EZDXF
 70
0
  0
ENDTAB
  0
TABLE
  2
DIMSTYLE
  5
4
330
0
100
AcDbSymbolTable
 70
1
100
AcDbDimStyleTable
  0
DIMSTYLE
105
2B
330
4
100
AcDbSymbolTableRecord
100
AcDbDimStyleTableRecord
  2
Standard
 70
0
 40
1.0
 41
2.5
 42
0.625
 43
3.75
 44
1.25
 45
0.0
 46
0.0
 47
0.0
 48
0.0
 49
2.5
140
2.5
141
2.5
142
0.0
143
0.03937007874
144
1.0
145
0.0
146
1.0
147
0.625
148
0.0
 69
0
 70
0
 71
0
 72
0
 73
0
 74
0
 75
0
 76
0
 77
1
 78
8
 79
3
170
0
171
3
172
1
173
0
174
0
175
0
176
0
177
0
178
0
179
2
271
2
272
2
273
2
274
3
275
0
276
0
277
2
278
44
279
0
280
0
281
0
282
0
283
0
284
8
285
0
286
0
288
0
289
3
290
0
371
-2
372
-2
  0
ENDTAB
  0
TABLE
  2
BLOCK_RECORD
  5
9
330
0
100
AcDbSymbolTable
 70
2
  0
BLOCK_RECORD
  5
17
330
9
100
AcDbSymbolTableRecord
100
AcDbBlockTableRecord
  2
*Model_Space
340
1A
 70
0
280
1
281
0
  0
BLOCK_RECORD
  5
1B
330
9
100
AcDbSymbolTableRecord
100
AcDbBlockTableRecord
  2
*Paper_Space
340
1E
 70
0
280
1
281
0
  0
ENDTAB
  0
ENDSEC
  0
SECTION
  2
BLOCKS
  0
BLOCK
  5
18
330
17
100
AcDbEntity
  8
0
100
AcDbBlockBegin
  2
*Model_Space
 70
0
 10
0.0
 20
0.0
 30
0.0
  3
*Model_Space
  1

  0
ENDBLK
  5
19
330
17
100
AcDbEntity
  8
0
100
AcDbBlockEnd
  0
BLOCK
  5
1C
330
1B
100
AcDbEntity
  8
0
100
AcDbBlockBegin
  2
*Paper_Space
 70
0
 10
0.0
 20
0.0
 30
0.0
  3
*Paper_Space
  1

  0
ENDBLK
  5
1D
330
1B
100
AcDbEntity
  8
0
100
AcDbBlockEnd
  0
ENDSEC
  0
SECTION
  2
ENTITIES
  0
LWPOLYLINE
  5
33
330
17
100
AcDbEntity
  8
JALAN
100
AcDbPolyline
 90
166
 70
1
 10
440820.01366313006
 20
9210334.820713742
 10
440825.85315218754
 20
9210339.451375123
 10
440822.8037974387
 20
9210343.296759663
 10
440827.43854128255
 20
9210357.376476733
 10
440828.82022923604
 20
9210358.472142637
 10
440828.098718042
 20
9210359.382003319
 10
440831.068942346
 20
9210368.405137982
 10
440831.9313259062
 20
9210370.957325688
 10
440835.7884255424
 20
9210374.015970401
 10
440834.5361010587
 20
9210375.59521244
 10
440837.9180300953
 20
9210378.277051214
 10
440836.24246258935
 20
9210380.390023272
 10
440844.1571950847
 20
9210386.666333709
 10
440839.30637067516
 20
9210392.783459041
 10
440842.95682131447
 20
9210403.586813455
 10
440839.03797890217
 20
9210405.033790529
 10
440840.03324956447
 20
9210406.668905545
 10
440831.9064425146
 20
9210411.615574466
 10
440829.94405264687
 20
9210408.391594036
 10
440811.4532354731
 20
9210415.219066463
 10
440811.71776990034
 20
9210415.653666046
 10
440804.2538282303
 20
9210420.196858484
 10
440803.1010579543
 20
9210418.302989753
 10
440785.8264418703
 20
9210424.681397147
 10
440785.3511593817
 20
9210424.970694667
 10
440785.2945990597
 20
9210424.877772575
 10
440759.28195870796
 20
9210434.482571708
 10
440746.53338451777
 20
9210461.840347726
 10
440734.41415313905
 20
9210459.596807664
 10
440719.4160776555
 20
9210449.455277562
 10
440715.4009107723
 20
9210455.393215464
 10
440723.6155952895
 20
9210458.912065765
 10
440722.60580455465
 20
9210461.269401716
 10
440730.4212473682
 20
9210466.554116322
 10
440731.33163291775
 20
9210464.428839754
 10
440738.6853533741
 20
9210467.578886643
 10
440738.3104759977
 20
9210468.454030262
 10
440745.04818237654
 20
9210469.701330004
 10
440745.0481823766
 20
9210469.701330004
 10
440745.7144495845
 20
9210480.646239258
 10
440743.9870906448
 20
9210495.647304561
 10
440740.49375141406
 20
9210510.020012999
 10
440733.63303843833
 20
9210533.65518069
 10
440795.5789942129
 20
9210517.186597241
 10
440805.95781798015
 20
9210514.448948266
 10
440813.3401236771
 20
9210513.035013348
 10
440813.82831919193
 20
9210509.20465883
 10
440827.71597374976
 20
9210510.974701429
 10
440827.6762393589
 20
9210511.286455221
 10
440831.6466270321
 20
9210511.25890463
 10
440846.3380716456
 20
9210509.780548504
 10
440853.694638365
 20
9210508.813076118
 10
440854.1759422504
 20
9210505.036792934
 10
440860.4845666876
 20
9210505.84085484
 10
440860.2150370291
 20
9210507.955569362
 10
440863.15363568976
 20
9210507.56911014
 10
440876.2218961348
 20
9210505.243901046
 10
440876.71112487605
 20
9210501.40543989
 10
440887.50437254773
 20
9210502.781086734
 10
440887.44499002077
 20
9210503.246998696
 10
440889.63708066754
 20
9210502.85696445
 10
440891.8627401498
 20
9210502.34649063
 10
440892.2085202597
 20
9210499.633519359
 10
440898.16037221253
 20
9210500.392109044
 10
440898.09341747995
 20
9210500.917432105
 10
440902.7664939239
 20
9210499.845622513
 10
440903.16319590807
 20
9210496.733121088
 10
440911.63126111444
 20
9210497.812413208
 10
440915.79265347787
 20
9210496.857962687
 10
440916.1878551218
 20
9210493.757232841
 10
440925.427976294
 20
9210494.934926886
 10
440927.0664487955
 20
9210494.617933981
 10
440927.70296132006
 20
9210489.623892551
 10
440931.81319242937
 20
9210490.147759568
 10
440931.7157814546
 20
9210489.64426185
 10
440931.8877406832
 20
9210490.15726107
 10
440935.6387639269
 20
9210490.635345465
 10
440935.38410723343
 20
9210492.633367544
 10
440956.4468295259
 20
9210485.573065424
 10
440956.8728500531
 20
9210487.296944313
 10
440958.17540495284
 20
9210486.927667493
 10
440965.616454361
 20
9210513.174577303
 10
440963.4217303228
 20
9210513.796785789
 10
440970.29965068976
 20
9210541.628077842
 10
440971.8204212382
 20
9210543.423236422
 10
440970.77581672405
 20
9210544.863061164
 10
440968.61301835
 20
9210547.116570752
 10
440964.6160245668
 20
9210549.159663059
 10
440968.2571735699
 20
9210556.283007354
 10
440973.4527585908
 20
9210553.627246458
 10
440976.92830736004
 20
9210550.00592763
 10
440979.23471252585
 20
9210546.826907078
 10
440981.75552698295
 20
9210544.747543043
 10
440980.23379814904
 20
9210541.008611389
 10
440983.93870041985
 20
9210539.500732362
 10
440984.988687377
 20
9210542.080580613
 10
440986.9946060093
 20
9210540.425942743
 10
441003.5071606321
 20
9210530.434723692
 10
441014.56110533985
 20
9210523.555876989
 10
441049.2311499306
 20
9210510.061544463
 10
441065.86263576965
 20
9210503.730931068
 10
441082.2514845525
 20
9210498.388808457
 10
441082.3409996303
 20
9210498.352376211
 10
441082.3436061211
 20
9210498.358780434
 10
441088.43176308525
 20
9210496.37427979
 10
441137.74439637444
 20
9210482.646889534
 10
441136.6716855748
 20
9210478.793411683
 10
441140.38876891765
 20
9210477.31581518
 10
441132.5594442928
 20
9210457.620145822
 10
441121.4554735888
 20
9210430.968233196
 10
441115.69958484854
 20
9210406.02930078
 10
441105.9019722162
 20
9210373.718850328
 10
441098.14558592014
 20
9210351.394232232
 10
441096.1021755263
 20
9210352.018592732
 10
441093.7990469523
 20
9210344.480901193
 10
441095.5570188085
 20
9210343.943755943
 10
441091.2126700569
 20
9210331.439746594
 10
441121.21950933756
 20
9210326.062245037
 10
441133.2953814367
 20
9210323.595725557
 10
441132.8665701207
 20
9210321.461830867
 10
441139.3110925924
 20
9210320.166788438
 10
441139.2844623681
 20
9210320.034268394
 10
441146.1472672336
 20
9210318.655171104
 10
441146.5833921505
 20
9210320.82546048
 10
441148.71782239457
 20
9210320.368885292
 10
441148.09390710853
 20
9210317.26409429
 10
441157.8979140632
 20
9210315.293955304
 10
441158.4973539441
 20
9210318.276949292
 10
441164.6280067155
 20
9210316.965543613
 10
441164.53675989807
 20
9210316.511471875
 10
441168.4583626799
 20
9210315.72341628
 10
441168.53981933545
 20
9210316.128769213
 10
441188.76411020226
 20
9210311.80259859
 10
441188.46776204556
 20
9210310.32788061
 10
441192.38936482556
 20
9210309.539825015
 10
441192.67592282075
 20
9210310.96582419
 10
441193.8347068219
 20
9210310.717949132
 10
441192.1612871525
 20
9210302.894927552
 10
441139.1307380484
 20
9210314.238672812
 10
441119.7132132221
 20
9210318.204738606
 10
441088.7071145323
 20
9210323.761316638
 10
441088.48429202096
 20
9210323.015682407
 10
441087.8770835772
 20
9210323.20489404
 10
441086.74433242343
 20
9210319.569726054
 10
441087.39401681634
 20
9210319.367278533
 10
441075.84513611713
 20
9210280.721090017
 10
441069.06742412486
 20
9210259.931785874
 10
441066.99915890023
 20
9210260.576275986
 10
441064.9166593095
 20
9210253.893223131
 10
441066.89750198316
 20
9210253.275974676
 10
441062.4170602996
 20
9210239.533097291
 10
441058.6140649825
 20
9210240.772946725
 10
441057.444377127
 20
9210236.94778917
 10
441046.388265547
 20
9210240.328617085
 10
440992.339875684
 20
9210256.82506548
 10
440954.287940895
 20
9210266.79871505
 10
440955.30210798274
 20
9210270.668012805
 10
440954.2170834201
 20
9210266.817984013
 10
440862.8249552893
 20
9210292.574337851
 10
440824.378516612
 20
9210304.595657919
 10
440818.7539159996
 20
9210306.929822806
 10
440815.4134439021
 20
9210310.745789152
 10
440814.7438607485
 20
9210315.943313504
 10
440815.4478047382
 20
9210321.026274128
 10
440818.80775074137
 20
9210331.157317054
 10
440820.01366313006
 20
9210334.820713742
  0
LWPOLYLINE
  5
34
330
17
100
AcDbEntity
  8
JALAN
100
AcDbPolyline
 90
26
 70
1
 10
440926.0472777989
 20
9210447.28403553
 10
440926.0921544418
 20
9210447.273983551
 10
440924.2831676736
 20
9210438.465426624
 10
440950.1425209218
 20
9210431.002618361
 10
440949.0487456387
 20
9210427.212581094
 10
440958.6566471057
 20
9210424.439815441
 10
440959.7504223896
 20
9210428.229852708
 10
440991.08664955426
 20
9210419.186461221
 10
440992.4003151819
 20
9210429.769179454
 10
440997.2918421117
 20
9210453.297348075
 10
441000.93212718284
 20
9210452.61793208
 10
441002.21641721297
 20
9210459.499109238
 10
440998.79492115515
 20
9210460.13769086
 10
440999.4654787693
 20
9210463.18805784
 10
440976.39995929913
 20
9210470.44904582
 10
440957.06688623
 20
9210476.927736126
 10
440958.33785742853
 20
9210480.720443893
 10
440957.0665640103
 20
9210476.92784412
 10
440945.2895625308
 20
9210480.875538409
 10
440945.6863888055
 20
9210482.059374664
 10
440936.204889372
 20
9210485.23760821
 10
440935.80806309724
 20
9210484.053771954
 10
440934.5564652117
 20
9210484.473312177
 10
440929.7158800194
 20
9210464.919106005
 10
440926.611828168
 20
9210449.80444739
 10
440926.0472777989
 20
9210447.28403553
  0
LWPOLYLINE
  5
35
330
17
100
AcDbEntity
  8
JALAN
100
AcDbPolyline
 90
31
 70
1
 10
440994.4142112164
 20
9210411.566655193
 10
440990.41304798657
 20
9210398.150594195
 10
440994.52538982785
 20
9210396.924142484
 10
440994.17828734074
 20
9210395.462234793
 10
440989.9814643096
 20
9210382.679615553
 10
440986.94868109236
 20
9210383.584103145
 10
440984.37650472904
 20
9210374.9594925
 10
440987.1729511523
 20
9210374.12548924
 10
440983.7262741086
 20
9210363.627653148
 10
440986.5551014456
 20
9210362.59890914
 10
441064.2310897572
 20
9210340.508267602
 10
441063.4969060179
 20
9210338.084273081
 10
441076.89579993486
 20
9210334.025992442
 10
441077.40764293773
 20
9210335.715902703
 10
441083.4557828561
 20
9210333.489640923
 10
441084.87425629934
 20
9210337.572325397
 10
441087.0200477177
 20
9210336.91668255
 10
441089.94216930727
 20
9210346.480217746
 10
441088.1585314053
 20
9210347.025205212
 10
441098.29260828975
 20
9210376.193349702
 10
441107.9653333453
 20
9210408.091947388
 10
441112.9163949425
 20
9210429.543750253
 10
441070.842688806
 20
9210443.4695916
 10
441007.16081892705
 20
9210460.933219956
 10
441005.1259384942
 20
9210451.676547678
 10
441000.2992110489
 20
9210428.460063575
 10
440998.4485595178
 20
9210413.551457236
 10
440994.47902592656
 20
9210414.044207748
 10
440998.37083232385
 20
9210413.120171512
 10
440997.7647266736
 20
9210410.567408152
 10
440994.4142112164
 20
9210411.566655193
  0
LWPOLYLINE
  5
36
330
17
100
AcDbEntity
  8
JALAN
100
AcDbPolyline
 90
17
 70
1
 10
441048.7246390095
 20
9210247.979849676
 10
441056.028319343
 20
9210245.74647115
 10
441068.2084394324
 20
9210283.106604086
 10
441080.9885980985
 20
9210325.873036085
 10
441062.4421885494
 20
9210332.699789977
 10
441012.1326845192
 20
9210347.007547671
 10
441012.26439407
 20
9210347.442402344
 10
440993.12311704364
 20
9210353.239946116
 10
440992.8927281251
 20
9210352.47928983
 10
440987.88380239805
 20
9210353.903801898
 10
440978.917322034
 20
9210327.583681589
 10
440978.6006225599
 20
9210327.691571658
 10
440976.3433232778
 20
9210321.06551703
 10
440976.66002275085
 20
9210320.957626961
 10
440960.4746922961
 20
9210273.447363457
 10
440994.52259810234
 20
9210264.52319487
 10
441048.7246390095
 20
9210247.979849676
  0
LWPOLYLINE
  5
37
330
17
100
AcDbEntity
  8
JALAN
100
AcDbPolyline
 90
65
 70
1
 10
440854.6729625301
 20
9210436.98061977
 10
440858.1552768082
 20
9210447.53509266
 10
440861.3545794324
 20
9210461.485491209
 10
440869.1521535525
 20
9210459.697241269
 10
440865.8694087103
 20
9210445.382997114
 10
440862.2655115709
 20
9210434.460021295
 10
440857.6021082281
 20
9210420.49905706
 10
440856.045283854
 20
9210420.991249006
 10
440851.6111634616
 20
9210406.965934793
 10
440861.14599911124
 20
9210403.95148474
 10
440861.7413011647
 20
9210405.834450833
 10
440868.10989726346
 20
9210403.818239441
 10
440867.78341797646
 20
9210402.786991071
 10
440874.1843961999
 20
9210400.760527937
 10
440874.51087548665
 20
9210401.791776307
 10
440907.4646060492
 20
9210391.359070899
 10
440910.40172767296
 20
9210406.074465174
 10
440915.6805161048
 20
9210436.335046172
 10
440919.6210091603
 20
9210435.647649286
 10
440915.702782627
 20
9210436.452323651
 10
440918.6537605785
 20
9210450.821614645
 10
440921.9460675251
 20
9210450.08416648
 10
440923.69466935005
 20
9210457.890727287
 10
440920.2633643925
 20
9210458.659309799
 10
440921.91171311523
 20
9210466.685666772
 10
440922.3531170308
 20
9210468.468778282
 10
440926.3079961827
 20
9210467.582919696
 10
440928.05659800954
 20
9210475.389480505
 10
440924.27594711137
 20
9210476.236313473
 10
440924.31459108205
 20
9210476.392421082
 10
440928.14963979507
 20
9210475.533403477
 10
440929.4610911645
 20
9210481.388324078
 10
440925.7567136421
 20
9210482.218072474
 10
440926.82092271285
 20
9210486.51709062
 10
440915.77940201334
 20
9210488.653277654
 10
440907.69225310755
 20
9210490.508133631
 10
440907.5138676483
 20
9210491.9077359
 10
440903.7060225584
 20
9210491.422409311
 10
440888.0411864928
 20
9210495.015271906
 10
440861.93074630015
 20
9210499.661049608
 10
440845.4158173227
 20
9210501.832951033
 10
440831.217451793
 20
9210503.26169009
 10
440821.48708864476
 20
9210503.329209253
 10
440804.18308670324
 20
9210506.643449219
 10
440793.5310787619
 20
9210509.453156685
 10
440745.2636791168
 20
9210522.28524054
 10
440748.2257797473
 20
9210512.080798907
 10
440751.8778614559
 20
9210497.054973435
 10
440753.74241884495
 20
9210480.862422768
 10
440752.9050691187
 20
9210467.107105594
 10
440765.142300233
 20
9210440.846645178
 10
440774.4156095679
 20
9210437.422607008
 10
440775.44380973
 20
9210436.796756566
 10
440775.5661692395
 20
9210436.99777914
 10
440777.2808530592
 20
9210436.364656419
 10
440776.2798538096
 20
9210434.720129995
 10
440781.40506844316
 20
9210431.600486595
 10
440783.01598662976
 20
9210434.247039553
 10
440815.19514104514
 20
9210422.365342414
 10
440814.67773800995
 20
9210421.515308846
 10
440824.9281672798
 20
9210415.276022047
 10
440826.6654081875
 20
9210418.13010868
 10
440845.6350659945
 20
9210411.125831129
 10
440849.53606563143
 20
9210421.602144305
 10
440854.6729625301
 20
9210436.98061977
  0
LWPOLYLINE
  5
38
330
17
100
AcDbEntity
  8
JALAN
100
AcDbPolyline
 90
18
 70
1
 10
440928.3306207936
 20
9210382.058546454
 10
440933.0250656605
 20
9210380.33744582
 10
440933.6286989848
 20
9210381.983905826
 10
440976.2076185588
 20
9210366.373411393
 10
440980.27454735525
 20
9210378.760400765
 10
440983.4569261898
 20
9210377.811298253
 10
440985.45750780497
 20
9210384.519328756
 10
440982.45894647826
 20
9210385.41361012
 10
440986.4724498677
 20
9210397.637877205
 10
440989.70636779023
 20
9210411.258319743
 10
440922.79535392864
 20
9210430.56831804
 10
440918.26600938285
 20
9210404.603913657
 10
440917.8960274703
 20
9210402.750252007
 10
440915.01047594287
 20
9210394.879670653
 10
440916.2354574978
 20
9210394.430561846
 10
440915.10655224137
 20
9210388.774587026
 10
440928.93425411783
 20
9210383.70500646
 10
440928.3306207936
 20
9210382.058546454
  0
LWPOLYLINE
  5
39
330
17
100
AcDbEntity
  8
JALAN
100
AcDbPolyline
 90
28
 70
1
 10
440838.6580111894
 20
9210365.873928878
 10
440838.00438227394
 20
9210363.888293747
 10
440836.29466727935
 20
9210366.044327449
 10
440831.7171813855
 20
9210362.414423026
 10
440834.82388413604
 20
9210358.49671987
 10
440836.7261500622
 20
9210360.005199341
 10
440826.4038500356
 20
9210328.647465497
 10
440823.27168529655
 20
9210319.203237707
 10
440822.81490928645
 20
9210315.905000193
 10
440823.03674980154
 20
9210314.183001254
 10
440823.5440667853
 20
9210313.603471033
 10
440827.11098950903
 20
9210312.123226237
 10
440865.10415355064
 20
9210300.24363476
 10
440914.32581772184
 20
9210286.371864567
 10
440917.7649277104
 20
9210282.034979727
 10
440920.8981848196
 20
9210284.51962394
 10
440952.7382768155
 20
9210275.546371074
 10
440968.82132018724
 20
9210322.75638206
 10
440971.50035375357
 20
9210321.843715187
 10
440975.28876937367
 20
9210332.964193998
 10
440972.6097358072
 20
9210333.87686087
 10
440980.27280825656
 20
9210356.37097011
 10
440977.34981426393
 20
9210357.433959186
 10
440978.71687984955
 20
9210361.19309894
 10
440977.33999934245
 20
9210357.437543046
 10
440909.22068415314
 20
9210382.41178385
 10
440850.5250802189
 20
9210400.994018218
 10
440838.6580111894
 20
9210365.873928878
  0
LWPOLYLINE
  5
3A
330
17
100
AcDbEntity
  8
JALAN
100
AcDbPolyline
 90
54
 70
1
 10
441003.88501793623
 20
9210470.183824152
 10
441003.7415068671
 20
9210469.700712094
 10
441009.49310482293
 20
9210467.992168576
 10
441009.6570401894
 20
9210468.544036474
 10
441021.9978222034
 20
9210465.159794914
 10
441021.5965750073
 20
9210463.809046434
 10
441030.07419563644
 20
9210461.290723028
 10
441030.52858936315
 20
9210462.820382651
 10
441053.10303808836
 20
9210456.629738696
 10
441052.45247811684
 20
9210454.439709954
 10
441059.8655747897
 20
9210452.237609189
 10
441060.5626077503
 20
9210454.584083432
 10
441073.1590145406
 20
9210451.12974129
 10
441085.33509384247
 20
9210447.099619769
 10
441085.1418228578
 20
9210446.448997183
 10
441094.72781945206
 20
9210443.601424657
 10
441094.83311802876
 20
9210443.95589914
 10
441112.11807925475
 20
9210438.234805139
 10
441115.3657970871
 20
9210436.907908674
 10
441119.90436459146
 20
9210448.016527176
 10
441119.89357828983
 20
9210448.020934056
 10
441121.9874634413
 20
9210453.046707772
 10
441124.6742121582
 20
9210451.949002381
 10
441129.2127796626
 20
9210463.057620881
 10
441126.54525435815
 20
9210464.147472301
 10
441131.3100269993
 20
9210476.133868448
 10
441112.98728349525
 20
9210481.234456956
 10
441102.2438554219
 20
9210485.606985206
 10
441101.7386906507
 20
9210484.365780788
 10
441099.24867857224
 20
9210485.05893719
 10
441099.3128968412
 20
9210485.21672333
 10
441091.90309229866
 20
9210488.232481383
 10
441091.4904589611
 20
9210487.218629366
 10
441086.1183042138
 20
9210488.714101415
 10
441063.1984514233
 20
9210496.18507546
 10
441046.357284563
 20
9210502.595501896
 10
441016.9966922551
 20
9210514.023280557
 10
441017.77450010367
 20
9210515.934376884
 10
441012.21714669745
 20
9210518.196195424
 10
441011.404634881
 20
9210516.199830446
 10
441010.96602041734
 20
9210516.370548699
 10
440999.3228820011
 20
9210523.616049415
 10
440982.3540290404
 20
9210533.883360008
 10
440976.02499348077
 20
9210539.10404132
 10
440975.7869494721
 20
9210538.82304775
 10
440974.4026370641
 20
9210533.221470403
 10
440971.85206731595
 20
9210533.944561832
 10
440970.0560314879
 20
9210527.609381428
 10
440971.1075172465
 20
9210527.311283194
 10
440970.0433758646
 20
9210523.557723539
 10
440971.8853902266
 20
9210523.035508925
 10
440962.1545710344
 20
9210483.660050005
 10
440978.8722253676
 20
9210478.057810532
 10
441003.88501793623
 20
9210470.183824152
  0
LWPOLYLINE
  5
3B
330
17
100
AcDbEntity
  8
JALAN
100
AcDbPolyline
 90
5
 70
1
 10
440925.5115637947
 20
9210444.622480467
 10
440921.60828338936
 20
9210445.49678138
 10
440920.0132874511
 20
9210438.375987735
 10
440923.91656785645
 20
9210437.501686823
 10
440925.5115637947
 20
9210444.622480467
  0
LWPOLYLINE
  5
3C
330
17
100
AcDbEntity
  8
JALAN
100
AcDbPolyline
 90
4
 70
1
 10
440714.9463227654
 20
9210456.090146203
 10
440714.97513403033
 20
9210456.02288689
 10
440714.9348841371
 20
9210456.082411531
 10
440714.9463227654
 20
9210456.090146203
  0
LWPOLYLINE
  5
3D
330
17
100
AcDbEntity
  8
JALAN_CL
370
9
100
AcDbPolyline
 90
2
 70
0
 10
440985.3228899491
 20
9210358.790727744
 10
440978.71687984955
 20
9210361.19309894
  0
LWPOLYLINE
  5
3E
330
17
100
AcDbEntity
  8
JALAN_CL
370
9
100
AcDbPolyline
 90
2
 70
0
 10
440985.3228899491
 20
9210358.790727744
 10
440955.30210798274
 20
9210270.668012805
  0
LWPOLYLINE
  5
3F
330
17
100
AcDbEntity
  8
JALAN_CL
370
9
100
AcDbPolyline
 90
3
 70
0
 10
440985.3228899491
 20
9210358.790727744
 10
441063.68191911577
 20
9210336.505832989
 10
441085.89719799923
 20
9210328.328603797
  0
LWPOLYLINE
  5
40
330
17
100
AcDbEntity
  8
JALAN_CL
370
9
100
AcDbPolyline
 90
3
 70
0
 10
441085.89719799923
 20
9210328.328603797
 10
441063.68191911577
 20
9210336.505832989
 10
440985.3228899491
 20
9210358.790727744
  0
LWPOLYLINE
  5
41
330
17
100
AcDbEntity
  8
JALAN_CL
370
9
100
AcDbPolyline
 90
4
 70
0
 10
441085.89719799923
 20
9210328.328603797
 10
441102.097290253
 20
9210374.956100015
 10
441111.8324590969
 20
9210407.060624084
 10
441117.63364405767
 20
9210432.19581453
  0
LWPOLYLINE
  5
42
330
17
100
AcDbEntity
  8
JALAN_CL
370
9
100
AcDbPolyline
 90
3
 70
0
 10
441085.89719799923
 20
9210328.328603797
 10
441072.02678777475
 20
9210281.913847052
 10
441058.6140649825
 20
9210240.772946725
  0
LWPOLYLINE
  5
43
330
17
100
AcDbEntity
  8
JALAN_CL
370
9
100
AcDbPolyline
 90
4
 70
0
 10
441085.89719799923
 20
9210328.328603797
 10
441120.46636127983
 20
9210322.133491822
 10
441139.9493508526
 20
9210318.154054731
 10
441192.9979969872
 20
9210306.806438342
  0
LWPOLYLINE
  5
44
330
17
100
AcDbEntity
  8
JALAN_CL
370
9
100
AcDbPolyline
 90
3
 70
0
 10
441058.6140649825
 20
9210240.772946725
 10
441072.02678777475
 20
9210281.913847052
 10
441085.89719799923
 20
9210328.328603797
  0
LWPOLYLINE
  5
45
330
17
100
AcDbEntity
  8
JALAN_CL
370
9
100
AcDbPolyline
 90
4
 70
0
 10
441058.6140649825
 20
9210240.772946725
 10
441047.55695208214
 20
9210244.154080832
 10
440993.4312368932
 20
9210260.674130175
 10
440955.30210798274
 20
9210270.668012805
  0
LWPOLYLINE
  5
46
330
17
100
AcDbEntity
  8
JALAN_CL
370
9
100
AcDbPolyline
 90
5
 70
0
 10
440865.25336649246
 20
9210460.591366239
 10
440862.01234275923
 20
9210446.459044887
 10
440858.4692370505
 20
9210435.720320532
 10
440853.3084073989
 20
9210420.2701969
 10
440847.9916282751
 20
9210405.991743075
  0
LWPOLYLINE
  5
47
330
17
100
AcDbEntity
  8
JALAN_CL
370
9
100
AcDbPolyline
 90
3
 70
0
 10
441004.1581043501
 20
9210465.90434197
 10
440977.63609233336
 20
9210474.253428176
 10
440958.33785742853
 20
9210480.720443893
  0
LWPOLYLINE
  5
48
330
17
100
AcDbEntity
  8
JALAN_CL
370
9
100
AcDbPolyline
 90
3
 70
0
 10
441004.1581043501
 20
9210465.90434197
 10
441072.0008516733
 20
9210447.299666446
 10
441117.63364405767
 20
9210432.19581453
  0
LWPOLYLINE
  5
49
330
17
100
AcDbEntity
  8
JALAN_CL
370
9
100
AcDbPolyline
 90
4
 70
0
 10
441004.1581043501
 20
9210465.90434197
 10
441001.21432232484
 20
9210452.513075817
 10
440996.3497631154
 20
9210429.114621514
 10
440994.47902592656
 20
9210414.044207748
  0
LWPOLYLINE
  5
4A
330
17
100
AcDbEntity
  8
JALAN_CL
370
9
100
AcDbPolyline
 90
2
 70
0
 10
440978.71687984955
 20
9210361.19309894
 10
440910.5134175299
 20
9210386.198190182
  0
LWPOLYLINE
  5
4B
330
17
100
AcDbEntity
  8
JALAN_CL
370
9
100
AcDbPolyline
 90
2
 70
0
 10
440978.71687984955
 20
9210361.19309894
 10
440985.3228899491
 20
9210358.790727744
  0
LWPOLYLINE
  5
4C
330
17
100
AcDbEntity
  8
JALAN_CL
370
9
100
AcDbPolyline
 90
3
 70
0
 10
440978.71687984955
 20
9210361.19309894
 10
440990.3253686042
 20
9210396.550056
 10
440994.47902592656
 20
9210414.044207748
  0
LWPOLYLINE
  5
4D
330
17
100
AcDbEntity
  8
JALAN_CL
370
9
100
AcDbPolyline
 90
2
 70
0
 10
440931.7157814546
 20
9210489.64426185
 10
440958.33785742853
 20
9210480.720443893
  0
LWPOLYLINE
  5
4E
330
17
100
AcDbEntity
  8
JALAN_CL
370
9
100
AcDbPolyline
 90
14
 70
0
 10
440931.7157814546
 20
9210489.64426185
 10
440916.60664627363
 20
9210492.567404373
 10
440888.83913358016
 20
9210498.936118178
 10
440862.54219099495
 20
9210503.615079874
 10
440845.87694448413
 20
9210505.806749769
 10
440831.43203941255
 20
9210507.26029736
 10
440821.8804474815
 20
9210507.326576028
 10
440805.0704523417
 20
9210510.546198742
 10
440794.5550364874
 20
9210513.319876963
 10
440739.44835877756
 20
9210527.970210616
 10
440744.3597655807
 20
9210511.050405953
 10
440747.93247605034
 20
9210496.351138998
 10
440749.7284342147
 20
9210480.754331013
 10
440748.85080393864
 20
9210466.337316915
  0
LWPOLYLINE
  5
4F
330
17
100
AcDbEntity
  8
JALAN_CL
370
9
100
AcDbPolyline
 90
3
 70
0
 10
440931.7157814546
 20
9210489.64426185
 10
440925.8137965673
 20
9210465.802386388
 10
440919.6210091603
 20
9210435.647649286
  0
LWPOLYLINE
  5
50
330
17
100
AcDbEntity
  8
JALAN_CL
370
9
100
AcDbPolyline
 90
2
 70
0
 10
440919.6210091603
 20
9210435.647649286
 10
440994.47902592656
 20
9210414.044207748
  0
LWPOLYLINE
  5
51
330
17
100
AcDbEntity
  8
JALAN_CL
370
9
100
AcDbPolyline
 90
3
 70
0
 10
440919.6210091603
 20
9210435.647649286
 10
440925.8137965673
 20
9210465.802386388
 10
440931.7157814546
 20
9210489.64426185
  0
LWPOLYLINE
  5
52
330
17
100
AcDbEntity
  8
JALAN_CL
370
9
100
AcDbPolyline
 90
3
 70
0
 10
440919.6210091603
 20
9210435.647649286
 10
440914.3338685279
 20
9210405.339189416
 10
440910.5134175299
 20
9210386.198190182
  0
LWPOLYLINE
  5
53
330
17
100
AcDbEntity
  8
JALAN_CL
370
9
100
AcDbPolyline
 90
2
 70
0
 10
440955.30210798274
 20
9210270.668012805
 10
440985.3228899491
 20
9210358.790727744
  0
LWPOLYLINE
  5
54
330
17
100
AcDbEntity
  8
JALAN_CL
370
9
100
AcDbPolyline
 90
10
 70
0
 10
440955.30210798274
 20
9210270.668012805
 10
440863.96455442
 20
9210296.408986306
 10
440825.7447530605
 20
9210308.359442078
 10
440821.14899139246
 20
9210310.26664692
 10
440819.2250968518
 20
9210312.464395203
 10
440818.77938501746
 20
9210315.924156848
 10
440819.35974501737
 20
9210320.114755917
 10
440822.6058003885
 20
9210329.902391275
 10
440834.8634767677
 20
9210367.13953343
 10
440847.9916282751
 20
9210405.991743075
  0
LWPOLYLINE
  5
55
330
17
100
AcDbEntity
  8
JALAN_CL
370
9
100
AcDbPolyline
 90
4
 70
0
 10
440955.30210798274
 20
9210270.668012805
 10
440993.4312368932
 20
9210260.674130175
 10
441047.55695208214
 20
9210244.154080832
 10
441058.6140649825
 20
9210240.772946725
  0
LWPOLYLINE
  5
56
330
17
100
AcDbEntity
  8
JALAN_CL
370
9
100
AcDbPolyline
 90
2
 70
0
 10
440847.9916282751
 20
9210405.991743075
 10
440910.5134175299
 20
9210386.198190182
  0
LWPOLYLINE
  5
57
330
17
100
AcDbEntity
  8
JALAN_CL
370
9
100
AcDbPolyline
 90
3
 70
0
 10
440847.9916282751
 20
9210405.991743075
 10
440762.2121294705
 20
9210437.664608443
 10
440748.85080393864
 20
9210466.337316915
  0
LWPOLYLINE
  5
58
330
17
100
AcDbEntity
  8
JALAN_CL
370
9
100
AcDbPolyline
 90
10
 70
0
 10
440847.9916282751
 20
9210405.991743075
 10
440834.8634767677
 20
9210367.13953343
 10
440822.6058003885
 20
9210329.902391275
 10
440819.35974501737
 20
9210320.114755917
 10
440818.77938501746
 20
9210315.924156848
 10
440819.2250968518
 20
9210312.464395203
 10
440821.14899139246
 20
9210310.26664692
 10
440825.7447530605
 20
9210308.359442078
 10
440863.96455442
 20
9210296.408986306
 10
440955.30210798274
 20
9210270.668012805
  0
LWPOLYLINE
  5
59
330
17
100
AcDbEntity
  8
JALAN_CL
370
9
100
AcDbPolyline
 90
5
 70
0
 10
440847.9916282751
 20
9210405.991743075
 10
440853.3084073989
 20
9210420.2701969
 10
440858.4692370505
 20
9210435.720320532
 10
440862.01234275923
 20
9210446.459044887
 10
440865.25336649246
 20
9210460.591366239
  0
LWPOLYLINE
  5
5A
330
17
100
AcDbEntity
  8
JALAN_CL
370
9
100
AcDbPolyline
 90
2
 70
0
 10
440910.5134175299
 20
9210386.198190182
 10
440847.9916282751
 20
9210405.991743075
  0
LWPOLYLINE
  5
5B
330
17
100
AcDbEntity
  8
JALAN_CL
370
9
100
AcDbPolyline
 90
2
 70
0
 10
440910.5134175299
 20
9210386.198190182
 10
440978.71687984955
 20
9210361.19309894
  0
LWPOLYLINE
  5
5C
330
17
100
AcDbEntity
  8
JALAN_CL
370
9
100
AcDbPolyline
 90
3
 70
0
 10
440910.5134175299
 20
9210386.198190182
 10
440914.3338685279
 20
9210405.339189416
 10
440919.6210091603
 20
9210435.647649286
  0
LWPOLYLINE
  5
5D
330
17
100
AcDbEntity
  8
JALAN_CL
370
9
100
AcDbPolyline
 90
3
 70
0
 10
441117.63364405767
 20
9210432.19581453
 10
441128.8544753244
 20
9210459.128217585
 10
441136.6716855748
 20
9210478.793411683
  0
LWPOLYLINE
  5
5E
330
17
100
AcDbEntity
  8
JALAN_CL
370
9
100
AcDbPolyline
 90
4
 70
0
 10
441117.63364405767
 20
9210432.19581453
 10
441111.8324590969
 20
9210407.060624084
 10
441102.097290253
 20
9210374.956100015
 10
441085.89719799923
 20
9210328.328603797
  0
LWPOLYLINE
  5
5F
330
17
100
AcDbEntity
  8
JALAN_CL
370
9
100
AcDbPolyline
 90
3
 70
0
 10
441117.63364405767
 20
9210432.19581453
 10
441072.0008516733
 20
9210447.299666446
 10
441004.1581043501
 20
9210465.90434197
  0
LWPOLYLINE
  5
60
330
17
100
AcDbEntity
  8
JALAN_CL
370
9
100
AcDbPolyline
 90
4
 70
0
 10
441192.9979969872
 20
9210306.806438342
 10
441139.9493508526
 20
9210318.154054731
 10
441120.46636127983
 20
9210322.133491822
 10
441085.89719799923
 20
9210328.328603797
  0
LWPOLYLINE
  5
61
330
17
100
AcDbEntity
  8
JALAN_CL
370
9
100
AcDbPolyline
 90
3
 70
0
 10
440717.1754808963
 20
9210452.768844547
 10
440732.8651363773
 20
9210463.378013272
 10
440748.85080393864
 20
9210466.337316915
  0
LWPOLYLINE
  5
62
330
17
100
AcDbEntity
  8
JALAN_CL
370
9
100
AcDbPolyline
 90
8
 70
0
 10
440976.296300445
 20
9210544.06549218
 10
440984.6743175248
 20
9210537.154651375
 10
441001.4150213166
 20
9210527.025386553
 10
441012.7635628786
 20
9210519.963212844
 10
441047.7942172468
 20
9210506.32852318
 10
441064.5305435965
 20
9210499.958003264
 10
441087.2750336495
 20
9210492.544190602
 10
441136.6716855748
 20
9210478.793411683
  0
LWPOLYLINE
  5
63
330
17
100
AcDbEntity
  8
JALAN_CL
370
9
100
AcDbPolyline
 90
3
 70
0
 10
440976.296300445
 20
9210544.06549218
 10
440973.0433000809
 20
9210540.225562796
 10
440958.33785742853
 20
9210480.720443893
  0
LWPOLYLINE
  5
64
330
17
100
AcDbEntity
  8
JALAN_CL
370
9
100
AcDbPolyline
 90
4
 70
0
 10
440976.296300445
 20
9210544.06549218
 10
440973.85206204205
 20
9210547.434494397
 10
440971.0328884704
 20
9210550.371908605
 10
440966.43659906834
 20
9210552.721335206
  0
LWPOLYLINE
  5
65
330
17
100
AcDbEntity
  8
JALAN_CL
370
9
100
AcDbPolyline
 90
3
 70
0
 10
441136.6716855748
 20
9210478.793411683
 10
441128.8544753244
 20
9210459.128217585
 10
441117.63364405767
 20
9210432.19581453
  0
LWPOLYLINE
  5
66
330
17
100
AcDbEntity
  8
JALAN_CL
370
9
100
AcDbPolyline
 90
8
 70
0
 10
441136.6716855748
 20
9210478.793411683
 10
441087.2750336495
 20
9210492.544190602
 10
441064.5305435965
 20
9210499.958003264
 10
441047.7942172468
 20
9210506.32852318
 10
441012.7635628786
 20
9210519.963212844
 10
441001.4150213166
 20
9210527.025386553
 10
440984.6743175248
 20
9210537.154651375
 10
440976.296300445
 20
9210544.06549218
  0
LWPOLYLINE
  5
67
330
17
100
AcDbEntity
  8
JALAN_CL
370
9
100
AcDbPolyline
 90
2
 70
0
 10
440994.47902592656
 20
9210414.044207748
 10
440919.6210091603
 20
9210435.647649286
  0
LWPOLYLINE
  5
68
330
17
100
AcDbEntity
  8
JALAN_CL
370
9
100
AcDbPolyline
 90
4
 70
0
 10
440994.47902592656
 20
9210414.044207748
 10
440996.3497631154
 20
9210429.114621514
 10
441001.21432232484
 20
9210452.513075817
 10
441004.1581043501
 20
9210465.90434197
  0
LWPOLYLINE
  5
69
330
17
100
AcDbEntity
  8
JALAN_CL
370
9
100
AcDbPolyline
 90
3
 70
0
 10
440994.47902592656
 20
9210414.044207748
 10
440990.3253686042
 20
9210396.550056
 10
440978.71687984955
 20
9210361.19309894
  0
LWPOLYLINE
  5
6A
330
17
100
AcDbEntity
  8
JALAN_CL
370
9
100
AcDbPolyline
 90
3
 70
0
 10
440748.85080393864
 20
9210466.337316915
 10
440732.8651363773
 20
9210463.378013272
 10
440717.1754808963
 20
9210452.768844547
  0
LWPOLYLINE
  5
6B
330
17
100
AcDbEntity
  8
JALAN_CL
370
9
100
AcDbPolyline
 90
3
 70
0
 10
440748.85080393864
 20
9210466.337316915
 10
440762.2121294705
 20
9210437.664608443
 10
440847.9916282751
 20
9210405.991743075
  0
LWPOLYLINE
  5
6C
330
17
100
AcDbEntity
  8
JALAN_CL
370
9
100
AcDbPolyline
 90
14
 70
0
 10
440748.85080393864
 20
9210466.337316915
 10
440749.7284342147
 20
9210480.754331013
 10
440747.93247605034
 20
9210496.351138998
 10
440744.3597655807
 20
9210511.050405953
 10
440739.44835877756
 20
9210527.970210616
 10
440794.5550364874
 20
9210513.319876963
 10
440805.0704523417
 20
9210510.546198742
 10
440821.8804474815
 20
9210507.326576028
 10
440831.43203941255
 20
9210507.26029736
 10
440845.87694448413
 20
9210505.806749769
 10
440862.54219099495
 20
9210503.615079874
 10
440888.83913358016
 20
9210498.936118178
 10
440916.60664627363
 20
9210492.567404373
 10
440931.7157814546
 20
9210489.64426185
  0
LWPOLYLINE
  5
6D
330
17
100
AcDbEntity
  8
JALAN_CL
370
9
100
AcDbPolyline
 90
2
 70
0
 10
440958.33785742853
 20
9210480.720443893
 10
440931.7157814546
 20
9210489.64426185
  0
LWPOLYLINE
  5
6E
330
17
100
AcDbEntity
  8
JALAN_CL
370
9
100
AcDbPolyline
 90
3
 70
0
 10
440958.33785742853
 20
9210480.720443893
 10
440977.63609233336
 20
9210474.253428176
 10
441004.1581043501
 20
9210465.90434197
  0
LWPOLYLINE
  5
6F
330
17
100
AcDbEntity
  8
JALAN_CL
370
9
100
AcDbPolyline
 90
3
 70
0
 10
440958.33785742853
 20
9210480.720443893
 10
440973.0433000809
 20
9210540.225562796
 10
440976.296300445
 20
9210544.06549218
  0
LWPOLYLINE
  5
70
330
17
100
AcDbEntity
  8
JALAN_CL
370
9
100
AcDbPolyline
 90
4
 70
0
 10
440966.43659906834
 20
9210552.721335206
 10
440971.0328884704
 20
9210550.371908605
 10
440973.85206204205
 20
9210547.434494397
 10
440976.296300445
 20
9210544.06549218
  0
LWPOLYLINE
  5
71
330
17
100
AcDbEntity
  8
BANGUNAN
100
AcDbPolyline
 90
5
 70
1
 10
441056.4933969956
 20
9210426.78698475
 10
441064.16219427064
 20
9210424.508926729
 10
441066.7888960019
 20
9210433.35138943
 10
441059.1200987268
 20
9210435.62944745
 10
441056.4933969956
 20
9210426.78698475
  0
LWPOLYLINE
  5
72
330
17
100
AcDbEntity
  8
BANGUNAN
100
AcDbPolyline
 90
5
 70
1
 10
441110.6958898455
 20
9210464.658136528
 10
441103.33919592807
 20
9210467.652278783
 10
441101.83131690556
 20
9210463.947376516
 10
441109.1880108216
 20
9210460.953234257
 10
441110.6958898455
 20
9210464.658136528
  0
LWPOLYLINE
  5
73
330
17
100
AcDbEntity
  8
BANGUNAN
100
AcDbPolyline
 90
5
 70
1
 10
441140.0618750956
 20
9210310.15286474
 10
441131.2382688392
 20
9210311.925989829
 10
441128.78324108385
 20
9210299.70902985
 10
441137.6068473421
 20
9210297.93590476
 10
441140.0618750956
 20
9210310.15286474
  0
LWPOLYLINE
  5
74
330
17
100
AcDbEntity
  8
BANGUNAN
100
AcDbPolyline
 90
5
 70
1
 10
440946.96695760963
 20
9210390.479034808
 10
440957.5822018739
 20
9210386.587221367
 10
440959.9917427609
 20
9210393.159444181
 10
440949.3764984971
 20
9210397.051257621
 10
440946.96695760963
 20
9210390.479034808
  0
LWPOLYLINE
  5
75
330
17
100
AcDbEntity
  8
BANGUNAN
100
AcDbPolyline
 90
5
 70
1
 10
440825.132162787
 20
9210531.247136755
 10
440811.24450822733
 20
9210529.477094155
 10
440813.82831919193
 20
9210509.20465883
 10
440827.71597374976
 20
9210510.974701429
 10
440825.132162787
 20
9210531.247136755
  0
LWPOLYLINE
  5
76
330
17
100
AcDbEntity
  8
BANGUNAN
100
AcDbPolyline
 90
5
 70
1
 10
440706.0393211548
 20
9210540.831841893
 10
440664.31429401296
 20
9210547.021688469
 10
440662.99361045915
 20
9210538.119116092
 10
440704.7186376008
 20
9210531.929269517
 10
440706.0393211548
 20
9210540.831841893
  0
LWPOLYLINE
  5
77
330
17
100
AcDbEntity
  8
BANGUNAN
100
AcDbPolyline
 90
5
 70
1
 10
440913.1486863848
 20
9210513.30049502
 10
440901.2449824754
 20
9210511.783315647
 10
440903.16319590807
 20
9210496.733121088
 10
440915.0668998156
 20
9210498.250300458
 10
440913.1486863848
 20
9210513.30049502
  0
LWPOLYLINE
  5
78
330
17
100
AcDbEntity
  8
BANGUNAN
100
AcDbPolyline
 90
5
 70
1
 10
441049.077756105
 20
9210511.290507251
 10
441056.48756065033
 20
9210508.2747492
 10
441060.3010319201
 20
9210517.644558147
 10
441052.8912273757
 20
9210520.660316197
 10
441049.077756105
 20
9210511.290507251
  0
LWPOLYLINE
  5
79
330
17
100
AcDbEntity
  8
BANGUNAN
100
AcDbPolyline
 90
5
 70
1
 10
440867.3124253466
 20
9210337.587764727
 10
440853.9942660406
 20
9210338.058738496
 10
440853.6761953605
 20
9210329.06436075
 10
440866.99435466644
 20
9210328.593386983
 10
440867.3124253466
 20
9210337.587764727
  0
LWPOLYLINE
  5
7A
330
17
100
AcDbEntity
  8
BANGUNAN
100
AcDbPolyline
 90
5
 70
1
 10
441064.1151852715
 20
9210207.996516474
 10
441068.1523932684
 20
9210206.351958007
 10
441069.6613998362
 20
9210210.056401175
 10
441065.62419183645
 20
9210211.700959638
 10
441064.1151852715
 20
9210207.996516474
  0
LWPOLYLINE
  5
7B
330
17
100
AcDbEntity
  8
BANGUNAN
100
AcDbPolyline
 90
5
 70
1
 10
440987.6078680693
 20
9210506.198840253
 10
440985.9713517879
 20
9210500.426335212
 10
440992.9300179556
 20
9210498.45353997
 10
440994.566534237
 20
9210504.22604501
 10
440987.6078680693
 20
9210506.198840253
  0
LWPOLYLINE
  5
7C
330
17
100
AcDbEntity
  8
BANGUNAN
100
AcDbPolyline
 90
5
 70
1
 10
441085.1418228578
 20
9210446.448997183
 10
441094.72781945206
 20
9210443.601424657
 10
441098.06298859045
 20
9210454.828854235
 10
441088.47699199617
 20
9210457.676426759
 10
441085.1418228578
 20
9210446.448997183
  0
LWPOLYLINE
  5
7D
330
17
100
AcDbEntity
  8
BANGUNAN
100
AcDbPolyline
 90
5
 70
1
 10
441052.489944824
 20
9210480.464072496
 10
441060.8259749375
 20
9210477.071344692
 10
441064.903887745
 20
9210487.090894124
 10
441056.56785763334
 20
9210490.48362193
 10
441052.489944824
 20
9210480.464072496
  0
LWPOLYLINE
  5
7E
330
17
100
AcDbEntity
  8
BANGUNAN
100
AcDbPolyline
 90
5
 70
1
 10
441027.5583179202
 20
9210353.128948519
 10
441040.95721183904
 20
9210349.070667878
 10
441045.38964062557
 20
9210363.704856183
 10
441031.9907467067
 20
9210367.763136823
 10
441027.5583179202
 20
9210353.128948519
  0
LWPOLYLINE
  5
7F
330
17
100
AcDbEntity
  8
BANGUNAN
100
AcDbPolyline
 90
5
 70
1
 10
440995.97781418543
 20
9210498.349695373
 10
440986.65356082097
 20
9210501.364718154
 10
440984.8075522273
 20
9210495.655755704
 10
440994.1318055922
 20
9210492.640732924
 10
440995.97781418543
 20
9210498.349695373
  0
LWPOLYLINE
  5
80
330
17
100
AcDbEntity
  8
BANGUNAN
100
AcDbPolyline
 90
5
 70
1
 10
440924.7191330176
 20
9210501.901208831
 10
440915.3028338227
 20
9210500.70106012
 10
440916.1878551218
 20
9210493.757232841
 10
440925.60415431694
 20
9210494.957381548
 10
440924.7191330176
 20
9210501.901208831
  0
LWPOLYLINE
  5
81
330
17
100
AcDbEntity
  8
BANGUNAN
100
AcDbPolyline
 90
5
 70
1
 10
440857.6785998228
 20
9210533.930406997
 10
440868.00703674136
 20
9210531.871861778
 10
440869.7662128201
 20
9210540.698259654
 10
440859.4377759034
 20
9210542.756804876
 10
440857.6785998228
 20
9210533.930406997
  0
LWPOLYLINE
  5
82
330
17
100
AcDbEntity
  8
BANGUNAN
100
AcDbPolyline
 90
5
 70
1
 10
441115.3657970871
 20
9210436.907908674
 10
441119.90436459146
 20
9210448.016527176
 10
441108.5083331638
 20
9210452.67252089
 10
441103.96976565896
 20
9210441.56390239
 10
441115.3657970871
 20
9210436.907908674
  0
LWPOLYLINE
  5
83
330
17
100
AcDbEntity
  8
BANGUNAN
100
AcDbPolyline
 90
5
 70
1
 10
441065.17065172177
 20
9210515.10151343
 10
441071.6542306999
 20
9210512.462725138
 10
441075.55049028806
 20
9210522.035947371
 10
441069.06691130996
 20
9210524.674735662
 10
441065.17065172177
 20
9210515.10151343
  0
LWPOLYLINE
  5
84
330
17
100
AcDbEntity
  8
BANGUNAN
100
AcDbPolyline
 90
5
 70
1
 10
440935.80914971605
 20
9210296.343882648
 10
440923.3823387129
 20
9210312.014695272
 10
440905.33811670914
 20
9210297.705792353
 10
440917.7649277104
 20
9210282.034979727
 10
440935.80914971605
 20
9210296.343882648
  0
LWPOLYLINE
  5
85
330
17
100
AcDbEntity
  8
BANGUNAN
100
AcDbPolyline
 90
5
 70
1
 10
440869.1287892563
 20
9210310.541889917
 10
440862.91538375523
 20
9210318.37729623
 10
440854.53551340103
 20
9210311.732135726
 10
440860.7489189021
 20
9210303.896729413
 10
440869.1287892563
 20
9210310.541889917
  0
LWPOLYLINE
  5
86
330
17
100
AcDbEntity
  8
BANGUNAN
100
AcDbPolyline
 90
5
 70
1
 10
440991.21704413276
 20
9210461.552011652
 10
440989.93275410216
 20
9210454.670834493
 10
441000.93212718284
 20
9210452.61793208
 10
441002.21641721297
 20
9210459.499109238
 10
440991.21704413276
 20
9210461.552011652
  0
LWPOLYLINE
  5
87
330
17
100
AcDbEntity
  8
BANGUNAN
100
AcDbPolyline
 90
5
 70
1
 10
440889.65831944207
 20
9210399.75229119
 10
440901.171727133
 20
9210396.107302032
 10
440904.7935937736
 20
9210407.547672743
 10
440893.2801860827
 20
9210411.192661902
 10
440889.65831944207
 20
9210399.75229119
  0
LWPOLYLINE
  5
88
330
17
100
AcDbEntity
  8
BANGUNAN
100
AcDbPolyline
 90
5
 70
1
 10
440933.41758446954
 20
9210475.453134943
 10
440930.2485726215
 20
9210461.305212121
 10
440940.006773632
 20
9210459.119459836
 10
440943.17578548007
 20
9210473.267382659
 10
440933.41758446954
 20
9210475.453134943
  0
LWPOLYLINE
  5
89
330
17
100
AcDbEntity
  8
BANGUNAN
100
AcDbPolyline
 90
5
 70
1
 10
440832.9996672963
 20
9210513.9557594
 10
440841.70569256484
 20
9210515.065380577
 10
440840.82067126525
 20
9210522.009207858
 10
440832.1146459967
 20
9210520.899586681
 10
440832.9996672963
 20
9210513.9557594
  0
LWPOLYLINE
  5
8A
330
17
100
AcDbEntity
  8
BANGUNAN
100
AcDbPolyline
 90
5
 70
1
 10
441027.8892036937
 20
9210274.339322206
 10
441020.2044705432
 20
9210276.563030012
 10
441015.7217341475
 20
9210261.071501456
 10
441023.40646729805
 20
9210258.84779365
 10
441027.8892036937
 20
9210274.339322206
  0
LWPOLYLINE
  5
8B
330
17
100
AcDbEntity
  8
BANGUNAN
100
AcDbPolyline
 90
5
 70
1
 10
440837.79516208544
 20
9210491.108632956
 10
440828.8673841525
 20
9210489.97074843
 10
440830.54483343475
 20
9210476.809575807
 10
440839.4726113677
 20
9210477.947460337
 10
440837.79516208544
 20
9210491.108632956
  0
LWPOLYLINE
  5
8C
330
17
100
AcDbEntity
  8
BANGUNAN
100
AcDbPolyline
 90
5
 70
1
 10
441009.5842080917
 20
9210488.932419904
 10
441005.77823312394
 20
9210490.163092298
 10
441002.57551304623
 20
9210480.258366644
 10
441006.381488014
 20
9210479.027694248
 10
441009.5842080917
 20
9210488.932419904
  0
LWPOLYLINE
  5
8D
330
17
100
AcDbEntity
  8
BANGUNAN
100
AcDbPolyline
 90
5
 70
1
 10
440921.9460675251
 20
9210450.08416648
 10
440923.69466935005
 20
9210457.890727287
 10
440911.2297483245
 20
9210460.682761347
 10
440909.4811464995
 20
9210452.876200542
 10
440921.9460675251
 20
9210450.08416648
  0
LWPOLYLINE
  5
8E
330
17
100
AcDbEntity
  8
BANGUNAN
100
AcDbPolyline
 90
5
 70
1
 10
440931.63094581664
 20
9210581.856938517
 10
440932.85753015056
 20
9210592.020609533
 10
440924.91515914537
 20
9210592.979120273
 10
440923.68857481144
 20
9210582.815449255
 10
440931.63094581664
 20
9210581.856938517
  0
LWPOLYLINE
  5
8F
330
17
100
AcDbEntity
  8
BANGUNAN
100
AcDbPolyline
 90
5
 70
1
 10
440961.50141632464
 20
9210541.794832045
 10
440955.18260412384
 20
9210547.342124447
 10
440949.9046959728
 20
9210541.330162577
 10
440956.22350817453
 20
9210535.782870173
 10
440961.50141632464
 20
9210541.794832045
  0
LWPOLYLINE
  5
90
330
17
100
AcDbEntity
  8
BANGUNAN
100
AcDbPolyline
 90
5
 70
1
 10
440866.77127808146
 20
9210375.592856418
 10
440878.2116487939
 20
9210371.970989777
 10
440882.5714972392
 20
9210385.742419655
 10
440871.1311265286
 20
9210389.364286294
 10
440866.77127808146
 20
9210375.592856418
  0
LWPOLYLINE
  5
91
330
17
100
AcDbEntity
  8
BANGUNAN
100
AcDbPolyline
 90
5
 70
1
 10
440769.70393701363
 20
9210421.350012042
 10
440781.0621082969
 20
9210414.436458837
 10
440783.66181112826
 20
9210418.707471035
 10
440772.30363984685
 20
9210425.621024238
 10
440769.70393701363
 20
9210421.350012042
  0
LWPOLYLINE
  5
92
330
17
100
AcDbEntity
  8
BANGUNAN
100
AcDbPolyline
 90
5
 70
1
 10
441037.02056009695
 20
9210291.612458006
 10
441042.2643452808
 20
9210305.610058447
 10
441033.8363310378
 20
9210308.767363615
 10
441028.5925458539
 20
9210294.769763175
 10
441037.02056009695
 20
9210291.612458006
  0
LWPOLYLINE
  5
93
330
17
100
AcDbEntity
  8
BANGUNAN
100
AcDbPolyline
 90
5
 70
1
 10
440964.481800803
 20
9210460.812983256
 10
440973.9967382187
 20
9210457.736302266
 10
440977.1546019176
 20
9210467.502305178
 10
440967.6396645
 20
9210470.578986168
 10
440964.481800803
 20
9210460.812983256
  0
LWPOLYLINE
  5
94
330
17
100
AcDbEntity
  8
BANGUNAN
100
AcDbPolyline
 90
5
 70
1
 10
440810.3502851911
 20
9210493.441733425
 10
440796.4626306314
 20
9210491.671690827
 10
440798.51492952555
 20
9210475.569469268
 10
440812.40258408524
 20
9210477.339511868
 10
440810.3502851911
 20
9210493.441733425
  0
LWPOLYLINE
  5
95
330
17
100
AcDbEntity
  8
BANGUNAN
100
AcDbPolyline
 90
5
 70
1
 10
440907.5138676483
 20
9210491.9077359
 10
440893.62621308863
 20
9210490.137693303
 10
440895.4181478806
 20
9210476.078273833
 10
440909.30580244027
 20
9210477.84831643
 10
440907.5138676483
 20
9210491.9077359
  0
LWPOLYLINE
  5
96
330
17
100
AcDbEntity
  8
BANGUNAN
100
AcDbPolyline
 90
5
 70
1
 10
440821.3235611869
 20
9210380.432885248
 10
440828.7796477871
 20
9210371.030397676
 10
440837.9180300953
 20
9210378.277051214
 10
440830.4619434951
 20
9210387.67953879
 10
440821.3235611869
 20
9210380.432885248
  0
LWPOLYLINE
  5
97
330
17
100
AcDbEntity
  8
BANGUNAN
100
AcDbPolyline
 90
5
 70
1
 10
440933.30535167083
 20
9210348.921535315
 10
440931.32988743484
 20
9210336.434102805
 10
440940.219340913
 20
9210335.027825141
 10
440942.194805149
 20
9210347.51525765
 10
440933.30535167083
 20
9210348.921535315
  0
LWPOLYLINE
  5
98
330
17
100
AcDbEntity
  8
BANGUNAN
100
AcDbPolyline
 90
5
 70
1
 10
440837.04834806046
 20
9210475.569535693
 10
440847.6254908922
 20
9210476.917639025
 10
440846.3611747499
 20
9210486.83739228
 10
440835.78403191816
 20
9210485.489288948
 10
440837.04834806046
 20
9210475.569535693
  0
LWPOLYLINE
  5
99
330
17
100
AcDbEntity
  8
BANGUNAN
100
AcDbPolyline
 90
5
 70
1
 10
440936.0623329934
 20
9210358.884358892
 10
440926.2839978053
 20
9210362.469340581
 10
440922.8417965383
 20
9210353.080450848
 10
440932.6201317259
 20
9210349.495469157
 10
440936.0623329934
 20
9210358.884358892
  0
LWPOLYLINE
  5
9A
330
17
100
AcDbEntity
  8
BANGUNAN
100
AcDbPolyline
 90
5
 70
1
 10
440869.2946971189
 20
9210473.552811617
 10
440867.06942284666
 20
9210466.51417303
 10
440870.8833571058
 20
9210465.30839301
 10
440873.10863137804
 20
9210472.347031593
 10
440869.2946971189
 20
9210473.552811617
  0
LWPOLYLINE
  5
9B
330
17
100
AcDbEntity
  8
BANGUNAN
100
AcDbPolyline
 90
5
 70
1
 10
441167.71048398316
 20
9210327.320177466
 10
441172.6124874614
 20
9210326.335107975
 10
441173.91947633587
 20
9210332.839079572
 10
441169.0174728595
 20
9210333.824149067
 10
441167.71048398316
 20
9210327.320177466
  0
LWPOLYLINE
  5
9C
330
17
100
AcDbEntity
  8
BANGUNAN
100
AcDbPolyline
 90
5
 70
1
 10
440880.3709792034
 20
9210379.491373457
 10
440888.41292149294
 20
9210376.945403293
 10
440890.2238548137
 20
9210382.665588649
 10
440882.18191252416
 20
9210385.211558813
 10
440880.3709792034
 20
9210379.491373457
  0
LWPOLYLINE
  5
9D
330
17
100
AcDbEntity
  8
BANGUNAN
100
AcDbPolyline
 90
5
 70
1
 10
440977.49770137854
 20
9210525.584185231
 10
440979.289607469
 20
9210531.904798765
 10
440975.4412707761
 20
9210532.995809618
 10
440973.6493646838
 20
9210526.675196085
 10
440977.49770137854
 20
9210525.584185231
  0
LWPOLYLINE
  5
9E
330
17
100
AcDbEntity
  8
BANGUNAN
100
AcDbPolyline
 90
5
 70
1
 10
441124.6742121582
 20
9210451.949002381
 10
441129.2127796626
 20
9210463.057620881
 10
441116.9768055761
 20
9210468.056783859
 10
441112.43823807174
 20
9210456.94816536
 10
441124.6742121582
 20
9210451.949002381
  0
LWPOLYLINE
  5
9F
330
17
100
AcDbEntity
  8
BANGUNAN
100
AcDbPolyline
 90
5
 70
1
 10
440683.31207159115
 20
9210438.80812733
 10
440632.8087460683
 20
9210453.464080425
 10
440630.02174950065
 20
9210443.860297311
 10
440680.52507502306
 20
9210429.204344215
 10
440683.31207159115
 20
9210438.80812733
  0
LWPOLYLINE
  5
A0
330
17
100
AcDbEntity
  8
BANGUNAN
100
AcDbPolyline
 90
5
 70
1
 10
441053.5355038624
 20
9210313.965703813
 10
441049.3705046815
 20
9210300.599598106
 10
441062.9360747286
 20
9210296.372444037
 10
441067.1010739091
 20
9210309.738549745
 10
441053.5355038624
 20
9210313.965703813
  0
LWPOLYLINE
  5
A1
330
17
100
AcDbEntity
  8
BANGUNAN
100
AcDbPolyline
 90
5
 70
1
 10
440640.45841885824
 20
9210471.8508696
 10
440678.25173564395
 20
9210466.675245255
 10
440679.3371687117
 20
9210474.601267906
 10
440641.543851926
 20
9210479.77689225
 10
440640.45841885824
 20
9210471.8508696
  0
LWPOLYLINE
  5
A2
330
17
100
AcDbEntity
  8
BANGUNAN
100
AcDbPolyline
 90
5
 70
1
 10
440886.2400564054
 20
9210512.70083999
 10
440875.4468087335
 20
9210511.325193148
 10
440876.71112487605
 20
9210501.40543989
 10
440887.50437254773
 20
9210502.781086734
 10
440886.2400564054
 20
9210512.70083999
  0
LWPOLYLINE
  5
A3
330
17
100
AcDbEntity
  8
BANGUNAN
100
AcDbPolyline
 90
5
 70
1
 10
440958.98214766383
 20
9210360.047154471
 10
440953.8226064462
 20
9210344.90188675
 10
440973.5822547786
 20
9210338.170363612
 10
440978.74179599714
 20
9210353.315631337
 10
440958.98214766383
 20
9210360.047154471
  0
LWPOLYLINE
  5
A4
330
17
100
AcDbEntity
  8
BANGUNAN
100
AcDbPolyline
 90
5
 70
1
 10
440706.98315634066
 20
9210461.427857872
 10
440729.21809485415
 20
9210470.952437885
 10
440721.3429776281
 20
9210489.336739032
 10
440699.10803911556
 20
9210479.812159015
 10
440706.98315634066
 20
9210461.427857872
  0
LWPOLYLINE
  5
A5
330
17
100
AcDbEntity
  8
BANGUNAN
100
AcDbPolyline
 90
5
 70
1
 10
440914.2609446903
 20
9210526.892766094
 10
440907.7091152477
 20
9210526.057706641
 10
440908.4677049327
 20
9210520.105854686
 10
440915.0195343755
 20
9210520.94091414
 10
440914.2609446903
 20
9210526.892766094
  0
LWPOLYLINE
  5
A6
330
17
100
AcDbEntity
  8
BANGUNAN
100
AcDbPolyline
 90
5
 70
1
 10
440957.5415820936
 20
9210547.313665617
 10
440953.9207368642
 20
9210550.492409753
 10
440950.62204427086
 20
9210546.734933581
 10
440954.2428895002
 20
9210543.556189448
 10
440957.5415820936
 20
9210547.313665617
  0
LWPOLYLINE
  5
A7
330
17
100
AcDbEntity
  8
BANGUNAN
100
AcDbPolyline
 90
5
 70
1
 10
440805.3757779187
 20
9210544.676501537
 10
440788.6918822344
 20
9210542.550065719
 10
440790.71478806215
 20
9210526.678460509
 10
440807.3986837469
 20
9210528.804896325
 10
440805.3757779187
 20
9210544.676501537
  0
LWPOLYLINE
  5
A8
330
17
100
AcDbEntity
  8
BANGUNAN
100
AcDbPolyline
 90
5
 70
1
 10
440992.5459665214
 20
9210431.162061688
 10
440994.0137265567
 20
9210439.026264155
 10
440983.0901829619
 20
9210441.065013895
 10
440981.6224229266
 20
9210433.200811425
 10
440992.5459665214
 20
9210431.162061688
  0
LWPOLYLINE
  5
A9
330
17
100
AcDbEntity
  8
BANGUNAN
100
AcDbPolyline
 90
5
 70
1
 10
440930.5470433654
 20
9210371.144529773
 10
440922.09704260435
 20
9210374.242510915
 10
440918.20623768587
 20
9210363.630017478
 10
440926.65623844694
 20
9210360.532036334
 10
440930.5470433654
 20
9210371.144529773
  0
LWPOLYLINE
  5
AA
330
17
100
AcDbEntity
  8
BANGUNAN
100
AcDbPolyline
 90
5
 70
1
 10
440894.9807599541
 20
9210461.5189219
 10
440893.8878838117
 20
9210456.639821395
 10
440901.5533428523
 20
9210454.922825139
 10
440902.64621899463
 20
9210459.801925644
 10
440894.9807599541
 20
9210461.5189219
  0
LWPOLYLINE
  5
AB
330
17
100
AcDbEntity
  8
BANGUNAN
100
AcDbPolyline
 90
5
 70
1
 10
441129.8685901016
 20
9210393.140060898
 10
441132.9690675158
 20
9210403.287319988
 10
441123.40553232096
 20
9210406.209441576
 10
441120.3050549086
 20
9210396.062182486
 10
441129.8685901016
 20
9210393.140060898
  0
LWPOLYLINE
  5
AC
330
17
100
AcDbEntity
  8
BANGUNAN
100
AcDbPolyline
 90
5
 70
1
 10
440868.8742369246
 20
9210406.817602202
 10
440876.50115073286
 20
9210404.403024442
 10
440880.75831414945
 20
9210417.850103673
 10
440873.13140034117
 20
9210420.264681432
 10
440868.8742369246
 20
9210406.817602202
  0
LWPOLYLINE
  5
AD
330
17
100
AcDbEntity
  8
BANGUNAN
100
AcDbPolyline
 90
5
 70
1
 10
440780.9063567431
 20
9210369.712731754
 10
440794.6543978788
 20
9210368.124593934
 10
440795.2281692331
 20
9210373.091563476
 10
440781.48012809735
 20
9210374.679701297
 10
440780.9063567431
 20
9210369.712731754
  0
LWPOLYLINE
  5
AE
330
17
100
AcDbEntity
  8
BANGUNAN
100
AcDbPolyline
 90
5
 70
1
 10
440808.80962420255
 20
9210564.03046971
 10
440796.1702766395
 20
9210568.921853462
 10
440791.83932300424
 20
9210557.730658684
 10
440804.47867056774
 20
9210552.839274932
 10
440808.80962420255
 20
9210564.03046971
  0
LWPOLYLINE
  5
AF
330
17
100
AcDbEntity
  8
BANGUNAN
100
AcDbPolyline
 90
5
 70
1
 10
441018.539729828
 20
9210369.834342066
 10
441010.8832190186
 20
9210372.153359577
 10
441006.5904135909
 20
9210357.980154313
 10
441014.2469244022
 20
9210355.661136806
 10
441018.539729828
 20
9210369.834342066
  0
LWPOLYLINE
  5
B0
330
17
100
AcDbEntity
  8
BANGUNAN
100
AcDbPolyline
 90
5
 70
1
 10
440786.6013625674
 20
9210460.471709222
 10
440782.18429086264
 20
9210463.160316344
 10
440780.1045285985
 20
9210459.743506592
 10
440784.52160030324
 20
9210457.054899469
 10
440786.6013625674
 20
9210460.471709222
  0
LWPOLYLINE
  5
B1
330
17
100
AcDbEntity
  8
BANGUNAN
100
AcDbPolyline
 90
5
 70
1
 10
441041.0648687817
 20
9210399.507491404
 10
441043.1116005946
 20
9210407.967099153
 10
441036.3078988306
 20
9210409.61319827
 10
441034.26116701774
 20
9210401.153590525
 10
441041.0648687817
 20
9210399.507491404
  0
LWPOLYLINE
  5
B2
330
17
100
AcDbEntity
  8
BANGUNAN
100
AcDbPolyline
 90
5
 70
1
 10
440839.40137002897
 20
9210362.126624294
 10
440836.29466727935
 20
9210366.044327449
 10
440831.7171813855
 20
9210362.414423026
 10
440834.82388413604
 20
9210358.49671987
 10
440839.40137002897
 20
9210362.126624294
  0
LWPOLYLINE
  5
B3
330
17
100
AcDbEntity
  8
BANGUNAN
100
AcDbPolyline
 90
5
 70
1
 10
440866.60986134224
 20
9210492.61369925
 10
440858.67405873723
 20
9210491.602246337
 10
440860.72844486684
 20
9210475.483648457
 10
440868.66424747184
 20
9210476.49510137
 10
440866.60986134224
 20
9210492.61369925
  0
LWPOLYLINE
  5
B4
330
17
100
AcDbEntity
  8
BANGUNAN
100
AcDbPolyline
 90
5
 70
1
 10
441043.78839917947
 20
9210473.08264606
 10
441036.1196019044
 20
9210475.360704081
 10
441032.8174303798
 20
9210464.244356835
 10
441040.48622765485
 20
9210461.966298815
 10
441043.78839917947
 20
9210473.08264606
  0
LWPOLYLINE
  5
B5
330
17
100
AcDbEntity
  8
BANGUNAN
100
AcDbPolyline
 90
5
 70
1
 10
440980.92292026477
 20
9210484.981730176
 10
440971.75627443194
 20
9210487.945790129
 10
440969.60259774
 20
9210481.285333935
 10
440978.7692435724
 20
9210478.321273984
 10
440980.92292026477
 20
9210484.981730176
  0
LWPOLYLINE
  5
B6
330
17
100
AcDbEntity
  8
BANGUNAN
100
AcDbPolyline
 90
5
 70
1
 10
440894.82224613056
 20
9210359.271600895
 10
440902.44915993884
 20
9210356.857023135
 10
440908.20589669235
 20
9210375.040796613
 10
440900.57898288406
 20
9210377.455374371
 10
440894.82224613056
 20
9210359.271600895
  0
LWPOLYLINE
  5
B7
330
17
100
AcDbEntity
  8
BANGUNAN
100
AcDbPolyline
 90
5
 70
1
 10
441078.80124973366
 20
9210263.416628364
 10
441080.28874944104
 20
9210268.190237544
 10
441074.27894889936
 20
9210270.062945638
 10
441072.791449192
 20
9210265.289336456
 10
441078.80124973366
 20
9210263.416628364
  0
LWPOLYLINE
  5
B8
330
17
100
AcDbEntity
  8
BANGUNAN
100
AcDbPolyline
 90
5
 70
1
 10
441002.76585798897
 20
9210429.680174189
 10
441000.5642179367
 20
9210417.883870488
 10
441014.760914491
 20
9210415.234225605
 10
441016.9625545433
 20
9210427.030529305
 10
441002.76585798897
 20
9210429.680174189
  0
LWPOLYLINE
  5
B9
330
17
100
AcDbEntity
  8
BANGUNAN
100
AcDbPolyline
 90
5
 70
1
 10
440934.19941934664
 20
9210440.242834598
 10
440943.4249026305
 20
9210437.580431862
 10
440945.08856202103
 20
9210443.345172742
 10
440935.86307873717
 20
9210446.00757548
 10
440934.19941934664
 20
9210440.242834598
  0
LWPOLYLINE
  5
BA
330
17
100
AcDbEntity
  8
BANGUNAN
100
AcDbPolyline
 90
5
 70
1
 10
440978.1088701822
 20
9210441.811042048
 10
440976.7957356442
 20
9210434.77531712
 10
440981.7108621858
 20
9210433.8579671
 10
440983.0239967238
 20
9210440.893692024
 10
440978.1088701822
 20
9210441.811042048
  0
LWPOLYLINE
  5
BB
330
17
100
AcDbEntity
  8
BANGUNAN
100
AcDbPolyline
 90
5
 70
1
 10
440948.08884361247
 20
9210399.793734208
 10
440920.51799797127
 20
9210409.901894227
 10
440915.01047594287
 20
9210394.879670653
 10
440942.58132158406
 20
9210384.771510633
 10
440948.08884361247
 20
9210399.793734208
  0
LWPOLYLINE
  5
BC
330
17
100
AcDbEntity
  8
BANGUNAN
100
AcDbPolyline
 90
5
 70
1
 10
441035.3415858969
 20
9210436.79988127
 10
441046.84478180856
 20
9210433.382794239
 10
441050.7339293398
 20
9210446.475122755
 10
441039.23073343
 20
9210449.89220979
 10
441035.3415858969
 20
9210436.79988127
  0
LWPOLYLINE
  5
BD
330
17
100
AcDbEntity
  8
BANGUNAN
100
AcDbPolyline
 90
5
 70
1
 10
440791.7758952766
 20
9210361.31622857
 10
440780.45648304187
 20
9210364.890996758
 10
440778.95074310433
 20
9210360.123109674
 10
440790.27015533904
 20
9210356.548341487
 10
440791.7758952766
 20
9210361.31622857
  0
LWPOLYLINE
  5
BE
330
17
100
AcDbEntity
  8
BANGUNAN
100
AcDbPolyline
 90
5
 70
1
 10
441058.8866428165
 20
9210402.906170357
 10
441045.2965681772
 20
9210406.988553314
 10
441043.2827070593
 20
9210400.284497574
 10
441056.8727816986
 20
9210396.202114616
 10
441058.8866428165
 20
9210402.906170357
  0
LWPOLYLINE
  5
BF
330
17
100
AcDbEntity
  8
BANGUNAN
100
AcDbPolyline
 90
5
 70
1
 10
440983.4569261898
 20
9210377.811298253
 10
440985.45750780497
 20
9210384.519328756
 10
440973.194425798
 20
9210388.17663121
 10
440971.19384418335
 20
9210381.468600709
 10
440983.4569261898
 20
9210377.811298253
  0
LWPOLYLINE
  5
C0
330
17
100
AcDbEntity
  8
BANGUNAN
100
AcDbPolyline
 90
5
 70
1
 10
440892.2085202597
 20
9210499.633519359
 10
440898.16037221253
 20
9210500.392109044
 10
440897.352342641
 20
9210506.731863564
 10
440891.40049068816
 20
9210505.973273877
 10
440892.2085202597
 20
9210499.633519359
  0
LWPOLYLINE
  5
C1
330
17
100
AcDbEntity
  8
BANGUNAN
100
AcDbPolyline
 90
5
 70
1
 10
440787.3029196793
 20
9210461.047555158
 10
440790.9112230865
 20
9210472.681833487
 10
440786.13563119713
 20
9210474.162955392
 10
440782.5273277899
 20
9210462.528677065
 10
440787.3029196793
 20
9210461.047555158
  0
LWPOLYLINE
  5
C2
330
17
100
AcDbEntity
  8
BANGUNAN
100
AcDbPolyline
 90
5
 70
1
 10
440805.3845523279
 20
9210408.159275427
 10
440793.425718179
 20
9210415.438443359
 10
440781.800652219
 20
9210396.339799516
 10
440793.75948636886
 20
9210389.060631584
 10
440805.3845523279
 20
9210408.159275427
  0
LWPOLYLINE
  5
C3
330
17
100
AcDbEntity
  8
BANGUNAN
100
AcDbPolyline
 90
5
 70
1
 10
440856.08466423117
 20
9210347.195856534
 10
440848.02071308903
 20
9210357.364890838
 10
440840.1853067763
 20
9210351.151485339
 10
440848.24925791845
 20
9210340.982451033
 10
440856.08466423117
 20
9210347.195856534
  0
LWPOLYLINE
  5
C4
330
17
100
AcDbEntity
  8
BANGUNAN
100
AcDbPolyline
 90
5
 70
1
 10
441080.4792226702
 20
9210453.540114868
 10
441085.27222096734
 20
9210452.116328606
 10
441090.41052502766
 20
9210469.413786275
 10
441085.6175267305
 20
9210470.837572537
 10
441080.4792226702
 20
9210453.540114868
  0
LWPOLYLINE
  5
C5
330
17
100
AcDbEntity
  8
BANGUNAN
100
AcDbPolyline
 90
5
 70
1
 10
440985.3707565279
 20
9210317.990139639
 10
440987.62805581
 20
9210324.616194265
 10
440978.6006225599
 20
9210327.691571658
 10
440976.3433232778
 20
9210321.06551703
 10
440985.3707565279
 20
9210317.990139639
  0
LWPOLYLINE
  5
C6
330
17
100
AcDbEntity
  8
BANGUNAN
100
AcDbPolyline
 90
5
 70
1
 10
440979.3385128584
 20
9210478.556156652
 10
440987.52353409166
 20
9210475.909507694
 10
440989.3695426849
 20
9210481.618470144
 10
440981.18452145066
 20
9210484.2651191
 10
440979.3385128584
 20
9210478.556156652
  0
LWPOLYLINE
  5
C7
330
17
100
AcDbEntity
  8
BANGUNAN
100
AcDbPolyline
 90
5
 70
1
 10
440861.14599911124
 20
9210403.95148474
 10
440865.5801195018
 20
9210417.976798953
 10
440856.045283854
 20
9210420.991249006
 10
440851.6111634616
 20
9210406.965934793
 10
440861.14599911124
 20
9210403.95148474
  0
LWPOLYLINE
  5
C8
330
17
100
AcDbEntity
  8
BANGUNAN
100
AcDbPolyline
 90
5
 70
1
 10
440922.6180819571
 20
9210482.921098715
 10
440921.3066305872
 20
9210477.066178108
 10
440928.14963979507
 20
9210475.533403477
 10
440929.4610911645
 20
9210481.388324078
 10
440922.6180819571
 20
9210482.921098715
  0
LWPOLYLINE
  5
C9
330
17
100
AcDbEntity
  8
BANGUNAN
100
AcDbPolyline
 90
5
 70
1
 10
441072.5282543595
 20
9210251.521381414
 10
441074.61075394927
 20
9210258.204434264
 10
441066.99915890023
 20
9210260.576275986
 10
441064.9166593095
 20
9210253.893223131
 10
441072.5282543595
 20
9210251.521381414
  0
LWPOLYLINE
  5
CA
330
17
100
AcDbEntity
  8
BANGUNAN
100
AcDbPolyline
 90
5
 70
1
 10
441009.2090503182
 20
9210280.483129697
 10
441000.5637255255
 20
9210282.98480098
 10
440996.69285687804
 20
9210269.607777018
 10
441005.33818167076
 20
9210267.106105736
 10
441009.2090503182
 20
9210280.483129697
  0
LWPOLYLINE
  5
CB
330
17
100
AcDbEntity
  8
BANGUNAN
100
AcDbPolyline
 90
5
 70
1
 10
440876.46271151863
 20
9210470.0829596
 10
440872.6801992208
 20
9210458.118709907
 10
440880.3080677409
 20
9210455.707149865
 10
440884.09058003686
 20
9210467.671399556
 10
440876.46271151863
 20
9210470.0829596
  0
LWPOLYLINE
  5
CC
330
17
100
AcDbEntity
  8
BANGUNAN
100
AcDbPolyline
 90
5
 70
1
 10
440790.4822486378
 20
9210503.826898908
 10
440783.53842135705
 20
9210502.941877605
 10
440784.8713916354
 20
9210492.483467862
 10
440791.81521891616
 20
9210493.368489161
 10
440790.4822486378
 20
9210503.826898908
  0
LWPOLYLINE
  5
CD
330
17
100
AcDbEntity
  8
BANGUNAN
100
AcDbPolyline
 90
5
 70
1
 10
440785.0984233557
 20
9210480.903116174
 10
440778.4699240853
 20
9210482.12413078
 10
440777.7452885639
 20
9210478.19031541
 10
440784.3737878343
 20
9210476.969300803
 10
440785.0984233557
 20
9210480.903116174
  0
LWPOLYLINE
  5
CE
330
17
100
AcDbEntity
  8
BANGUNAN
100
AcDbPolyline
 90
5
 70
1
 10
440941.2151141148
 20
9210460.956695225
 10
440940.34081320046
 20
9210457.053414823
 10
440948.5375637375
 20
9210455.217413886
 10
440949.41186465137
 20
9210459.120694287
 10
440941.2151141148
 20
9210460.956695225
  0
LWPOLYLINE
  5
CF
330
17
100
AcDbEntity
  8
BANGUNAN
100
AcDbPolyline
 90
5
 70
1
 10
440874.4410483986
 20
9210531.529475402
 10
440860.55339383706
 20
9210529.759432802
 10
440863.0143995341
 20
9210510.450520683
 10
440876.90205409564
 20
9210512.220563283
 10
440874.4410483986
 20
9210531.529475402
  0
LWPOLYLINE
  5
D0
330
17
100
AcDbEntity
  8
BANGUNAN
100
AcDbPolyline
 90
5
 70
1
 10
440935.56328061083
 20
9210400.788412042
 10
440944.3925914359
 20
9210398.240341596
 10
440946.33352739224
 20
9210404.965872621
 10
440937.50421656715
 20
9210407.51394307
 10
440935.56328061083
 20
9210400.788412042
  0
LWPOLYLINE
  5
D1
330
17
100
AcDbEntity
  8
BANGUNAN
100
AcDbPolyline
 90
5
 70
1
 10
441020.85770135466
 20
9210497.759197785
 10
441029.98778551957
 20
9210494.043293452
 10
441031.87263430096
 20
9210498.674421292
 10
441022.74255013466
 20
9210502.390325623
 10
441020.85770135466
 20
9210497.759197785
  0
LWPOLYLINE
  5
D2
330
17
100
AcDbEntity
  8
BANGUNAN
100
AcDbPolyline
 90
5
 70
1
 10
440996.342451917
 20
9210306.271003794
 10
441000.24831094034
 20
9210317.736224849
 10
440990.7825186141
 20
9210320.960938111
 10
440986.87665959075
 20
9210309.495717056
 10
440996.342451917
 20
9210306.271003794
  0
LWPOLYLINE
  5
D3
330
17
100
AcDbEntity
  8
BANGUNAN
100
AcDbPolyline
 90
5
 70
1
 10
440911.5475013321
 20
9210539.271244954
 10
440920.98329886654
 20
9210536.727693062
 10
440922.54493995616
 20
9210542.52090263
 10
440913.10914242174
 20
9210545.064454522
 10
440911.5475013321
 20
9210539.271244954
  0
LWPOLYLINE
  5
D4
330
17
100
AcDbEntity
  8
BANGUNAN
100
AcDbPolyline
 90
5
 70
1
 10
441105.7569373371
 20
9210424.986549143
 10
441068.25101875095
 20
9210436.127886642
 10
441062.555873699
 20
9210416.955893453
 10
441100.0617922852
 20
9210405.814555952
 10
441105.7569373371
 20
9210424.986549143
  0
LWPOLYLINE
  5
D5
330
17
100
AcDbEntity
  8
BANGUNAN
100
AcDbPolyline
 90
5
 70
1
 10
440910.09998681396
 20
9210530.031915404
 10
440921.3717755452
 20
9210526.87557881
 10
440923.52896435745
 20
9210534.579249132
 10
440912.25717562623
 20
9210537.735585727
 10
440910.09998681396
 20
9210530.031915404
  0
LWPOLYLINE
  5
D6
330
17
100
AcDbEntity
  8
BANGUNAN
100
AcDbPolyline
 90
5
 70
1
 10
440933.22632640414
 20
9210453.8793108
 10
440931.51514057815
 20
9210446.239792181
 10
440936.3942410834
 20
9210445.146916041
 10
440938.1054269094
 20
9210452.786434658
 10
440933.22632640414
 20
9210453.8793108
  0
LWPOLYLINE
  5
D7
330
17
100
AcDbEntity
  8
BANGUNAN
100
AcDbPolyline
 90
5
 70
1
 10
440805.0767228287
 20
9210392.137119424
 10
440802.12934342027
 20
9210381.885512576
 10
440809.81788939796
 20
9210379.675023774
 10
440812.76526880637
 20
9210389.926630624
 10
440805.0767228287
 20
9210392.137119424
  0
LWPOLYLINE
  5
D8
330
17
100
AcDbEntity
  8
BANGUNAN
100
AcDbPolyline
 90
5
 70
1
 10
440778.6116185803
 20
9210413.104658864
 10
440770.92379662767
 20
9210417.784123965
 10
440761.4140237402
 20
9210402.1606629
 10
440769.10184569284
 20
9210397.4811978
 10
440778.6116185803
 20
9210413.104658864
  0
LWPOLYLINE
  5
D9
330
17
100
AcDbEntity
  8
BANGUNAN
100
AcDbPolyline
 90
5
 70
1
 10
441115.154320376
 20
9210334.391732167
 10
441135.8726519919
 20
9210330.228333151
 10
441139.8129299688
 20
9210349.83634706
 10
441119.0945983529
 20
9210353.999746077
 10
441115.154320376
 20
9210334.391732167
  0
LWPOLYLINE
  5
DA
330
17
100
AcDbEntity
  8
BANGUNAN
100
AcDbPolyline
 90
5
 70
1
 10
440945.2635796163
 20
9210444.28751652
 10
440961.1053295429
 20
9210439.71571068
 10
440964.43264832534
 20
9210451.24519244
 10
440948.59089839924
 20
9210455.816998282
 10
440945.2635796163
 20
9210444.28751652
  0
LWPOLYLINE
  5
DB
330
17
100
AcDbEntity
  8
BANGUNAN
100
AcDbPolyline
 90
5
 70
1
 10
440874.3611181695
 20
9210535.137365725
 10
440869.4012415409
 20
9210534.505207654
 10
440870.1247564815
 20
9210528.828550162
 10
440875.0846331101
 20
9210529.460708233
 10
440874.3611181695
 20
9210535.137365725
  0
LWPOLYLINE
  5
DC
330
17
100
AcDbEntity
  8
BANGUNAN
100
AcDbPolyline
 90
5
 70
1
 10
441090.21522803046
 20
9210364.073614798
 10
441098.68024861626
 20
9210391.777979542
 10
441079.55317822844
 20
9210397.622222718
 10
441071.08815764077
 20
9210369.917857977
 10
441090.21522803046
 20
9210364.073614798
  0
LWPOLYLINE
  5
DD
330
17
100
AcDbEntity
  8
BANGUNAN
100
AcDbPolyline
 90
5
 70
1
 10
440916.03930664435
 20
9210546.63283497
 10
440917.0715231169
 20
9210551.586765673
 10
440913.1556247305
 20
9210552.402694494
 10
440912.1234082598
 20
9210547.448763784
 10
440916.03930664435
 20
9210546.63283497
  0
LWPOLYLINE
  5
DE
330
17
100
AcDbEntity
  8
BANGUNAN
100
AcDbPolyline
 90
5
 70
1
 10
440866.276876946
 20
9210342.357528314
 10
440869.33579438087
 20
9210352.19115921
 10
440861.6968444539
 20
9210354.567383956
 10
440858.6379270209
 20
9210344.733753059
 10
440866.276876946
 20
9210342.357528314
  0
LWPOLYLINE
  5
DF
330
17
100
AcDbEntity
  8
BANGUNAN
100
AcDbPolyline
 90
5
 70
1
 10
441020.88733069226
 20
9210327.032865167
 10
441031.8183167991
 20
9210323.722068802
 10
441034.71708868304
 20
9210333.29270731
 10
441023.78610257804
 20
9210336.60350368
 10
441020.88733069226
 20
9210327.032865167
  0
LWPOLYLINE
  5
E0
330
17
100
AcDbEntity
  8
BANGUNAN
100
AcDbPolyline
 90
5
 70
1
 10
440829.2710487358
 20
9210386.6607832
 10
440821.8149621356
 20
9210396.063270774
 10
440811.8315905472
 20
9210388.146548465
 10
440819.2876771474
 20
9210378.744060893
 10
440829.2710487358
 20
9210386.6607832
  0
LWPOLYLINE
  5
E1
330
17
100
AcDbEntity
  8
BANGUNAN
100
AcDbPolyline
 90
5
 70
1
 10
441031.4979818985
 20
9210466.083721323
 10
441023.02036126936
 20
9210468.602044731
 10
441021.5965750073
 20
9210463.809046434
 10
441030.07419563644
 20
9210461.290723028
 10
441031.4979818985
 20
9210466.083721323
  0
LWPOLYLINE
  5
E2
330
17
100
AcDbEntity
  8
BANGUNAN
100
AcDbPolyline
 90
5
 70
1
 10
440837.1067468934
 20
9210462.90453808
 10
440834.092296842
 20
9210453.36970243
 10
440850.58874356234
 20
9210448.154330447
 10
440853.6031936151
 20
9210457.689166099
 10
440837.1067468934
 20
9210462.90453808
  0
LWPOLYLINE
  5
E3
330
17
100
AcDbEntity
  8
BANGUNAN
100
AcDbPolyline
 90
5
 70
1
 10
441188.46776204556
 20
9210310.32788061
 10
441192.38936482556
 20
9210309.539825015
 10
441194.0530858133
 20
9210317.819003394
 10
441190.13148303144
 20
9210318.60705899
 10
441188.46776204556
 20
9210310.32788061
  0
LWPOLYLINE
  5
E4
330
17
100
AcDbEntity
  8
BANGUNAN
100
AcDbPolyline
 90
5
 70
1
 10
441001.7722438993
 20
9210377.019061696
 10
441031.1574360379
 20
9210368.11882283
 10
441035.2157166791
 20
9210381.517716749
 10
441005.8305245405
 20
9210390.417955615
 10
441001.7722438993
 20
9210377.019061696
  0
LWPOLYLINE
  5
E5
330
17
100
AcDbEntity
  8
BANGUNAN
100
AcDbPolyline
 90
5
 70
1
 10
441063.81648827065
 20
9210505.891771335
 10
441082.3409996303
 20
9210498.352376211
 10
441093.8025909541
 20
9210526.513836801
 10
441075.2780795926
 20
9210534.053231925
 10
441063.81648827065
 20
9210505.891771335
  0
LWPOLYLINE
  5
E6
330
17
100
AcDbEntity
  8
BANGUNAN
100
AcDbPolyline
 90
5
 70
1
 10
440836.66586761456
 20
9210434.559711192
 10
440826.41543834563
 20
9210440.798997989
 10
440814.67773800995
 20
9210421.515308846
 10
440824.9281672798
 20
9210415.276022047
 10
440836.66586761456
 20
9210434.559711192
  0
LWPOLYLINE
  5
E7
330
17
100
AcDbEntity
  8
BANGUNAN
100
AcDbPolyline
 90
5
 70
1
 10
440812.8552820096
 20
9210405.94022349
 10
440802.6048527397
 20
9210412.179510288
 10
440793.15919967834
 20
9210396.661390707
 10
440803.4096289482
 20
9210390.422103908
 10
440812.8552820096
 20
9210405.94022349
  0
LWPOLYLINE
  5
E8
330
17
100
AcDbEntity
  8
BANGUNAN
100
AcDbPolyline
 90
5
 70
1
 10
440998.26080530323
 20
9210361.578576056
 10
441005.91731611453
 20
9210359.259558547
 10
441009.8763205167
 20
9210372.330680214
 10
441002.21980970725
 20
9210374.649697723
 10
440998.26080530323
 20
9210361.578576056
  0
LWPOLYLINE
  5
E9
330
17
100
AcDbEntity
  8
BANGUNAN
100
AcDbPolyline
 90
5
 70
1
 10
440811.71776990034
 20
9210415.653666046
 10
440804.2538282303
 20
9210420.196858484
 10
440800.6142442636
 20
9210414.21744141
 10
440808.07818593364
 20
9210409.674248971
 10
440811.71776990034
 20
9210415.653666046
  0
LWPOLYLINE
  5
EA
330
17
100
AcDbEntity
  8
BANGUNAN
100
AcDbPolyline
 90
5
 70
1
 10
440934.4592944775
 20
9210499.889396358
 10
440926.5234918706
 20
9210498.877943443
 10
440927.70296132006
 20
9210489.623892551
 10
440935.6387639269
 20
9210490.635345465
 10
440934.4592944775
 20
9210499.889396358
  0
LWPOLYLINE
  5
EB
330
17
100
AcDbEntity
  8
BANGUNAN
100
AcDbPolyline
 90
5
 70
1
 10
440966.6947833104
 20
9210437.431673545
 10
440972.27977773594
 20
9210435.81988758
 10
440973.3888839958
 20
9210439.663048167
 10
440967.8038895703
 20
9210441.27483413
 10
440966.6947833104
 20
9210437.431673545
  0
LWPOLYLINE
  5
EC
330
17
100
AcDbEntity
  8
BANGUNAN
100
AcDbPolyline
 90
5
 70
1
 10
441060.4869173281
 20
9210516.972294532
 10
441066.0442707371
 20
9210514.710475996
 10
441069.3451059628
 20
9210522.820723383
 10
441063.7877525529
 20
9210525.082541918
 10
441060.4869173281
 20
9210516.972294532
  0
LWPOLYLINE
  5
ED
330
17
100
AcDbEntity
  8
BANGUNAN
100
AcDbPolyline
 90
5
 70
1
 10
441082.9526044261
 20
9210263.519909695
 10
441075.96798535995
 20
9210241.105221793
 10
441085.51520372555
 20
9210238.13022238
 10
441092.4998227898
 20
9210260.54491028
 10
441082.9526044261
 20
9210263.519909695
  0
LWPOLYLINE
  5
EE
330
17
100
AcDbEntity
  8
BANGUNAN
100
AcDbPolyline
 90
5
 70
1
 10
440844.1571950847
 20
9210386.666333709
 10
440836.3374310769
 20
9210396.527436167
 10
440826.93494350277
 20
9210389.071349569
 10
440834.75470750965
 20
9210379.21024711
 10
440844.1571950847
 20
9210386.666333709
  0
LWPOLYLINE
  5
EF
330
17
100
AcDbEntity
  8
BANGUNAN
100
AcDbPolyline
 90
5
 70
1
 10
440801.4169347938
 20
9210376.87844932
 10
440788.4962443821
 20
9210380.475877339
 10
440786.886914751
 20
9210374.695733903
 10
440799.8076051646
 20
9210371.098305888
 10
440801.4169347938
 20
9210376.87844932
  0
LWPOLYLINE
  5
F0
330
17
100
AcDbEntity
  8
BANGUNAN
100
AcDbPolyline
 90
5
 70
1
 10
440866.44958974374
 20
9210338.20976299
 10
440875.88585834205
 20
9210335.279158687
 10
440877.0722332592
 20
9210339.099173682
 10
440867.63596466044
 20
9210342.029777985
 10
440866.44958974374
 20
9210338.20976299
  0
LWPOLYLINE
  5
F1
330
17
100
AcDbEntity
  8
BANGUNAN
100
AcDbPolyline
 90
5
 70
1
 10
440877.8758338224
 20
9210404.148276314
 10
440890.5494016167
 20
9210400.135996155
 10
440893.5676238178
 20
9210409.669638416
 10
440880.89405602217
 20
9210413.681918573
 10
440877.8758338224
 20
9210404.148276314
  0
LWPOLYLINE
  5
F2
330
17
100
AcDbEntity
  8
BANGUNAN
100
AcDbPolyline
 90
5
 70
1
 10
440677.39205868077
 20
9210426.134263331
 10
440625.30087225605
 20
9210440.003061809
 10
440622.72808816284
 20
9210430.339688588
 10
440674.819274588
 20
9210416.47089011
 10
440677.39205868077
 20
9210426.134263331
  0
LWPOLYLINE
  5
F3
330
17
100
AcDbEntity
  8
BANGUNAN
100
AcDbPolyline
 90
5
 70
1
 10
440819.3496655151
 20
9210560.85196903
 10
440815.9591824822
 20
9210546.616891114
 10
440824.7142750323
 20
9210544.531620285
 10
440828.1047580652
 20
9210558.766698198
 10
440819.3496655151
 20
9210560.85196903
  0
LWPOLYLINE
  5
F4
330
17
100
AcDbEntity
  8
BANGUNAN
100
AcDbPolyline
 90
5
 70
1
 10
441095.6423365697
 20
9210294.572276238
 10
441103.48554213345
 20
9210292.996165046
 10
441107.3926311787
 20
9210312.439020801
 10
441099.549425615
 20
9210314.015131991
 10
441095.6423365697
 20
9210294.572276238
  0
LWPOLYLINE
  5
F5
330
17
100
AcDbEntity
  8
BANGUNAN
100
AcDbPolyline
 90
5
 70
1
 10
441006.86953947693
 20
9210261.69866048
 10
441014.55427262746
 20
9210259.474952672
 10
441017.8325152863
 20
9210270.803968096
 10
441010.14778213575
 20
9210273.027675902
 10
441006.86953947693
 20
9210261.69866048
  0
LWPOLYLINE
  5
F6
330
17
100
AcDbEntity
  8
BANGUNAN
100
AcDbPolyline
 90
5
 70
1
 10
440929.02931254613
 20
9210540.970328767
 10
440939.98900301266
 20
9210539.191494768
 10
440940.629844686
 20
9210543.139826305
 10
440929.6701542195
 20
9210544.918660307
 10
440929.02931254613
 20
9210540.970328767
  0
LWPOLYLINE
  5
F7
330
17
100
AcDbEntity
  8
BANGUNAN
100
AcDbPolyline
 90
5
 70
1
 10
441060.38440645766
 20
9210366.05077866
 10
441064.89743316034
 20
9210364.683865167
 10
441066.0569419144
 20
9210368.51212057
 10
441061.5439152126
 20
9210369.879034065
 10
441060.38440645766
 20
9210366.05077866
  0
LWPOLYLINE
  5
F8
330
17
100
AcDbEntity
  8
BANGUNAN
100
AcDbPolyline
 90
5
 70
1
 10
440781.1427654261
 20
9210446.1594841
 10
440772.6007410344
 20
9210451.358889762
 10
440766.90178533737
 20
9210441.996162232
 10
440775.44380973
 20
9210436.796756566
 10
440781.1427654261
 20
9210446.1594841
  0
LWPOLYLINE
  5
F9
330
17
100
AcDbEntity
  8
BANGUNAN
100
AcDbPolyline
 90
5
 70
1
 10
440829.35507211275
 20
9210400.086769499
 10
440818.8724963963
 20
9210406.467360452
 10
440814.193031298
 20
9210398.779538497
 10
440824.6756070135
 20
9210392.398947544
 10
440829.35507211275
 20
9210400.086769499
  0
LWPOLYLINE
  5
FA
330
17
100
AcDbEntity
  8
BANGUNAN
100
AcDbPolyline
 90
5
 70
1
 10
441132.0009736642
 20
9210403.935285192
 10
441133.7542466172
 20
9210409.673406305
 10
441124.92842703406
 20
9210412.370120171
 10
441123.17515408015
 20
9210406.631999055
 10
441132.0009736642
 20
9210403.935285192
  0
LWPOLYLINE
  5
FB
330
17
100
AcDbEntity
  8
BANGUNAN
100
AcDbPolyline
 90
5
 70
1
 10
440860.2585050026
 20
9210488.714388957
 10
440852.7780302891
 20
9210487.760969585
 10
440853.66305158846
 20
9210480.817142304
 10
440861.1435263024
 20
9210481.770561676
 10
440860.2585050026
 20
9210488.714388957
  0
LWPOLYLINE
  5
FC
330
17
100
AcDbEntity
  8
BANGUNAN
100
AcDbPolyline
 90
5
 70
1
 10
441032.52539817616
 20
9210390.795906756
 10
441036.0842030151
 20
9210399.388480274
 10
441029.6169516519
 20
9210402.067035817
 10
441026.05814681295
 20
9210393.474462299
 10
441032.52539817616
 20
9210390.795906756
  0
LWPOLYLINE
  5
FD
330
17
100
AcDbEntity
  8
BANGUNAN
100
AcDbPolyline
 90
5
 70
1
 10
440761.42093776166
 20
9210382.324178351
 10
440771.5867542764
 20
9210378.572176827
 10
440773.6642528726
 20
9210384.201031025
 10
440763.4984363569
 20
9210387.95303255
 10
440761.42093776166
 20
9210382.324178351
  0
LWPOLYLINE
  5
FE
330
17
100
AcDbEntity
  8
BANGUNAN
100
AcDbPolyline
 90
5
 70
1
 10
440950.22310758196
 20
9210517.538620718
 10
440942.7820581738
 20
9210491.291710911
 10
440958.17540495284
 20
9210486.927667493
 10
440965.616454361
 20
9210513.174577303
 10
440950.22310758196
 20
9210517.538620718
  0
LWPOLYLINE
  5
FF
330
17
100
AcDbEntity
  8
BANGUNAN
100
AcDbPolyline
 90
5
 70
1
 10
440915.37669293396
 20
9210478.229669126
 10
440913.6280911076
 20
9210470.423108319
 10
440926.3079961827
 20
9210467.582919696
 10
440928.05659800954
 20
9210475.389480505
 10
440915.37669293396
 20
9210478.229669126
  0
LWPOLYLINE
  5
100
330
17
100
AcDbEntity
  8
BANGUNAN
100
AcDbPolyline
 90
5
 70
1
 10
440781.00423961715
 20
9210482.143662356
 10
440766.0937388581
 20
9210480.243253514
 10
440767.3580550003
 20
9210470.323500255
 10
440782.26855575945
 20
9210472.223909097
 10
440781.00423961715
 20
9210482.143662356
  0
LWPOLYLINE
  5
101
330
17
100
AcDbEntity
  8
BANGUNAN
100
AcDbPolyline
 90
5
 70
1
 10
440931.9021984022
 20
9210445.972584158
 10
440933.9071386717
 20
9210454.923557367
 10
440928.0522180665
 20
9210456.235008739
 10
440926.0472777989
 20
9210447.28403553
 10
440931.9021984022
 20
9210445.972584158
  0
LWPOLYLINE
  5
102
330
17
100
AcDbEntity
  8
BANGUNAN
100
AcDbPolyline
 90
5
 70
1
 10
440947.3300802633
 20
9210358.643947521
 10
440937.46251839306
 20
9210362.261641938
 10
440934.36453725304
 20
9210353.81164118
 10
440944.23209912237
 20
9210350.193946764
 10
440947.3300802633
 20
9210358.643947521
  0
LWPOLYLINE
  5
103
330
17
100
AcDbEntity
  8
BANGUNAN
100
AcDbPolyline
 90
5
 70
1
 10
441139.02094696043
 20
9210518.617495073
 10
441124.70141587825
 20
9210523.091670185
 10
441120.5261426917
 20
9210509.728770282
 10
441134.8456737739
 20
9210505.25459517
 10
441139.02094696043
 20
9210518.617495073
  0
LWPOLYLINE
  5
104
330
17
100
AcDbEntity
  8
BANGUNAN
100
AcDbPolyline
 90
5
 70
1
 10
440792.3194033131
 20
9210546.614523564
 10
440785.3755760323
 20
9210545.729502264
 10
440786.27650385164
 20
9210538.660873337
 10
440793.2203311324
 20
9210539.545894636
 10
440792.3194033131
 20
9210546.614523564
  0
LWPOLYLINE
  5
105
330
17
100
AcDbEntity
  8
BANGUNAN
100
AcDbPolyline
 90
5
 70
1
 10
440984.68756977376
 20
9210325.388988277
 10
441003.8288467983
 20
9210319.591444507
 10
441012.26439407
 20
9210347.442402344
 10
440993.12311704364
 20
9210353.239946116
 10
440984.68756977376
 20
9210325.388988277
  0
LWPOLYLINE
  5
106
330
17
100
AcDbEntity
  8
BANGUNAN
100
AcDbPolyline
 90
5
 70
1
 10
441052.45247811684
 20
9210454.439709954
 10
441059.8655747897
 20
9210452.237609189
 10
441061.57411830453
 20
9210457.989207145
 10
441054.1610216312
 20
9210460.19130791
 10
441052.45247811684
 20
9210454.439709954
  0
LWPOLYLINE
  5
107
330
17
100
AcDbEntity
  8
BANGUNAN
100
AcDbPolyline
 90
5
 70
1
 10
440998.4641512707
 20
9210370.75803774
 10
441001.0363276345
 20
9210379.382648384
 10
440986.94868109236
 20
9210383.584103145
 10
440984.37650472904
 20
9210374.9594925
 10
440998.4641512707
 20
9210370.75803774
  0
LWPOLYLINE
  5
108
330
17
100
AcDbEntity
  8
BANGUNAN
100
AcDbPolyline
 90
5
 70
1
 10
440935.6610020641
 20
9210519.199314758
 10
440940.53027411364
 20
9210538.439860445
 10
440926.95815086365
 20
9210541.874605047
 10
440922.08887881413
 20
9210522.63405936
 10
440935.6610020641
 20
9210519.199314758
  0
LWPOLYLINE
  5
109
330
17
100
AcDbEntity
  8
BANGUNAN
100
AcDbPolyline
 90
5
 70
1
 10
440947.3257833449
 20
9210525.49298897
 10
440945.9620197769
 20
9210520.682568107
 10
440951.2205745373
 20
9210519.191757718
 10
440952.5843381048
 20
9210524.002178585
 10
440947.3257833449
 20
9210525.49298897
  0
LWPOLYLINE
  5
10A
330
17
100
AcDbEntity
  8
BANGUNAN
100
AcDbPolyline
 90
5
 70
1
 10
440828.82022923604
 20
9210358.472142637
 10
440822.6068237368
 20
9210366.307548944
 10
440813.71803419944
 20
9210359.25882019
 10
440819.93143970054
 20
9210351.423413876
 10
440828.82022923604
 20
9210358.472142637
  0
LWPOLYLINE
  5
10B
330
17
100
AcDbEntity
  8
BANGUNAN
100
AcDbPolyline
 90
5
 70
1
 10
440862.27783918474
 20
9210343.261774074
 10
440857.30711478554
 20
9210349.530099124
 10
440850.9609780628
 20
9210344.497670777
 10
440855.9317024639
 20
9210338.229345728
 10
440862.27783918474
 20
9210343.261774074
  0
LWPOLYLINE
  5
10C
330
17
100
AcDbEntity
  8
BANGUNAN
100
AcDbPolyline
 90
5
 70
1
 10
441097.12154481513
 20
9210408.691339105
 10
441098.2903934517
 20
9210412.516753184
 10
441093.8828110676
 20
9210413.863482334
 10
441092.713962432
 20
9210410.038068257
 10
441097.12154481513
 20
9210408.691339105
  0
LWPOLYLINE
  5
10D
330
17
100
AcDbEntity
  8
BANGUNAN
100
AcDbPolyline
 90
5
 70
1
 10
441063.4969060179
 20
9210338.084273081
 10
441076.89579993486
 20
9210334.025992442
 10
441081.2576862704
 20
9210348.427276496
 10
441067.8587923534
 20
9210352.485557139
 10
441063.4969060179
 20
9210338.084273081
  0
LWPOLYLINE
  5
10E
330
17
100
AcDbEntity
  8
BANGUNAN
100
AcDbPolyline
 90
5
 70
1
 10
441035.1082128412
 20
9210432.411352506
 10
441045.1901063798
 20
9210429.416471086
 10
441046.6138926428
 20
9210434.209469384
 10
441036.5319991037
 20
9210437.2043508
 10
441035.1082128412
 20
9210432.411352506
  0
LWPOLYLINE
  5
10F
330
17
100
AcDbEntity
  8
BANGUNAN
100
AcDbPolyline
 90
5
 70
1
 10
440825.3104101168
 20
9210457.940192627
 10
440812.1262086453
 20
9210462.577768568
 10
440809.13980327174
 20
9210454.087693015
 10
440822.3240047428
 20
9210449.450117074
 10
440825.3104101168
 20
9210457.940192627
  0
LWPOLYLINE
  5
110
330
17
100
AcDbEntity
  8
BANGUNAN
100
AcDbPolyline
 90
5
 70
1
 10
440867.78341797646
 20
9210402.786991071
 10
440874.1843961999
 20
9210400.760527937
 10
440875.3916850798
 20
9210404.57398484
 10
440868.99070685636
 20
9210406.600447973
 10
440867.78341797646
 20
9210402.786991071
  0
LWPOLYLINE
  5
111
330
17
100
AcDbEntity
  8
BANGUNAN
100
AcDbPolyline
 90
5
 70
1
 10
440988.8601576006
 20
9210551.592894662
 10
440985.1552553307
 20
9210553.100773688
 10
440980.23379814904
 20
9210541.008611389
 10
440983.93870041985
 20
9210539.500732362
 10
440988.8601576006
 20
9210551.592894662
  0
LWPOLYLINE
  5
112
330
17
100
AcDbEntity
  8
BANGUNAN
100
AcDbPolyline
 90
5
 70
1
 10
440981.87825225666
 20
9210394.143103857
 10
440985.5329928268
 20
9210406.397595763
 10
440976.90838218294
 20
9210408.969772127
 10
440973.2536416128
 20
9210396.71528022
 10
440981.87825225666
 20
9210394.143103857
  0
LWPOLYLINE
  5
113
330
17
100
AcDbEntity
  8
BANGUNAN
100
AcDbPolyline
 90
5
 70
1
 10
441060.8475938123
 20
9210291.944484605
 10
441058.51832744665
 20
9210284.469520237
 10
441066.1561021358
 20
9210282.089520704
 10
441068.48536850326
 20
9210289.564485073
 10
441060.8475938123
 20
9210291.944484605
  0
LWPOLYLINE
  5
114
330
17
100
AcDbEntity
  8
BANGUNAN
100
AcDbPolyline
 90
5
 70
1
 10
441105.14199229144
 20
9210300.190609327
 10
441114.9459992461
 20
9210298.220470339
 10
441117.91844148375
 20
9210313.012241142
 10
441108.1144345291
 20
9210314.982380131
 10
441105.14199229144
 20
9210300.190609327
  0
LWPOLYLINE
  5
115
330
17
100
AcDbEntity
  8
BANGUNAN
100
AcDbPolyline
 90
5
 70
1
 10
441088.0196004538
 20
9210319.492934585
 10
441080.684407088
 20
9210295.95320129
 10
441094.05051279534
 20
9210291.788202109
 10
441101.38570616115
 20
9210315.327935405
 10
441088.0196004538
 20
9210319.492934585
  0
LWPOLYLINE
  5
116
330
17
100
AcDbEntity
  8
BANGUNAN
100
AcDbPolyline
 90
5
 70
1
 10
440822.2437111456
 20
9210345.97870804
 10
440817.27298674546
 20
9210352.24703309
 10
440810.6834982615
 20
9210347.021629024
 10
440815.65422266163
 20
9210340.753303975
 10
440822.2437111456
 20
9210345.97870804
  0
LWPOLYLINE
  5
117
330
17
100
AcDbEntity
  8
BANGUNAN
100
AcDbPolyline
 90
5
 70
1
 10
441054.54782974813
 20
9210436.320770865
 10
441062.2166270232
 20
9210434.042712845
 10
441065.24356492516
 20
9210444.232520534
 10
441057.5747676501
 20
9210446.510578556
 10
441054.54782974813
 20
9210436.320770865
  0
LWPOLYLINE
  5
118
330
17
100
AcDbEntity
  8
BANGUNAN
100
AcDbPolyline
 90
5
 70
1
 10
441119.48053053766
 20
9210511.373412985
 10
441122.3306453051
 20
9210517.563676406
 10
441118.69726167805
 20
9210519.236555189
 10
441115.84714691155
 20
9210513.04629177
 10
441119.48053053766
 20
9210511.373412985
  0
LWPOLYLINE
  5
119
330
17
100
AcDbEntity
  8
BANGUNAN
100
AcDbPolyline
 90
5
 70
1
 10
441044.744508239
 20
9210406.465615598
 10
441051.52130835596
 20
9210404.943962786
 10
441052.3976428411
 20
9210408.846787129
 10
441045.62084272504
 20
9210410.368439943
 10
441044.744508239
 20
9210406.465615598
  0
LWPOLYLINE
  5
11A
330
17
100
AcDbEntity
  8
BANGUNAN
100
AcDbPolyline
 90
5
 70
1
 10
440827.1843995899
 20
9210537.989988852
 10
440820.01841128676
 20
9210537.076652154
 10
440820.77700097195
 20
9210531.124800202
 10
440827.9429892751
 20
9210532.038136898
 10
440827.1843995899
 20
9210537.989988852
  0
LWPOLYLINE
  5
11B
330
17
100
AcDbEntity
  8
BANGUNAN
100
AcDbPolyline
 90
5
 70
1
 10
440725.2913874758
 20
9210507.837272307
 10
440713.06531696557
 20
9210506.279005896
 10
440714.07676987955
 20
9210498.343203291
 10
440726.3028403898
 20
9210499.901469702
 10
440725.2913874758
 20
9210507.837272307
  0
LWPOLYLINE
  5
11C
330
17
100
AcDbEntity
  8
BANGUNAN
100
AcDbPolyline
 90
5
 70
1
 10
441004.5830039345
 20
9210393.924591737
 10
441008.58416716475
 20
9210407.340652738
 10
440994.4142112164
 20
9210411.566655193
 10
440990.41304798657
 20
9210398.150594195
 10
441004.5830039345
 20
9210393.924591737
  0
LWPOLYLINE
  5
11D
330
17
100
AcDbEntity
  8
BANGUNAN
100
AcDbPolyline
 90
5
 70
1
 10
440895.02110125916
 20
9210457.838142898
 10
440893.9282251168
 20
9210452.959042393
 10
440902.48482561344
 20
9210451.042438192
 10
440903.57770175487
 20
9210455.921538696
 10
440895.02110125916
 20
9210457.838142898
  0
LWPOLYLINE
  5
11E
330
17
100
AcDbEntity
  8
BANGUNAN
100
AcDbPolyline
 90
5
 70
1
 10
440828.26685854886
 20
9210405.636157393
 10
440836.3936655987
 20
9210400.689488467
 10
440840.03324956447
 20
9210406.668905545
 10
440831.9064425146
 20
9210411.615574466
 10
440828.26685854886
 20
9210405.636157393
  0
LWPOLYLINE
  5
11F
330
17
100
AcDbEntity
  8
BANGUNAN
100
AcDbPolyline
 90
5
 70
1
 10
441039.04708017595
 20
9210309.218464049
 10
441039.7356793862
 20
9210315.914430877
 10
441034.76191059686
 20
9210316.425922845
 10
441034.07331138663
 20
9210309.729956018
 10
441039.04708017595
 20
9210309.218464049
  0
LWPOLYLINE
  5
120
330
17
100
AcDbEntity
  8
BANGUNAN
100
AcDbPolyline
 90
5
 70
1
 10
440830.14198762877
 20
9210447.6141234
 10
440828.0318725924
 20
9210440.939738447
 10
440840.8236608114
 20
9210436.895598823
 10
440842.9337758478
 20
9210443.569983777
 10
440830.14198762877
 20
9210447.6141234
  0
LWPOLYLINE
  5
121
330
17
100
AcDbEntity
  8
BANGUNAN
100
AcDbPolyline
 90
5
 70
1
 10
441027.0590188402
 20
9210388.166764457
 10
441021.13631231466
 20
9210387.982886652
 10
441021.26043749496
 20
9210383.984813
 10
441027.18314402044
 20
9210384.168690806
 10
441027.0590188402
 20
9210388.166764457
  0
LWPOLYLINE
  5
122
330
17
100
AcDbEntity
  8
BANGUNAN
100
AcDbPolyline
 90
5
 70
1
 10
440965.46208376717
 20
9210408.203129806
 10
440957.35087531665
 20
9210410.543961491
 10
440955.132662795
 20
9210402.857640317
 10
440963.24387124507
 20
9210400.51680863
 10
440965.46208376717
 20
9210408.203129806
  0
LWPOLYLINE
  5
123
330
17
100
AcDbEntity
  8
BANGUNAN
100
AcDbPolyline
 90
5
 70
1
 10
441096.9027522821
 20
9210448.440867476
 10
441105.5301492177
 20
9210445.878052203
 10
441108.3503901735
 20
9210455.372040484
 10
441099.7229932379
 20
9210457.934855761
 10
441096.9027522821
 20
9210448.440867476
  0
LWPOLYLINE
  5
124
330
17
100
AcDbEntity
  8
BANGUNAN
100
AcDbPolyline
 90
5
 70
1
 10
440974.2146745161
 20
9210308.077176185
 10
440971.6349039073
 20
9210300.504542325
 10
440982.825519999
 20
9210296.692233026
 10
440985.40529060736
 20
9210304.264866887
 10
440974.2146745161
 20
9210308.077176185
  0
LWPOLYLINE
  5
125
330
17
100
AcDbEntity
  8
BANGUNAN
100
AcDbPolyline
 90
5
 70
1
 10
440900.78749134624
 20
9210378.23984503
 10
440908.4878248866
 20
9210375.802023577
 10
440909.9969359869
 20
9210380.568844706
 10
440902.296602448
 20
9210383.006666161
 10
440900.78749134624
 20
9210378.23984503
  0
LWPOLYLINE
  5
126
330
17
100
AcDbEntity
  8
BANGUNAN
100
AcDbPolyline
 90
5
 70
1
 10
440941.88748800755
 20
9210468.168942356
 10
440947.57638766617
 20
9210466.26200223
 10
440950.0862627197
 20
9210473.749614004
 10
440944.3973630592
 20
9210475.656554129
 10
440941.88748800755
 20
9210468.168942356
  0
LWPOLYLINE
  5
127
330
17
100
AcDbEntity
  8
BANGUNAN
100
AcDbPolyline
 90
5
 70
1
 10
440949.38769143727
 20
9210549.502149772
 10
440938.8667581603
 20
9210558.738489036
 10
440929.5374797769
 20
9210548.111690624
 10
440940.058413052
 20
9210538.875351362
 10
440949.38769143727
 20
9210549.502149772
  0
LWPOLYLINE
  5
128
330
17
100
AcDbEntity
  8
BANGUNAN
100
AcDbPolyline
 90
5
 70
1
 10
441040.94698650436
 20
9210464.753639478
 10
441056.87287616543
 20
9210460.02276717
 10
441058.8661769335
 20
9210466.732964784
 10
441042.94028727245
 20
9210471.463837093
 10
441040.94698650436
 20
9210464.753639478
  0
LWPOLYLINE
  5
129
330
17
100
AcDbEntity
  8
BANGUNAN
100
AcDbPolyline
 90
5
 70
1
 10
440779.9883111729
 20
9210366.943800652
 10
440791.42964251665
 20
9210362.538908709
 10
440792.86680360744
 20
9210366.271812137
 10
440781.4254722628
 20
9210370.676704079
 10
440779.9883111729
 20
9210366.943800652
  0
LWPOLYLINE
  5
12A
330
17
100
AcDbEntity
  8
BANGUNAN
100
AcDbPolyline
 90
5
 70
1
 10
440891.25186750526
 20
9210449.571394166
 10
440889.9404161363
 20
9210443.716473559
 10
440896.8746944382
 20
9210442.163255438
 10
440898.1861458067
 20
9210448.018176045
 10
440891.25186750526
 20
9210449.571394166
  0
LWPOLYLINE
  5
12B
330
17
100
AcDbEntity
  8
BANGUNAN
100
AcDbPolyline
 90
5
 70
1
 10
441186.15366496146
 20
9210334.749672625
 10
441191.72002498247
 20
9210345.850082707
 10
441186.3565877406
 20
9210348.539607007
 10
441180.7902277196
 20
9210337.439196926
 10
441186.15366496146
 20
9210334.749672625
  0
LWPOLYLINE
  5
12C
330
17
100
AcDbEntity
  8
BANGUNAN
100
AcDbPolyline
 90
5
 70
1
 10
440912.86565943016
 20
9210521.117399985
 10
440905.81245050696
 20
9210520.218437515
 10
440906.69747180655
 20
9210513.274610236
 10
440913.75068072975
 20
9210514.173572706
 10
440912.86565943016
 20
9210521.117399985
  0
LWPOLYLINE
  5
12D
330
17
100
AcDbEntity
  8
BANGUNAN
100
AcDbPolyline
 90
5
 70
1
 10
441003.7415068671
 20
9210469.700712094
 10
441009.49310482293
 20
9210467.992168576
 10
441014.4643759858
 20
9210484.727330893
 10
441008.7127780281
 20
9210486.435874406
 10
441003.7415068671
 20
9210469.700712094
  0
LWPOLYLINE
  5
12E
330
17
100
AcDbEntity
  8
BANGUNAN
100
AcDbPolyline
 90
5
 70
1
 10
440824.348554533
 20
9210350.851729305
 10
440819.8364446629
 20
9210356.54171914
 10
440814.35166024603
 20
9210352.192335289
 10
440818.8637701152
 20
9210346.502345454
 10
440824.348554533
 20
9210350.851729305
  0
LWPOLYLINE
  5
12F
330
17
100
AcDbEntity
  8
BANGUNAN
100
AcDbPolyline
 90
5
 70
1
 10
440873.45544414036
 20
9210352.889343636
 10
440877.2400585562
 20
9210364.844421687
 10
440868.6597388871
 20
9210367.560690152
 10
440864.87512447126
 20
9210355.605612103
 10
440873.45544414036
 20
9210352.889343636
  0
LWPOLYLINE
  5
130
330
17
100
AcDbEntity
  8
BANGUNAN
100
AcDbPolyline
 90
5
 70
1
 10
441011.70195619436
 20
9210473.591455111
 10
441031.7853869647
 20
9210467.625562558
 10
441036.34150300594
 20
9210482.96315711
 10
441016.2580722356
 20
9210488.929049661
 10
441011.70195619436
 20
9210473.591455111
  0
LWPOLYLINE
  5
131
330
17
100
AcDbEntity
  8
BANGUNAN
100
AcDbPolyline
 90
5
 70
1
 10
440695.47364799865
 20
9210448.302192062
 10
440706.5000096271
 20
9210453.02545512
 10
440702.5624510152
 20
9210462.21760569
 10
440691.53608938586
 20
9210457.494342634
 10
440695.47364799865
 20
9210448.302192062
  0
LWPOLYLINE
  5
132
330
17
100
AcDbEntity
  8
BANGUNAN
100
AcDbPolyline
 90
5
 70
1
 10
440860.4128806931
 20
9210388.305488769
 10
440867.0060080979
 20
9210386.218193805
 10
440868.5151191978
 20
9210390.985014932
 10
440861.9219917925
 20
9210393.0723099
 10
440860.4128806931
 20
9210388.305488769
  0
LWPOLYLINE
  5
133
330
17
100
AcDbEntity
  8
BANGUNAN
100
AcDbPolyline
 90
5
 70
1
 10
441132.8665701207
 20
9210321.461830867
 10
441139.729374988
 20
9210320.082733575
 10
441141.1084254626
 20
9210326.945305467
 10
441134.2456205953
 20
9210328.324402759
 10
441132.8665701207
 20
9210321.461830867
  0
LWPOLYLINE
  5
134
330
17
100
AcDbEntity
  8
BANGUNAN
100
AcDbPolyline
 90
5
 70
1
 10
441117.1211915687
 20
9210479.551974446
 10
441102.2438554219
 20
9210485.606985206
 10
441097.7202183469
 20
9210474.49227839
 10
441112.5975544937
 20
9210468.437267631
 10
441117.1211915687
 20
9210479.551974446
  0
LWPOLYLINE
  5
135
330
17
100
AcDbEntity
  8
BANGUNAN
100
AcDbPolyline
 90
5
 70
1
 10
440977.0099124373
 20
9210321.215839691
 10
440975.0750844814
 20
9210315.536364298
 10
440983.6758446079
 20
9210312.606341718
 10
440985.6106725638
 20
9210318.285817113
 10
440977.0099124373
 20
9210321.215839691
  0
LWPOLYLINE
  5
136
330
17
100
AcDbEntity
  8
BANGUNAN
100
AcDbPolyline
 90
5
 70
1
 10
440800.46241148934
 20
9210499.783780262
 10
440788.55870758183
 20
9210498.26660089
 10
440790.1196226906
 20
9210486.019748852
 10
440802.02332659625
 20
9210487.536928222
 10
440800.46241148934
 20
9210499.783780262
  0
LWPOLYLINE
  5
137
330
17
100
AcDbEntity
  8
BANGUNAN
100
AcDbPolyline
 90
5
 70
1
 10
440858.34680519905
 20
9210376.291748228
 10
440851.6820783457
 20
9210384.696292695
 10
440843.84667203575
 20
9210378.482887197
 10
440850.5113988882
 20
9210370.078342726
 10
440858.34680519905
 20
9210376.291748228
  0
LWPOLYLINE
  5
138
330
17
100
AcDbEntity
  8
BANGUNAN
100
AcDbPolyline
 90
5
 70
1
 10
441057.7412044853
 20
9210461.880880577
 10
441071.346542594
 20
9210457.839340752
 10
441073.90935786674
 20
9210466.466737688
 10
441060.3040197585
 20
9210470.508277513
 10
441057.7412044853
 20
9210461.880880577
  0
LWPOLYLINE
  5
139
330
17
100
AcDbEntity
  8
BANGUNAN
100
AcDbPolyline
 90
5
 70
1
 10
440988.5678219013
 20
9210459.247178685
 10
440981.90736570954
 20
9210461.400855377
 10
440978.2117404826
 20
9210449.97177226
 10
440984.8721966762
 20
9210447.818095569
 10
440988.5678219013
 20
9210459.247178685
  0
LWPOLYLINE
  5
13A
330
17
100
AcDbEntity
  8
BANGUNAN
100
AcDbPolyline
 90
5
 70
1
 10
441092.93344059354
 20
9210534.953262068
 10
441082.7870282582
 20
9210538.801760964
 10
441080.6591706532
 20
9210533.191750089
 10
441090.80558298854
 20
9210529.343251193
 10
441092.93344059354
 20
9210534.953262068
  0
LWPOLYLINE
  5
13B
330
17
100
AcDbEntity
  8
BANGUNAN
100
AcDbPolyline
 90
5
 70
1
 10
440905.0919138151
 20
9210434.472822683
 10
440903.8239813745
 20
9210427.588612683
 10
440913.31482517393
 20
9210425.840590945
 10
440914.58275761455
 20
9210432.724800944
 10
440905.0919138151
 20
9210434.472822683
  0
LWPOLYLINE
  5
13C
330
17
100
AcDbEntity
  8
BANGUNAN
100
AcDbPolyline
 90
5
 70
1
 10
441108.88278839365
 20
9210493.49908496
 10
441127.40729975514
 20
9210485.959689835
 10
441134.73055513576
 20
9210503.953139605
 10
441116.20604377333
 20
9210511.492534729
 10
441108.88278839365
 20
9210493.49908496
  0
LWPOLYLINE
  5
13D
330
17
100
AcDbEntity
  8
BANGUNAN
100
AcDbPolyline
 90
5
 70
1
 10
441133.01580722816
 20
9210514.944387212
 10
441134.2835324332
 20
9210519.934974285
 10
441129.43744219095
 20
9210521.16599393
 10
441128.1697169859
 20
9210516.17540686
 10
441133.01580722816
 20
9210514.944387212
  0
LWPOLYLINE
  5
13E
330
17
100
AcDbEntity
  8
BANGUNAN
100
AcDbPolyline
 90
5
 70
1
 10
440973.17478127684
 20
9210388.110762335
 10
440975.17536288965
 20
9210394.818792833
 10
440963.1160748936
 20
9210398.415316412
 10
440961.1154932799
 20
9210391.707285913
 10
440973.17478127684
 20
9210388.110762335
  0
LWPOLYLINE
  5
13F
330
17
100
AcDbEntity
  8
BANGUNAN
100
AcDbPolyline
 90
5
 70
1
 10
440693.54990374483
 20
9210508.795305002
 10
440656.2286020601
 20
9210517.076363167
 10
440654.2790468037
 20
9210508.290053688
 10
440691.6003484884
 20
9210500.008995522
 10
440693.54990374483
 20
9210508.795305002
  0
LWPOLYLINE
  5
140
330
17
100
AcDbEntity
  8
BANGUNAN
100
AcDbPolyline
 90
5
 70
1
 10
440825.85315218754
 20
9210339.451375123
 10
440818.39706558734
 20
9210348.8538627
 10
440808.2579315137
 20
9210340.813622165
 10
440815.7140181158
 20
9210331.411134593
 10
440825.85315218754
 20
9210339.451375123
  0
LWPOLYLINE
  5
141
330
17
100
AcDbEntity
  8
BANGUNAN
100
AcDbPolyline
 90
5
 70
1
 10
441090.70046435203
 20
9210469.530698491
 10
441101.81459383527
 20
9210465.00729639
 10
441105.58429139666
 20
9210474.269552069
 10
441094.4701619139
 20
9210478.792954171
 10
441090.70046435203
 20
9210469.530698491
  0
LWPOLYLINE
  5
142
330
17
100
AcDbEntity
  8
BANGUNAN
100
AcDbPolyline
 90
5
 70
1
 10
440971.4071394326
 20
9210528.368144404
 10
440970.0433758646
 20
9210523.557723539
 10
440975.0131525174
 20
9210522.1487823
 10
440976.37691608537
 20
9210526.959203165
 10
440971.4071394326
 20
9210528.368144404
  0
LWPOLYLINE
  5
143
330
17
100
AcDbEntity
  8
BANGUNAN
100
AcDbPolyline
 90
5
 70
1
 10
441042.6661290983
 20
9210351.112504508
 10
441060.79000887414
 20
9210345.623111812
 10
441064.8482895144
 20
9210359.022005728
 10
441046.724409739
 20
9210364.511398427
 10
441042.6661290983
 20
9210351.112504508
  0
LWPOLYLINE
  5
144
330
17
100
AcDbEntity
  8
BANGUNAN
100
AcDbPolyline
 90
5
 70
1
 10
440819.74705879577
 20
9210533.957464108
 10
440821.70708035305
 20
9210542.658508345
 10
440816.8293062467
 20
9210543.757289382
 10
440814.8692846894
 20
9210535.056245144
 10
440819.74705879577
 20
9210533.957464108
  0
LWPOLYLINE
  5
145
330
17
100
AcDbEntity
  8
BANGUNAN
100
AcDbPolyline
 90
5
 70
1
 10
440715.2690552757
 20
9210455.336733716
 10
440723.6155952895
 20
9210458.912065765
 10
440720.46554839937
 20
9210466.265786221
 10
440712.1190083851
 20
9210462.690454174
 10
440715.2690552757
 20
9210455.336733716
  0
LWPOLYLINE
  5
146
330
17
100
AcDbEntity
  8
BANGUNAN
100
AcDbPolyline
 90
5
 70
1
 10
440790.47637401614
 20
9210421.851051267
 10
440785.3511593817
 20
9210424.970694667
 10
440780.46090518404
 20
9210416.93657051
 10
440785.5861198185
 20
9210413.816927113
 10
440790.47637401614
 20
9210421.851051267
  0
LWPOLYLINE
  5
147
330
17
100
AcDbEntity
  8
BANGUNAN
100
AcDbPolyline
 90
5
 70
1
 10
440700.94057082105
 20
9210424.61677922
 10
440695.57218890917
 20
9210426.22458246
 10
440694.4245729875
 20
9210422.392745081
 10
440699.7929548989
 20
9210420.78494184
 10
440700.94057082105
 20
9210424.61677922
  0
LWPOLYLINE
  5
148
330
17
100
AcDbEntity
  8
BANGUNAN
100
AcDbPolyline
 90
5
 70
1
 10
440910.59456607327
 20
9210344.39686778
 10
440907.4499177877
 20
9210332.396329165
 10
440917.1233139429
 20
9210329.861490551
 10
440920.26796223037
 20
9210341.862029172
 10
440910.59456607327
 20
9210344.39686778
  0
LWPOLYLINE
  5
149
330
17
100
AcDbEntity
  8
BANGUNAN
100
AcDbPolyline
 90
5
 70
1
 10
440852.79435794055
 20
9210459.305937093
 10
440850.20527161844
 20
9210451.11654528
 10
440856.87965657376
 20
9210449.006430246
 10
440859.4687428959
 20
9210457.195822055
 10
440852.79435794055
 20
9210459.305937093
  0
LWPOLYLINE
  5
14A
330
17
100
AcDbEntity
  8
BANGUNAN
100
AcDbPolyline
 90
5
 70
1
 10
440844.422989605
 20
9210365.73851016
 10
440850.63639510423
 20
9210357.903103849
 10
440859.9524497874
 20
9210365.290649958
 10
440853.73904428724
 20
9210373.126056273
 10
440844.422989605
 20
9210365.73851016
  0
LWPOLYLINE
  5
14B
330
17
100
AcDbEntity
  8
BANGUNAN
100
AcDbPolyline
 90
5
 70
1
 10
440765.13029742334
 20
9210417.261818407
 10
440769.40130961966
 20
9210414.662115574
 10
440772.62508973014
 20
9210419.958414827
 10
440768.3540775338
 20
9210422.55811766
 10
440765.13029742334
 20
9210417.261818407
  0
LWPOLYLINE
  5
14C
330
17
100
AcDbEntity
  8
BANGUNAN
100
AcDbPolyline
 90
5
 70
1
 10
441009.97417540103
 20
9210512.68515023
 10
441015.5315288082
 20
9210510.423331693
 10
441017.77450010367
 20
9210515.934376884
 10
441012.21714669745
 20
9210518.196195424
 10
441009.97417540103
 20
9210512.68515023
  0
LWPOLYLINE
  5
14D
330
17
100
AcDbEntity
  8
BANGUNAN
100
AcDbPolyline
 90
5
 70
1
 10
440945.6863888055
 20
9210482.059374664
 10
440936.204889372
 20
9210485.23760821
 10
440933.0535441935
 20
9210475.836323787
 10
440942.535043627
 20
9210472.658090241
 10
440945.6863888055
 20
9210482.059374664
  0
LWPOLYLINE
  5
14E
330
17
100
AcDbEntity
  8
BANGUNAN
100
AcDbPolyline
 90
5
 70
1
 10
440908.79203537107
 20
9210451.586355004
 10
440909.666336284
 20
9210455.489635408
 10
440903.23137208493
 20
9210456.931011504
 10
440902.3570711715
 20
9210453.0277311
 10
440908.79203537107
 20
9210451.586355004
  0
LWPOLYLINE
  5
14F
330
17
100
AcDbEntity
  8
BANGUNAN
100
AcDbPolyline
 90
5
 70
1
 10
440835.7884255424
 20
9210374.015970401
 10
440831.9487519674
 20
9210378.857985388
 10
440827.2475081803
 20
9210375.129942086
 10
440831.0871817544
 20
9210370.2879271
 10
440835.7884255424
 20
9210374.015970401
  0
LWPOLYLINE
  5
150
330
17
100
AcDbEntity
  8
BANGUNAN
100
AcDbPolyline
 90
5
 70
1
 10
440731.33163291775
 20
9210464.428839754
 10
440738.6853533741
 20
9210467.578886643
 10
440735.65413373336
 20
9210474.65520731
 10
440728.30041327514
 20
9210471.50516042
 10
440731.33163291775
 20
9210464.428839754
  0
LWPOLYLINE
  5
151
330
17
100
AcDbEntity
  8
BANGUNAN
100
AcDbPolyline
 90
5
 70
1
 10
441090.5632197689
 20
9210318.379726287
 10
441091.6959709227
 20
9210322.01489427
 10
441087.8770835772
 20
9210323.20489404
 10
441086.74433242343
 20
9210319.569726054
 10
441090.5632197689
 20
9210318.379726287
  0
LWPOLYLINE
  5
152
330
17
100
AcDbEntity
  8
BANGUNAN
100
AcDbPolyline
 90
5
 70
1
 10
440692.3367436051
 20
9210496.880634028
 10
440651.75759554957
 20
9210504.693755675
 10
440649.8669189245
 20
9210494.87411506
 10
440690.44606697955
 20
9210487.060993409
 10
440692.3367436051
 20
9210496.880634028
  0
LWPOLYLINE
  5
153
330
17
100
AcDbEntity
  8
BANGUNAN
100
AcDbPolyline
 90
5
 70
1
 10
441120.21731712576
 20
9210518.660822839
 10
441138.8856027555
 20
9210514.611203922
 10
441140.79355356796
 20
9210523.406641586
 10
441122.1252679378
 20
9210527.4562605
 10
441120.21731712576
 20
9210518.660822839
  0
LWPOLYLINE
  5
154
330
17
100
AcDbEntity
  8
BANGUNAN
100
AcDbPolyline
 90
5
 70
1
 10
441130.2292973548
 20
9210425.389959969
 10
441131.333440518
 20
9210429.003605627
 10
441127.50802643783
 20
9210430.17245426
 10
441126.4038832765
 20
9210426.558808602
 10
441130.2292973548
 20
9210425.389959969
  0
LWPOLYLINE
  5
155
330
17
100
AcDbEntity
  8
BANGUNAN
100
AcDbPolyline
 90
5
 70
1
 10
440799.43535794504
 20
9210529.895807937
 10
440791.4995553419
 20
9210528.884355024
 10
440792.58445282653
 20
9210520.372310441
 10
440800.5202554334
 20
9210521.383763352
 10
440799.43535794504
 20
9210529.895807937
  0
LWPOLYLINE
  5
156
330
17
100
AcDbEntity
  8
BANGUNAN
100
AcDbPolyline
 90
5
 70
1
 10
441044.5998258274
 20
9210288.244951474
 10
441042.73083155043
 20
9210282.247069128
 10
441047.50444073044
 20
9210280.75956942
 10
441049.3734350074
 20
9210286.757451767
 10
441044.5998258274
 20
9210288.244951474
  0
LWPOLYLINE
  5
157
330
17
100
AcDbEntity
  8
BANGUNAN
100
AcDbPolyline
 90
5
 70
1
 10
441099.3128968412
 20
9210485.21672333
 10
441091.90309229866
 20
9210488.232481383
 10
441088.58959092293
 20
9210480.091112897
 10
441095.9993954664
 20
9210477.075354846
 10
441099.3128968412
 20
9210485.21672333
  0
LWPOLYLINE
  5
158
330
17
100
AcDbEntity
  8
BANGUNAN
100
AcDbPolyline
 90
5
 70
1
 10
441010.65071494784
 20
9210328.762825856
 10
441014.4789703535
 20
9210327.6033171
 10
441016.6929020295
 20
9210334.912874594
 10
441012.86464662384
 20
9210336.07238335
 10
441010.65071494784
 20
9210328.762825856
  0
LWPOLYLINE
  5
159
330
17
100
AcDbEntity
  8
BANGUNAN
100
AcDbPolyline
 90
5
 70
1
 10
441164.53675989807
 20
9210316.511471875
 10
441168.4583626799
 20
9210315.72341628
 10
441169.67349935696
 20
9210321.770303592
 10
441165.7518965751
 20
9210322.558359187
 10
441164.53675989807
 20
9210316.511471875
  0
LWPOLYLINE
  5
15A
330
17
100
AcDbEntity
  8
BANGUNAN
100
AcDbPolyline
 90
5
 70
1
 10
441102.74190048315
 20
9210467.405458763
 10
441111.19547365885
 20
9210463.964891445
 10
441113.83426195243
 20
9210470.448470417
 10
441105.3806887767
 20
9210473.88903774
 10
441102.74190048315
 20
9210467.405458763
  0
LWPOLYLINE
  5
15B
330
17
100
AcDbEntity
  8
BANGUNAN
100
AcDbPolyline
 90
5
 70
1
 10
440939.58242209116
 20
9210367.523905803
 10
440929.99540594453
 20
9210371.038745157
 10
440927.93008518405
 20
9210365.40541132
 10
440937.51710132975
 20
9210361.890571965
 10
440939.58242209116
 20
9210367.523905803
  0
LWPOLYLINE
  5
15C
330
17
100
AcDbEntity
  8
BANGUNAN
100
AcDbPolyline
 90
5
 70
1
 10
440916.0500134218
 20
9210345.100467823
 10
440920.53377351677
 20
9210344.552914713
 10
440921.0186481306
 20
9210348.523418033
 10
440916.5348880356
 20
9210349.070971144
 10
440916.0500134218
 20
9210345.100467823
  0
LWPOLYLINE
  5
15D
330
17
100
AcDbEntity
  8
BANGUNAN
100
AcDbPolyline
 90
5
 70
1
 10
440862.43078249134
 20
9210427.809363568
 10
440859.86644585244
 20
9210419.698256081
 10
440866.54083080776
 20
9210417.588141043
 10
440869.10516744666
 20
9210425.69924853
 10
440862.43078249134
 20
9210427.809363568
  0
LWPOLYLINE
  5
15E
330
17
100
AcDbEntity
  8
BANGUNAN
100
AcDbPolyline
 90
5
 70
1
 10
440942.8335144762
 20
9210531.811503576
 10
440941.46975091007
 20
9210527.001082707
 10
440946.05893146386
 20
9210525.700041195
 10
440947.42269502906
 20
9210530.51046206
 10
440942.8335144762
 20
9210531.811503576
  0
LWPOLYLINE
  5
15F
330
17
100
AcDbEntity
  8
BANGUNAN
100
AcDbPolyline
 90
5
 70
1
 10
440776.2798538096
 20
9210434.720129995
 10
440781.40506844316
 20
9210431.600486595
 10
440786.7763596857
 20
9210440.424899181
 10
440781.65114504937
 20
9210443.544542579
 10
440776.2798538096
 20
9210434.720129995
  0
LWPOLYLINE
  5
160
330
17
100
AcDbEntity
  8
BANGUNAN
100
AcDbPolyline
 90
5
 70
1
 10
441020.3757296577
 20
9210502.0938822
 10
441013.95805128943
 20
9210504.705849234
 10
441011.69623275194
 20
9210499.148495827
 10
441018.1139111202
 20
9210496.536528792
 10
441020.3757296577
 20
9210502.0938822
  0
LWPOLYLINE
  5
161
330
17
100
AcDbEntity
  8
BANGUNAN
100
AcDbPolyline
 90
5
 70
1
 10
440843.5543291094
 20
9210534.735484883
 10
440831.6871811792
 20
9210533.222964732
 10
440832.9514973217
 20
9210523.303211473
 10
440844.8186452519
 20
9210524.815731626
 10
440843.5543291094
 20
9210534.735484883
  0
LWPOLYLINE
  5
162
330
17
100
AcDbEntity
  8
BANGUNAN
100
AcDbPolyline
 90
5
 70
1
 10
440931.5059403399
 20
9210514.362226678
 10
440919.04503842106
 20
9210512.77402997
 10
440920.30935456266
 20
9210502.854276717
 10
440932.77025648195
 20
9210504.442473423
 10
440931.5059403399
 20
9210514.362226678
  0
LWPOLYLINE
  5
163
330
17
100
AcDbEntity
  8
BANGUNAN
100
AcDbPolyline
 90
5
 70
1
 10
440863.6147954613
 20
9210315.622295216
 10
440858.64407106023
 20
9210321.890620265
 10
440850.93589783553
 20
9210315.778109439
 10
440855.9066222375
 20
9210309.50978439
 10
440863.6147954613
 20
9210315.622295216
  0
LWPOLYLINE
  5
164
330
17
100
AcDbEntity
  8
BANGUNAN
100
AcDbPolyline
 90
5
 70
1
 10
440928.33569935244
 20
9210518.145427072
 10
440920.84779841464
 20
9210517.191061197
 10
440921.73281971447
 20
9210510.247233916
 10
440929.22072065156
 20
9210511.201599795
 10
440928.33569935244
 20
9210518.145427072
  0
LWPOLYLINE
  5
165
330
17
100
AcDbEntity
  8
BANGUNAN
100
AcDbPolyline
 90
5
 70
1
 10
441098.34835485276
 20
9210458.631995471
 10
441106.99379089894
 20
9210456.063821582
 10
441108.4175771619
 20
9210460.856819881
 10
441099.7721411162
 20
9210463.42499377
 10
441098.34835485276
 20
9210458.631995471
  0
LWPOLYLINE
  5
166
330
17
100
AcDbEntity
  8
BANGUNAN
100
AcDbPolyline
 90
5
 70
1
 10
440925.22348016105
 20
9210506.176086094
 10
440918.07312415564
 20
9210505.264741803
 10
440918.83171384106
 20
9210499.312889848
 10
440925.98206984554
 20
9210500.224234143
 10
440925.22348016105
 20
9210506.176086094
  0
LWPOLYLINE
  5
167
330
17
100
AcDbEntity
  8
BANGUNAN
100
AcDbPolyline
 90
5
 70
1
 10
440819.04283748195
 20
9210407.909191616
 10
440814.83950080816
 20
9210410.467701342
 10
440812.7597385412
 20
9210407.050891588
 10
440816.963075215
 20
9210404.492381858
 10
440819.04283748195
 20
9210407.909191616
  0
LWPOLYLINE
  5
168
330
17
100
AcDbEntity
  8
BANGUNAN
100
AcDbPolyline
 90
5
 70
1
 10
440633.6626604232
 20
9210456.60932404
 10
440683.04262083396
 20
9210442.559061017
 10
440685.77933235234
 20
9210452.177294225
 10
440636.39937194064
 20
9210466.227557248
 10
440633.6626604232
 20
9210456.60932404
  0
LWPOLYLINE
  5
169
330
17
100
AcDbEntity
  8
BANGUNAN
100
AcDbPolyline
 90
5
 70
1
 10
440965.8229770474
 20
9210336.18890726
 10
440962.0345614273
 20
9210325.06842845
 10
440971.50035375357
 20
9210321.843715187
 10
440975.28876937367
 20
9210332.964193998
 10
440965.8229770474
 20
9210336.18890726
  0
LWPOLYLINE
  5
16A
330
17
100
AcDbEntity
  8
BANGUNAN
100
AcDbPolyline
 90
5
 70
1
 10
440953.5034020259
 20
9210375.015106294
 10
440968.72041709116
 20
9210369.436168844
 10
440973.53949886514
 20
9210382.58061447
 10
440958.3224837999
 20
9210388.15955192
 10
440953.5034020259
 20
9210375.015106294
  0
LWPOLYLINE
  5
16B
330
17
100
AcDbEntity
  8
BANGUNAN
100
AcDbPolyline
 90
5
 70
1
 10
440842.7181126438
 20
9210443.207769435
 10
440840.6983678229
 20
9210436.819229377
 10
440846.4192692116
 20
9210435.010559345
 10
440848.4390140325
 20
9210441.399099402
 10
440842.7181126438
 20
9210443.207769435
  0
LWPOLYLINE
  5
16C
330
17
100
AcDbEntity
  8
BANGUNAN
100
AcDbPolyline
 90
5
 70
1
 10
440854.6113414145
 20
9210468.17377315
 10
440853.4055613922
 20
9210464.35983889
 10
440857.97342251753
 20
9210462.915703963
 10
440859.1792025394
 20
9210466.72963822
 10
440854.6113414145
 20
9210468.17377315
  0
LWPOLYLINE
  5
16D
330
17
100
AcDbEntity
  8
BANGUNAN
100
AcDbPolyline
 90
5
 70
1
 10
441142.5952716172
 20
9210510.24053811
 10
441137.96414377727
 20
9210512.12538689
 10
441135.340429252
 20
9210505.678844599
 10
441139.9715570919
 20
9210503.793995818
 10
441142.5952716172
 20
9210510.24053811
  0
LWPOLYLINE
  5
16E
330
17
100
AcDbEntity
  8
BANGUNAN
100
AcDbPolyline
 90
5
 70
1
 10
440871.2470505689
 20
9210450.449065316
 10
440867.0268204957
 20
9210437.100295404
 10
440882.5533115729
 20
9210432.191576097
 10
440886.77354164654
 20
9210445.540346008
 10
440871.2470505689
 20
9210450.449065316
  0
LWPOLYLINE
  5
16F
330
17
100
AcDbEntity
  8
BANGUNAN
100
AcDbPolyline
 90
5
 70
1
 10
440859.99443936045
 20
9210523.169236079
 10
440847.45141882147
 20
9210521.570572993
 10
440848.9685981921
 20
9210509.666869083
 10
440861.51161873084
 20
9210511.26553217
 10
440859.99443936045
 20
9210523.169236079
  0
LWPOLYLINE
  5
170
330
17
100
AcDbEntity
  8
BANGUNAN
100
AcDbPolyline
 90
5
 70
1
 10
440879.99639402516
 20
9210369.872087874
 10
440877.2926672064
 20
9210355.341912989
 10
440889.0901637785
 20
9210353.146673901
 10
440891.7938905973
 20
9210367.676848786
 10
440879.99639402516
 20
9210369.872087874
  0
LWPOLYLINE
  5
171
330
17
100
AcDbEntity
  8
BANGUNAN
100
AcDbPolyline
 90
5
 70
1
 10
440783.95040962007
 20
9210542.14972149
 10
440788.46824198496
 20
9210549.630327938
 10
440782.47623032425
 20
9210553.24913938
 10
440777.9583979584
 20
9210545.768532932
 10
440783.95040962007
 20
9210542.14972149
  0
LWPOLYLINE
  5
172
330
17
100
AcDbEntity
  8
BANGUNAN
100
AcDbPolyline
 90
5
 70
1
 10
440661.75155975064
 20
9210520.96270601
 10
440724.10066895233
 20
9210509.449075418
 10
440725.73501161905
 20
9210518.29943835
 10
440663.3859024169
 20
9210529.813068941
 10
440661.75155975064
 20
9210520.96270601
  0
LWPOLYLINE
  5
173
330
17
100
AcDbEntity
  8
BANGUNAN
100
AcDbPolyline
 90
5
 70
1
 10
440863.20422613807
 20
9210473.161717417
 10
440861.5190072432
 20
9210467.831297306
 10
440866.28642507084
 20
9210466.324072279
 10
440867.9716439657
 20
9210471.65449239
 10
440863.20422613807
 20
9210473.161717417
  0
LWPOLYLINE
  5
174
330
17
100
AcDbEntity
  8
BANGUNAN
100
AcDbPolyline
 90
5
 70
1
 10
440796.1141859852
 20
9210394.867466366
 10
440791.16245856136
 20
9210380.03667042
 10
440799.6992035061
 20
9210377.186409771
 10
440804.6509309299
 20
9210392.017205717
 10
440796.1141859852
 20
9210394.867466366
  0
LWPOLYLINE
  5
175
330
17
100
AcDbEntity
  8
BANGUNAN
100
AcDbPolyline
 90
5
 70
1
 10
440942.7503039385
 20
9210384.59189086
 10
440937.9762543333
 20
9210386.342176579
 10
440936.2551536998
 20
9210381.647731714
 10
440941.02920330456
 20
9210379.897445993
 10
440942.7503039385
 20
9210384.59189086
  0
LWPOLYLINE
  5
176
330
17
100
AcDbEntity
  8
BANGUNAN
100
AcDbPolyline
 90
5
 70
1
 10
440989.5148318615
 20
9210562.242006227
 10
440978.9938985845
 20
9210571.478345491
 10
440967.73752493877
 20
9210558.656430585
 10
440978.2584582167
 20
9210549.420091325
 10
440989.5148318615
 20
9210562.242006227
  0
LWPOLYLINE
  5
177
330
17
100
AcDbEntity
  8
BANGUNAN
100
AcDbPolyline
 90
5
 70
1
 10
440818.4933663793
 20
9210331.023425162
 10
440815.09136111196
 20
9210335.313519143
 10
440811.17365795746
 20
9210332.206816394
 10
440814.575663222
 20
9210327.916722413
 10
440818.4933663793
 20
9210331.023425162
  0
LWPOLYLINE
  5
178
330
17
100
AcDbEntity
  8
BANGUNAN
100
AcDbPolyline
 90
5
 70
1
 10
441010.3855437748
 20
9210450.47526149
 10
441006.46656845324
 20
9210429.477540711
 10
441026.12707462534
 20
9210425.808140624
 10
441030.0460499469
 20
9210446.805861402
 10
441010.3855437748
 20
9210450.47526149
  0
LWPOLYLINE
  5
179
330
17
100
AcDbEntity
  8
BANGUNAN
100
AcDbPolyline
 90
5
 70
1
 10
441132.07437339984
 20
9210378.260926988
 10
441135.28134737536
 20
9210388.7567286
 10
441125.7178121805
 20
9210391.678850189
 10
441122.510838205
 20
9210381.183048576
 10
441132.07437339984
 20
9210378.260926988
  0
LWPOLYLINE
  5
17A
330
17
100
AcDbEntity
  8
BANGUNAN
100
AcDbPolyline
 90
5
 70
1
 10
441160.22627077624
 20
9210326.937554251
 10
441168.06947633997
 20
9210325.361443063
 10
441169.80892552435
 20
9210334.017467842
 10
441161.9657199625
 20
9210335.593579032
 10
441160.22627077624
 20
9210326.937554251
  0
LWPOLYLINE
  5
17B
330
17
100
AcDbEntity
  8
BANGUNAN
100
AcDbPolyline
 90
5
 70
1
 10
440898.669696291
 20
9210380.681222938
 10
440882.7313016574
 20
9210385.727103118
 10
440879.1094350172
 20
9210374.286732407
 10
440895.0478296499
 20
9210369.240852226
 10
440898.669696291
 20
9210380.681222938
  0
LWPOLYLINE
  5
17C
330
17
100
AcDbEntity
  8
BANGUNAN
100
AcDbPolyline
 90
5
 70
1
 10
441087.0200477177
 20
9210336.91668255
 10
441089.94216930727
 20
9210346.480217746
 10
441080.43356837425
 20
9210349.385554267
 10
441077.51144678425
 20
9210339.822019072
 10
441087.0200477177
 20
9210336.91668255
  0
LWPOLYLINE
  5
17D
330
17
100
AcDbEntity
  8
BANGUNAN
100
AcDbPolyline
 90
5
 70
1
 10
440829.6591336895
 20
9210444.288471092
 10
440812.5750849061
 20
9210454.687282423
 10
440799.2671804596
 20
9210432.82392886
 10
440816.35122924484
 20
9210422.425117526
 10
440829.6591336895
 20
9210444.288471092
  0
LWPOLYLINE
  5
17E
330
17
100
AcDbEntity
  8
BANGUNAN
100
AcDbPolyline
 90
5
 70
1
 10
441033.74735442735
 20
9210368.341634141
 10
441042.3609290868
 20
9210365.732739445
 10
441046.624392841
 20
9210379.809069693
 10
441038.0108181797
 20
9210382.417964393
 10
441033.74735442735
 20
9210368.341634141
  0
LWPOLYLINE
  5
17F
330
17
100
AcDbEntity
  8
BANGUNAN
100
AcDbPolyline
 90
5
 70
1
 10
441047.8573996844
 20
9210497.328352224
 10
441038.59514400456
 20
9210501.098049786
 10
441034.4826264139
 20
9210490.993475407
 10
441043.7448820956
 20
9210487.223777846
 10
441047.8573996844
 20
9210497.328352224
  0
LWPOLYLINE
  5
180
330
17
100
AcDbEntity
  8
BANGUNAN
100
AcDbPolyline
 90
5
 70
1
 10
441139.2844623681
 20
9210320.034268394
 10
441146.1472672336
 20
9210318.655171104
 10
441148.40529704466
 20
9210329.89180978
 10
441141.54249217734
 20
9210331.27090707
 10
441139.2844623681
 20
9210320.034268394
  0
LWPOLYLINE
  5
181
330
17
100
AcDbEntity
  8
BANGUNAN
100
AcDbPolyline
 90
5
 70
1
 10
440857.70794080105
 20
9210314.743575625
 10
440850.25185420085
 20
9210324.146063197
 10
440841.05787883047
 20
9210316.855324866
 10
440848.51396542974
 20
9210307.452837292
 10
440857.70794080105
 20
9210314.743575625
  0
LWPOLYLINE
  5
182
330
17
100
AcDbEntity
  8
BANGUNAN
100
AcDbPolyline
 90
5
 70
1
 10
441091.8608420193
 20
9210366.484243602
 10
441093.6226095427
 20
9210372.250165788
 10
441089.79719546624
 20
9210373.419014424
 10
441088.0354279429
 20
9210367.653092235
 10
441091.8608420193
 20
9210366.484243602
  0
LWPOLYLINE
  5
183
330
17
100
AcDbEntity
  8
BANGUNAN
100
AcDbPolyline
 90
5
 70
1
 10
441108.0253143124
 20
9210340.959070314
 10
441110.9474359001
 20
9210350.52260551
 10
441100.4724513991
 20
9210353.723218853
 10
441097.5503298119
 20
9210344.159683658
 10
441108.0253143124
 20
9210340.959070314
  0
LWPOLYLINE
  5
184
330
17
100
AcDbEntity
  8
BANGUNAN
100
AcDbPolyline
 90
5
 70
1
 10
440949.0363176861
 20
9210364.66750993
 10
440939.95115391025
 20
9210367.998357683
 10
440937.54161302233
 20
9210361.426134871
 10
440946.6267767986
 20
9210358.095287118
 10
440949.0363176861
 20
9210364.66750993
  0
LWPOLYLINE
  5
185
330
17
100
AcDbEntity
  8
BANGUNAN
100
AcDbPolyline
 90
5
 70
1
 10
440874.39509154763
 20
9210339.829613788
 10
440877.2553629549
 20
9210349.030870797
 10
440870.57088310923
 20
9210351.108785428
 10
440867.7106117038
 20
9210341.907528419
 10
440874.39509154763
 20
9210339.829613788
  0
LWPOLYLINE
  5
186
330
17
100
AcDbEntity
  8
BANGUNAN
100
AcDbPolyline
 90
5
 70
1
 10
441123.9548882027
 20
9210464.789338773
 10
441126.9805998723
 20
9210472.195084438
 10
441117.3412098102
 20
9210476.133379959
 10
441114.3154981411
 20
9210468.727634296
 10
441123.9548882027
 20
9210464.789338773
  0
LWPOLYLINE
  5
187
330
17
100
AcDbEntity
  8
BANGUNAN
100
AcDbPolyline
 90
5
 70
1
 10
441034.56567215454
 20
9210317.435975704
 10
441054.70926583186
 20
9210311.334848497
 10
441060.5068096034
 20
9210330.47612552
 10
441040.3632159275
 20
9210336.577252729
 10
441034.56567215454
 20
9210317.435975704
  0
LWPOLYLINE
  5
188
330
17
100
AcDbEntity
  8
BANGUNAN
100
AcDbPolyline
 90
5
 70
1
 10
440896.00112556666
 20
9210427.1894782
 10
440893.15207009204
 20
9210411.720597088
 10
440904.9535729494
 20
9210409.546998618
 10
440907.802628424
 20
9210425.015879732
 10
440896.00112556666
 20
9210427.1894782
  0
LWPOLYLINE
  5
189
330
17
100
AcDbEntity
  8
BANGUNAN
100
AcDbPolyline
 90
5
 70
1
 10
440894.1683700639
 20
9210478.122984886
 10
440890.67116640974
 20
9210462.50986327
 10
440907.7493223576
 20
9210458.68450465
 10
440911.24652601127
 20
9210474.297626264
 10
440894.1683700639
 20
9210478.122984886
  0
LWPOLYLINE
  5
18A
330
17
100
AcDbEntity
  8
BANGUNAN
100
AcDbPolyline
 90
5
 70
1
 10
441065.4625624209
 20
9210354.617300777
 10
441074.9651942421
 20
9210351.739126878
 10
441076.1247029975
 20
9210355.567382284
 10
441066.62207117584
 20
9210358.445556182
 10
441065.4625624209
 20
9210354.617300777
  0
LWPOLYLINE
  5
18B
330
17
100
AcDbEntity
  8
BANGUNAN
100
AcDbPolyline
 90
5
 70
1
 10
440971.68995768856
 20
9210457.94883313
 10
440962.1750202691
 20
9210461.025514118
 10
440959.13474048395
 20
9210451.62315099
 10
440968.6496779034
 20
9210448.546470003
 10
440971.68995768856
 20
9210457.94883313
  0
LWPOLYLINE
  5
18C
330
17
100
AcDbEntity
  8
BANGUNAN
100
AcDbPolyline
 90
5
 70
1
 10
440967.09887679387
 20
9210353.373458246
 10
440971.8554343693
 20
9210351.629585542
 10
440973.5765350037
 20
9210356.324030409
 10
440968.81997742737
 20
9210358.067903109
 10
440967.09887679387
 20
9210353.373458246
  0
LWPOLYLINE
  5
18D
330
17
100
AcDbEntity
  8
BANGUNAN
100
AcDbPolyline
 90
5
 70
1
 10
440994.79466742976
 20
9210493.15264143
 10
440985.54487467185
 20
9210496.143587168
 10
440984.0065341769
 20
9210491.38611846
 10
440993.2563269348
 20
9210488.39517272
 10
440994.79466742976
 20
9210493.15264143
  0
LWPOLYLINE
  5
18E
330
17
100
AcDbEntity
  8
BANGUNAN
100
AcDbPolyline
 90
5
 70
1
 10
440841.5021364194
 20
9210485.761474133
 10
440854.90363806183
 20
9210487.469554404
 10
440853.63932191953
 20
9210497.389307663
 10
440840.23782027734
 20
9210495.68122739
 10
440841.5021364194
 20
9210485.761474133
  0
LWPOLYLINE
  5
18F
330
17
100
AcDbEntity
  8
BANGUNAN
100
AcDbPolyline
 90
5
 70
1
 10
441125.3503548489
 20
9210334.597278291
 10
441135.14765966777
 20
9210332.628486114
 10
441136.132729162
 20
9210337.53048959
 10
441126.3354243431
 20
9210339.499281768
 10
441125.3503548489
 20
9210334.597278291
  0
LWPOLYLINE
  5
190
330
17
100
AcDbEntity
  8
BANGUNAN
100
AcDbPolyline
 90
5
 70
1
 10
440813.2598803042
 20
9210524.647942778
 10
440803.2592429741
 20
9210523.373317607
 10
440804.14426427346
 20
9210516.429490326
 10
440814.1449016036
 20
9210517.704115499
 10
440813.2598803042
 20
9210524.647942778
  0
LWPOLYLINE
  5
191
330
17
100
AcDbEntity
  8
BANGUNAN
100
AcDbPolyline
 90
5
 70
1
 10
440946.85889367014
 20
9210468.579433594
 10
440953.4959432762
 20
9210466.354670113
 10
440956.81076789834
 20
9210476.24365635
 10
440950.1737182941
 20
9210478.468419831
 10
440946.85889367014
 20
9210468.579433594
  0
LWPOLYLINE
  5
192
330
17
100
AcDbEntity
  8
BANGUNAN
100
AcDbPolyline
 90
5
 70
1
 10
440923.91656785645
 20
9210437.501686823
 10
440925.5115637947
 20
9210444.622480467
 10
440921.60828338936
 20
9210445.49678138
 10
440920.0132874511
 20
9210438.375987735
 10
440923.91656785645
 20
9210437.501686823
  0
LWPOLYLINE
  5
193
330
17
100
AcDbEntity
  8
BANGUNAN
100
AcDbPolyline
 90
5
 70
1
 10
440975.94507375173
 20
9210527.369508378
 10
440974.61030905135
 20
9210522.661375588
 10
440979.4207299184
 20
9210521.29761202
 10
440980.7554946188
 20
9210526.00574481
 10
440975.94507375173
 20
9210527.369508378
  0
LWPOLYLINE
  5
194
330
17
100
AcDbEntity
  8
BANGUNAN
100
AcDbPolyline
 90
5
 70
1
 10
440971.85206731595
 20
9210533.944561832
 10
440970.0560314879
 20
9210527.609381428
 10
440973.90436818264
 20
9210526.518370574
 10
440975.7004040107
 20
9210532.853550978
 10
440971.85206731595
 20
9210533.944561832
  0
LWPOLYLINE
  5
195
330
17
100
AcDbEntity
  8
BANGUNAN
100
AcDbPolyline
 90
5
 70
1
 10
440986.64215368964
 20
9210516.92332752
 10
440993.1257326659
 20
9210514.284539226
 10
440996.08859861083
 20
9210521.564386347
 10
440989.6050196355
 20
9210524.203174638
 10
440986.64215368964
 20
9210516.92332752
  0
LWPOLYLINE
  5
196
330
17
100
AcDbEntity
  8
BANGUNAN
100
AcDbPolyline
 90
5
 70
1
 10
440856.24202363566
 20
9210536.956915222
 10
440857.4628101662
 20
9210541.758962737
 10
440853.5861219689
 20
9210542.744502492
 10
440852.3653354384
 20
9210537.942454977
 10
440856.24202363566
 20
9210536.956915222
  0
LWPOLYLINE
  5
197
330
17
100
AcDbEntity
  8
BANGUNAN
100
AcDbPolyline
 90
5
 70
1
 10
440976.295971022
 20
9210518.400639005
 10
440974.1139493147
 20
9210510.703965615
 10
440986.0751351351
 20
9210507.312946431
 10
440988.25715684285
 20
9210515.00961982
 10
440976.295971022
 20
9210518.400639005
  0
LWPOLYLINE
  5
198
330
17
100
AcDbEntity
  8
BANGUNAN
100
AcDbPolyline
 90
5
 70
1
 10
441060.00297500845
 20
9210329.576109655
 10
441055.2429759451
 20
9210314.300560273
 10
441072.4164643744
 20
9210308.949146274
 10
441077.17646343727
 20
9210324.224695655
 10
441060.00297500845
 20
9210329.576109655
  0
LWPOLYLINE
  5
199
330
17
100
AcDbEntity
  8
BANGUNAN
100
AcDbPolyline
 90
5
 70
1
 10
441001.71446868405
 20
9210498.01561391
 10
441010.976724362
 20
9210494.245916346
 10
441015.54885708075
 20
9210505.479778368
 10
441006.2866014056
 20
9210509.24947593
 10
441001.71446868405
 20
9210498.01561391
  0
LWPOLYLINE
  5
19A
330
17
100
AcDbEntity
  8
BANGUNAN
100
AcDbPolyline
 90
5
 70
1
 10
440940.9599494431
 20
9210586.10231037
 10
440934.3219802249
 20
9210586.879606996
 10
440933.85676466743
 20
9210582.906752296
 10
440940.4947338854
 20
9210582.129455669
 10
440940.9599494431
 20
9210586.10231037
  0
LWPOLYLINE
  5
19B
330
17
100
AcDbEntity
  8
BANGUNAN
100
AcDbPolyline
 90
5
 70
1
 10
440899.73121026135
 20
9210519.532131981
 10
440888.42307512765
 20
9210518.090860471
 10
440889.5609596553
 20
9210509.163082538
 10
440900.869094789
 20
9210510.60435405
 10
440899.73121026135
 20
9210519.532131981
  0
LWPOLYLINE
  5
19C
330
17
100
AcDbEntity
  8
BANGUNAN
100
AcDbPolyline
 90
5
 70
1
 10
440891.66080700816
 20
9210489.637910832
 10
440870.8183822911
 20
9210486.981452215
 10
440872.841288119
 20
9210471.109847004
 10
440893.6837128359
 20
9210473.76630562
 10
440891.66080700816
 20
9210489.637910832
  0
LWPOLYLINE
  5
19D
330
17
100
AcDbEntity
  8
BANGUNAN
100
AcDbPolyline
 90
5
 70
1
 10
440859.9788402305
 20
9210509.808756145
 10
440853.67021579354
 20
9210509.004694238
 10
440854.1759422504
 20
9210505.036792934
 10
440860.4845666876
 20
9210505.84085484
 10
440859.9788402305
 20
9210509.808756145
  0
LWPOLYLINE
  5
19E
330
17
100
AcDbEntity
  8
BANGUNAN
100
AcDbPolyline
 90
5
 70
1
 10
440976.6130981231
 20
9210510.710786244
 10
440972.3260971708
 20
9210495.589192346
 10
440983.8711072551
 20
9210492.316159785
 10
440988.1581082074
 20
9210507.437753681
 10
440976.6130981231
 20
9210510.710786244
  0
LWPOLYLINE
  5
19F
330
17
100
AcDbEntity
  8
BANGUNAN
100
AcDbPolyline
 90
5
 70
1
 10
440830.7046812866
 20
9210491.06275564
 10
440818.8009773772
 20
9210489.545576274
 10
440820.6320897732
 20
9210475.17877153
 10
440832.5357936807
 20
9210476.6959509
 10
440830.7046812866
 20
9210491.06275564
  0
LWPOLYLINE
  5
1A0
330
17
100
AcDbEntity
  8
BANGUNAN
100
AcDbPolyline
 90
5
 70
1
 10
441161.00201763026
 20
9210338.194525024
 10
441153.1588120684
 20
9210339.770636216
 10
441151.5755545348
 20
9210331.891868291
 10
441159.41876009665
 20
9210330.315757098
 10
441161.00201763026
 20
9210338.194525024
  0
LWPOLYLINE
  5
1A1
330
17
100
AcDbEntity
  8
BANGUNAN
100
AcDbPolyline
 90
5
 70
1
 10
440796.7345705079
 20
9210489.335500034
 10
440787.03192536556
 20
9210488.098855272
 10
440788.16980989324
 20
9210479.171077343
 10
440797.8724550358
 20
9210480.407722104
 10
440796.7345705079
 20
9210489.335500034
  0
LWPOLYLINE
  5
1A2
330
17
100
AcDbEntity
  8
BANGUNAN
100
AcDbPolyline
 90
5
 70
1
 10
440777.5610602102
 20
9210347.824441535
 10
440789.87670417177
 20
9210344.72120762
 10
440791.8314054068
 20
9210352.478729328
 10
440779.5157614462
 20
9210355.581963243
 10
440777.5610602102
 20
9210347.824441535
  0
LWPOLYLINE
  5
1A3
330
17
100
AcDbEntity
  8
BANGUNAN
100
AcDbPolyline
 90
5
 70
1
 10
441096.1021755263
 20
9210352.018592732
 10
441093.7990469523
 20
9210344.480901193
 10
441097.6244610306
 20
9210343.31205256
 10
441099.92758960463
 20
9210350.849744096
 10
441096.1021755263
 20
9210352.018592732
  0
LWPOLYLINE
  5
1A4
330
17
100
AcDbEntity
  8
BANGUNAN
100
AcDbPolyline
 90
5
 70
1
 10
440866.4007455036
 20
9210435.55730156
 10
440863.9891854618
 20
9210427.92943304
 10
440876.5075795688
 20
9210423.9717273
 10
440878.91913961014
 20
9210431.599595819
 10
440866.4007455036
 20
9210435.55730156
  0
LWPOLYLINE
  5
1A5
330
17
100
AcDbEntity
  8
BANGUNAN
100
AcDbPolyline
 90
5
 70
1
 10
441018.2907567676
 20
9210418.794317225
 10
441016.907159904
 20
9210411.38105783
 10
441023.7883370649
 20
9210410.0967678
 10
441025.1719339285
 20
9210417.510027193
 10
441018.2907567676
 20
9210418.794317225
  0
LWPOLYLINE
  5
1A6
330
17
100
AcDbEntity
  8
BANGUNAN
100
AcDbPolyline
 90
5
 70
1
 10
440935.7856922932
 20
9210387.867284153
 10
440931.0912474245
 20
9210389.588384783
 10
440928.3306207936
 20
9210382.058546454
 10
440933.0250656605
 20
9210380.33744582
 10
440935.7856922932
 20
9210387.867284153
  0
LWPOLYLINE
  5
1A7
330
17
100
AcDbEntity
  8
BANGUNAN
100
AcDbPolyline
 90
5
 70
1
 10
440953.42174877087
 20
9210461.838988025
 10
440963.21396952355
 20
9210458.672646716
 10
440966.29065051116
 20
9210468.187584132
 10
440956.4984297599
 20
9210471.353925442
 10
440953.42174877087
 20
9210461.838988025
  0
LWPOLYLINE
  5
1A8
330
17
100
AcDbEntity
  8
BANGUNAN
100
AcDbPolyline
 90
5
 70
1
 10
440988.8406365197
 20
9210454.92885514
 10
440987.3441134207
 20
9210446.910541264
 10
440992.2592399642
 20
9210445.993191242
 10
440993.7557630632
 20
9210454.011505116
 10
440988.8406365197
 20
9210454.92885514
  0
LWPOLYLINE
  5
1A9
330
17
100
AcDbEntity
  8
BANGUNAN
100
AcDbPolyline
 90
5
 70
1
 10
441080.5662246179
 20
9210243.675611515
 10
441088.9117367696
 20
9210270.457609009
 10
441075.5456310604
 20
9210274.622608192
 10
441067.20011890866
 20
9210247.840610696
 10
441080.5662246179
 20
9210243.675611515
  0
LWPOLYLINE
  5
1AA
330
17
100
AcDbEntity
  8
BANGUNAN
100
AcDbPolyline
 90
5
 70
1
 10
440814.7085097693
 20
9210440.360982476
 10
440807.02068781387
 20
9210445.040447572
 10
440799.02861473896
 20
9210431.910392417
 10
440806.7164366916
 20
9210427.230927318
 10
440814.7085097693
 20
9210440.360982476
  0
LWPOLYLINE
  5
1AB
330
17
100
AcDbEntity
  8
BANGUNAN
100
AcDbPolyline
 90
5
 70
1
 10
441020.6875041458
 20
9210320.467465308
 10
441029.9637014461
 20
9210317.657874295
 10
441032.2827189551
 20
9210325.314385107
 10
441023.0065216548
 20
9210328.123976119
 10
441020.6875041458
 20
9210320.467465308
  0
LWPOLYLINE
  5
1AC
330
17
100
AcDbEntity
  8
BANGUNAN
100
AcDbPolyline
 90
5
 70
1
 10
441160.45985253155
 20
9210328.0429353
 10
441150.6558455769
 20
9210330.01307429
 10
441148.09390710853
 20
9210317.26409429
 10
441157.8979140632
 20
9210315.293955304
 10
441160.45985253155
 20
9210328.0429353
  0
LWPOLYLINE
  5
1AD
330
17
100
AcDbEntity
  8
BANGUNAN
100
AcDbPolyline
 90
5
 70
1
 10
441086.0725716017
 20
9210350.704234064
 10
441090.1635418264
 20
9210364.093183337
 10
441073.7513782368
 20
9210369.10789145
 10
441069.66040801303
 20
9210355.71894218
 10
441086.0725716017
 20
9210350.704234064
  0
LWPOLYLINE
  5
1AE
330
17
100
AcDbEntity
  8
BANGUNAN
100
AcDbPolyline
 90
5
 70
1
 10
440925.453169615
 20
9210418.772716114
 10
440938.4503025338
 20
9210415.02184462
 10
440940.94579161983
 20
9210423.668955943
 10
440927.94865870196
 20
9210427.419827435
 10
440925.453169615
 20
9210418.772716114
  0
LWPOLYLINE
  5
1AF
330
17
100
AcDbEntity
  8
BANGUNAN
100
AcDbPolyline
 90
5
 70
1
 10
440961.1162193278
 20
9210432.137844082
 10
440965.5361034572
 20
9210430.86229989
 10
440966.6452097185
 20
9210434.705460478
 10
440962.22532558814
 20
9210435.981004667
 10
440961.1162193278
 20
9210432.137844082
  0
LWPOLYLINE
  5
1B0
330
17
100
AcDbEntity
  8
BANGUNAN
100
AcDbPolyline
 90
5
 70
1
 10
440913.2956867842
 20
9210552.34269991
 10
440907.4777105218
 20
9210553.553767156
 10
440906.45875462145
 20
9210548.65869526
 10
440912.27673088387
 20
9210547.447628014
 10
440913.2956867842
 20
9210552.34269991
  0
LWPOLYLINE
  5
1B1
330
17
100
AcDbEntity
  8
BANGUNAN
100
AcDbPolyline
 90
5
 70
1
 10
441023.46445420664
 20
9210387.431505073
 10
441026.036630569
 20
9210396.056115717
 10
441009.9386158497
 20
9210400.857136268
 10
441007.3664394873
 20
9210392.232525624
 10
441023.46445420664
 20
9210387.431505073
  0
LWPOLYLINE
  5
1B2
330
17
100
AcDbEntity
  8
BANGUNAN
100
AcDbPolyline
 90
5
 70
1
 10
440962.46175457444
 20
9210437.624881264
 10
440952.85385310557
 20
9210440.397646915
 10
440949.0487456387
 20
9210427.212581094
 10
440958.6566471057
 20
9210424.439815441
 10
440962.46175457444
 20
9210437.624881264
  0
LWPOLYLINE
  5
1B3
330
17
100
AcDbEntity
  8
BANGUNAN
100
AcDbPolyline
 90
5
 70
1
 10
441008.9242545469
 20
9210493.2220999
 10
441014.481607954
 20
9210490.960281365
 10
441016.7808303926
 20
9210496.609537238
 10
441011.22347698547
 20
9210498.871355776
 10
441008.9242545469
 20
9210493.2220999
  0
LWPOLYLINE
  5
1B4
330
17
100
AcDbEntity
  8
BANGUNAN
100
AcDbPolyline
 90
5
 70
1
 10
440927.03452643007
 20
9210330.996620975
 10
440927.03978948854
 20
9210326.463992497
 10
440931.0397867914
 20
9210326.46863709
 10
440931.03452373296
 20
9210331.00126557
 10
440927.03452643007
 20
9210330.996620975
  0
LWPOLYLINE
  5
1B5
330
17
100
AcDbEntity
  8
BANGUNAN
100
AcDbPolyline
 90
5
 70
1
 10
440978.95321276505
 20
9210484.081980674
 10
440988.90151783824
 20
9210480.86516907
 10
440990.74752643146
 20
9210486.574131522
 10
440980.7992213578
 20
9210489.790943123
 10
440978.95321276505
 20
9210484.081980674
  0
LWPOLYLINE
  5
1B6
330
17
100
AcDbEntity
  8
BANGUNAN
100
AcDbPolyline
 90
5
 70
1
 10
440930.9863795852
 20
9210437.076713635
 10
440942.45024506794
 20
9210433.768331198
 10
440943.8366278936
 20
9210438.572281932
 10
440932.37276241044
 20
9210441.880664367
 10
440930.9863795852
 20
9210437.076713635
  0
LWPOLYLINE
  5
1B7
330
17
100
AcDbEntity
  8
BANGUNAN
100
AcDbPolyline
 90
5
 70
1
 10
440848.5042293947
 20
9210451.482104229
 10
440845.79814944416
 20
9210442.922656523
 10
440849.6120837033
 20
9210441.716876503
 10
440852.31816365384
 20
9210450.276324209
 10
440848.5042293947
 20
9210451.482104229
  0
LWPOLYLINE
  5
1B8
330
17
100
AcDbEntity
  8
BANGUNAN
100
AcDbPolyline
 90
5
 70
1
 10
440705.99388383515
 20
9210506.572386013
 10
440704.8072742056
 20
9210500.840905461
 10
440710.68267679587
 20
9210499.624499116
 10
440711.86928642914
 20
9210505.355979672
 10
440705.99388383515
 20
9210506.572386013
  0
LWPOLYLINE
  5
1B9
330
17
100
AcDbEntity
  8
BANGUNAN
100
AcDbPolyline
 90
5
 70
1
 10
441052.0566409454
 20
9210295.895874865
 10
441050.0181188639
 20
9210289.353952419
 10
441054.7917280458
 20
9210287.866452713
 10
441056.83025012724
 20
9210294.408375159
 10
441052.0566409454
 20
9210295.895874865
  0
ENDSEC
  0
SECTION
  2
OBJECTS
  0
DICTIONARY
  5
A
330
0
100
AcDbDictionary
280
0
281
1
  3
ACAD_COLOR
350
B
  3
ACAD_GROUP
350
C
  3
ACAD_LAYOUT
350
D
  3
ACAD_MATERIAL
350
E
  3
ACAD_MLEADERSTYLE
350
F
  3
ACAD_MLINESTYLE
350
10
  3
ACAD_PLOTSETTINGS
350
11
  3
ACAD_PLOTSTYLENAME
350
12
  3
ACAD_SCALELIST
350
14
  3
ACAD_TABLESTYLE
350
15
  3
ACAD_VISUALSTYLE
350
16
  3
EZDXF_META
350
2D
  0
DICTIONARY
  5
B
330
A
100
AcDbDictionary
280
0
281
1
  0
DICTIONARY
  5
C
330
A
100
AcDbDictionary
280
0
281
1
  0
DICTIONARY
  5
D
330
A
100
AcDbDictionary
280
0
281
1
  3
Model
350
1A
  3
Layout1
350
1E
  0
DICTIONARY
  5
E
330
A
100
AcDbDictionary
280
0
281
1
  3
ByBlock
350
1F
  3
ByLayer
350
20
  3
Global
350
21
  0
DICTIONARY
  5
F
330
A
100
AcDbDictionary
280
0
281
1
  3
Standard
350
2C
  0
DICTIONARY
  5
10
330
A
100
AcDbDictionary
280
0
281
1
  3
Standard
350
22
  0
DICTIONARY
  5
11
330
A
100
AcDbDictionary
280
0
281
1
  0
ACDBDICTIONARYWDFLT
  5
12
330
A
100
AcDbDictionary
280
0
281
1
  3
Normal
350
13
100
AcDbDictionaryWithDefault
340
13
  0
ACDBPLACEHOLDER
  5
13
330
12
  0
DICTIONARY
  5
14
330
A
100
AcDbDictionary
280
0
281
1
  0
DICTIONARY
  5
15
330
A
100
AcDbDictionary
280
0
281
1
  0
DICTIONARY
  5
16
330
A
100
AcDbDictionary
280
0
281
1
  0
LAYOUT
  5
1A
330
D
100
AcDbPlotSettings
  1

  2
Adobe PDF
  4
A3
  6

 40
7.5
 41
20.0
 42
7.5
 43
20.0
 44
420.0
 45
297.0
 46
0.0
 47
0.0
 48
0.0
 49
0.0
140
0.0
141
0.0
142
1.0
143
1.0
 70
1024
 72
1
 73
0
 74
5
  7

 75
16
 76
0
 77
2
 78
300
147
1.0
148
0.0
149
0.0
100
AcDbLayout
  1
Model
 70
1
 71
0
 10
0.0
 20
0.0
 11
420.0
 21
297.0
 12
0.0
 22
0.0
 32
0.0
 14
1e+20
 24
1e+20
 34
1e+20
 15
-1e+20
 25
-1e+20
 35
-1e+20
146
0.0
 13
0.0
 23
0.0
 33
0.0
 16
1.0
 26
0.0
 36
0.0
 17
0.0
 27
1.0
 37
0.0
 76
1
330
17
  0
LAYOUT
  5
1E
330
D
100
AcDbPlotSettings
  1

  2
Adobe PDF
  4
A3
  6

 40
7.5
 41
20.0
 42
7.5
 43
20.0
 44
420.0
 45
297.0
 46
0.0
 47
0.0
 48
0.0
 49
0.0
140
0.0
141
0.0
142
1.0
143
1.0
 70
0
 72
1
 73
0
 74
5
  7

 75
16
 76
0
 77
2
 78
300
147
1.0
148
0.0
149
0.0
100
AcDbLayout
  1
Layout1
 70
1
 71
1
 10
0.0
 20
0.0
 11
420.0
 21
297.0
 12
0.0
 22
0.0
 32
0.0
 14
1e+20
 24
1e+20
 34
1e+20
 15
-1e+20
 25
-1e+20
 35
-1e+20
146
0.0
 13
0.0
 23
0.0
 33
0.0
 16
1.0
 26
0.0
 36
0.0
 17
0.0
 27
1.0
 37
0.0
 76
1
330
1B
  0
MATERIAL
  5
1F
102
{ACAD_REACTORS
330
E
102
}
330
E
100
AcDbMaterial
  1
ByBlock
  2

 70
0
 40
1.0
 71
1
 41
1.0
 91
-1023410177
 42
1.0
 72
1
  3

 73
1
 74
1
 75
1
 44
0.5
 73
0
 45
1.0
 46
1.0
 77
1
  4

 78
1
 79
1
170
1
 48
1.0
171
1
  6

172
1
173
1
174
1
140
1.0
141
1.0
175
1
  7

176
1
177
1
178
1
143
1.0
179
1
  8

270
1
271
1
272
1
145
1.0
146
1.0
273
1
  9

274
1
275
1
276
1
 42
1.0
 72
1
  3

 73
1
 74
1
 75
1
 94
63
  0
MATERIAL
  5
20
102
{ACAD_REACTORS
330
E
102
}
330
E
100
AcDbMaterial
  1
ByLayer
  2

 70
0
 40
1.0
 71
1
 41
1.0
 91
-1023410177
 42
1.0
 72
1
  3

 73
1
 74
1
 75
1
 44
0.5
 73
0
 45
1.0
 46
1.0
 77
1
  4

 78
1
 79
1
170
1
 48
1.0
171
1
  6

172
1
173
1
174
1
140
1.0
141
1.0
175
1
  7

176
1
177
1
178
1
143
1.0
179
1
  8

270
1
271
1
272
1
145
1.0
146
1.0
273
1
  9

274
1
275
1
276
1
 42
1.0
 72
1
  3

 73
1
 74
1
 75
1
 94
63
  0
MATERIAL
  5
21
102
{ACAD_REACTORS
330
E
102
}
330
E
100
AcDbMaterial
  1
Global
  2

 70
0
 40
1.0
 71
1
 41
1.0
 91
-1023410177
 42
1.0
 72
1
  3

 73
1
 74
1
 75
1
 44
0.5
 73
0
 45
1.0
 46
1.0
 77
1
  4

 78
1
 79
1
170
1
 48
1.0
171
1
  6

172
1
173
1
174
1
140
1.0
141
1.0
175
1
  7

176
1
177
1
178
1
143
1.0
179
1
  8

270
1
271
1
272
1
145
1.0
146
1.0
273
1
  9

274
1
275
1
276
1
 42
1.0
 72
1
  3

 73
1
 74
1
 75
1
 94
63
  0
MLINESTYLE
  5
22
102
{ACAD_REACTORS
330
10
102
}
330
10
100
AcDbMlineStyle
  2
Standard
 70
0
  3

 62
256
 51
90.0
 52
90.0
 71
2
 49
0.5
 62
256
  6
BYLAYER
 49
-0.5
 62
256
  6
BYLAYER
  0
MLEADERSTYLE
  5
2C
102
{ACAD_REACTORS
330
F
102
}
330
F
100
AcDbMLeaderStyle
179
2
170
2
171
1
172
0
 90
2
 40
0.0
 41
0.0
173
1
 91
-1056964608
 92
-2
290
1
 42
2.0
291
1
 43
8.0
  3
Standard
 44
4.0
300

342
29
174
1
175
1
176
0
178
1
 93
-1056964608
 45
4.0
292
0
297
0
 46
4.0
 94
-1056964608
 47
1.0
 49
1.0
140
1.0
294
1
141
0.0
177
0
142
1.0
295
0
296
0
143
3.75
271
0
272
9
273
9
  0
DICTIONARY
  5
2D
330
A
100
AcDbDictionary
281
1
  3
CREATED_BY_EZDXF
350
2E
  3
WRITTEN_BY_EZDXF
350
1BC
  0
DICTIONARYVAR
  5
2E
330
2D
100
DictionaryVariables
280
0
  1
1.2.0 @ 2026-04-03T14:01:44.397898+00:00
  0
DICTIONARYVAR
  5
1BC
330
2D
100
DictionaryVariables
280
0
  1
1.2.0 @ 2026-04-03T14:01:44.407377+00:00
  0
ENDSEC
  0
EOF
